<svg width="1920" height="832" viewBox="0 0 1920 832" fill="none" xmlns="http://www.w3.org/2000/svg">
<path fill-rule="evenodd" clip-rule="evenodd" d="M1152 341.799V344.984C1161.46 344.895 1187.49 341.399 1197.42 339.078C1202.14 337.976 1207.31 337.527 1212.28 336.604C1231.42 333.045 1255.67 331.584 1276.3 333.667C1296.11 335.667 1315.14 340.405 1331.6 347.001C1349.57 354.2 1363.48 356.36 1382.58 356.087C1383.86 356.069 1385.52 356.125 1386.75 355.91C1387.85 355.718 1388.39 355.258 1389.71 355.191C1390.27 357.677 1374.57 376.989 1389.74 384.176C1400.63 389.341 1418.36 375.783 1420.72 375.315C1419.96 380.42 1409.14 389.981 1413.73 397.514C1418.49 405.32 1430.81 391.74 1433.78 391.525C1434.61 391.465 1434.34 391.507 1434.76 391.693C1436.25 395.724 1433.49 402.67 1435.05 407.889C1436.27 411.951 1439.85 415.571 1445.31 414.87C1449.74 414.303 1454.07 410.857 1456.48 408.551C1458.88 406.254 1460.76 404.7 1462.93 401.986C1463.8 400.899 1463.66 400.352 1465.22 400.174C1464.87 404.581 1463.37 409.669 1463.13 414.392C1462.87 419.579 1462.65 426.025 1464.8 429.724C1466.88 433.312 1471.45 435.273 1476.37 432.829C1481.83 430.12 1483.38 425.133 1484.84 424.434C1485.95 427.829 1485.58 431.39 1488.36 436.973C1495.53 451.365 1511.99 449.821 1515.55 440.337C1515.81 439.659 1515.81 439.306 1516.06 438.693C1516.1 438.596 1516.14 438.48 1516.18 438.387L1516.93 437.255C1518.76 438.426 1520.07 442.176 1521.1 443.673C1522.92 446.313 1524.19 447.837 1526 449.613C1529.22 452.766 1537.26 456.966 1540.38 450.939C1546.12 439.82 1520.62 400.517 1514.98 391.173C1511.98 386.192 1500.39 368.318 1501.53 361.544C1502.04 358.481 1507.47 349.403 1511.96 351.648C1527.98 359.666 1538.02 366.146 1552.75 375.903C1575.27 390.827 1588.33 395.917 1613.82 401.613C1641.01 407.689 1676.51 405.161 1704.4 401.323L1752.11 394.736C1758.54 393.696 1765.17 393.462 1771.56 392.403C1792.16 388.986 1832.24 387.92 1853.01 391.27C1856.25 391.793 1859.24 392.173 1862.37 392.633C1865.16 393.044 1868.34 393.922 1871.46 394.422C1876.95 395.302 1883.42 397.297 1888.67 398.871C1897.64 401.557 1904.22 404.082 1912.41 407.675C1914.27 408.491 1918.45 410.7 1920 410.895V407.539C1917.53 407.015 1912 404.084 1909.33 402.932C1881.2 390.809 1848.58 385.651 1817.28 386.031C1810.59 386.112 1794.24 386.871 1788.15 387.658C1783.45 388.265 1778.31 388.506 1773.49 388.853C1769.54 389.137 1764.17 390.338 1759.94 390.709C1750.46 391.542 1741.34 393.483 1732.31 394.533C1723.56 395.551 1713.45 397.716 1705.04 398.372C1700.65 398.715 1695.71 399.244 1691.52 399.893L1677.3 401.245C1666.95 401.601 1657.72 402.379 1646.94 402.147C1628.78 401.756 1608.82 398.494 1593.6 393.128C1562.38 382.12 1550.57 368.411 1523.68 354.213C1521 352.803 1517.42 351.405 1514.85 349.641C1513.09 348.438 1514.36 349.648 1513.66 348.396C1514.55 347.323 1516.02 346.843 1517.29 346.145C1518.48 345.483 1519.69 344.845 1520.96 344.228C1523.65 342.929 1526.44 341.67 1528.91 340.467L1544.67 332.819C1549.98 334.104 1548.84 353.818 1563.18 337.417C1567.2 332.824 1572.51 324.685 1575.31 318.737C1575.93 317.424 1575.9 316.398 1577.17 316.068C1577.87 317.535 1578.35 324.23 1578.75 326.365C1580.62 336.305 1581.96 347.561 1587.36 355.564C1592.32 362.905 1601.83 342.597 1603.46 338.263L1606.3 328.518C1607.79 329.255 1607.74 332.081 1608.28 333.746C1608.91 335.655 1609.71 337.452 1610.68 339.177C1612.24 341.986 1615.13 345.335 1619.65 345.383C1625.77 345.448 1634.44 340.824 1636.69 333.885L1637.42 332.028C1638.96 332.873 1639.3 333.83 1640.57 334.81C1644.21 337.611 1648.4 340.081 1653.4 339.359C1657.43 338.778 1658.87 337.618 1660.99 335.098C1663.5 332.11 1661.89 330.127 1661.5 325.588C1665.47 326.558 1679.44 341.294 1691.44 334.357C1695.28 332.137 1695.96 330.713 1696.4 325.404C1697.31 325.548 1707.97 329.751 1712.99 330.765C1719.84 332.149 1728.29 330.575 1730.64 326.247C1731.13 322.593 1706.3 307.43 1705.18 305.402C1706.06 304.992 1711.9 307.514 1713.65 308.092C1722.23 310.922 1737.13 314.941 1745.62 312.173C1748.48 311.241 1751.69 309.585 1752.77 307.164C1754.02 304.373 1749.4 301.756 1747.76 300.364C1745.28 298.247 1743.8 297.088 1740.92 295.048C1738.2 293.118 1735.36 291.819 1733.29 290.202C1734.25 289.549 1735.09 290.105 1736.67 290.618C1746.36 293.759 1756.13 295.396 1766.58 294.513C1772.35 294.025 1783.52 287.51 1780.24 280.846C1778.56 277.434 1777.05 278.076 1775.05 275.87C1775.66 275.404 1775.06 275.631 1776.14 275.377C1776.72 275.243 1776.81 275.262 1777.4 275.228L1784.4 274.451C1798.51 272.271 1812.74 269.379 1823.54 259.985C1825.36 258.397 1832.41 251.525 1832.3 247.315C1822.56 239.921 1808.42 244.716 1795.26 243.151C1785.12 241.945 1766.86 240.851 1757.73 238.3L1739.7 234.992C1723.75 232.486 1675.57 217.619 1655.95 212.958C1641.92 209.624 1635.2 207.05 1619.32 209.843C1600.6 213.136 1580.56 217.409 1566.9 231.707C1564.96 233.731 1561.14 233.679 1558.06 233.744C1557.97 231.666 1561.17 227.505 1562.34 225.391C1567.69 215.71 1570.78 206.988 1570.77 195.092C1570.74 178.149 1563.95 171.586 1554.26 160.296C1542.24 146.3 1528.43 135.204 1516.26 121.495C1514.48 119.485 1512.47 116.326 1510.7 114.049C1505.11 106.856 1468.3 65.2856 1462.56 59.7873C1458.09 55.5102 1434.39 28.6758 1432.24 25.8928C1428.46 20.9782 1424.93 16.2202 1421 11.537C1419 9.1507 1410.57 -0.316951 1406.41 0.00818404C1403.07 2.63594 1403.26 8.95827 1404.82 13.4101C1408.17 22.9192 1422.52 40.5136 1423.86 45.4768C1421.7 44.91 1419.51 41.9628 1417.67 40.4976C1412.87 36.661 1402.64 28.4606 1396.14 28.5C1386.21 39.1926 1401.77 63.6246 1406.85 70.8729C1413.69 80.655 1436.35 98.0542 1437.19 99.972C1435.18 99.5046 1429.67 95.33 1427.91 94.0858C1425.41 92.324 1421.41 89.8926 1418.25 88.1249C1415.12 86.3754 1398.73 78.1577 1395.88 80.4391C1393.68 83.1348 1399.46 93.4034 1400.8 95.6087C1408.85 108.829 1433.19 125.61 1434.07 127.698C1431.96 127.438 1426.51 124.205 1423.89 123.241C1417.58 120.923 1405.78 117.289 1403.29 126.788C1402.16 131.107 1404.32 135.633 1406.18 138.433C1411.76 146.864 1420.97 154.982 1428.69 161.042C1430.43 162.407 1436.25 166.616 1437.03 168.479C1426.02 168.047 1416.94 158.907 1406.32 167.527C1406.21 173.965 1417.11 181.365 1422.2 184.067C1427.12 186.682 1442.09 192.57 1443.02 193.113C1444.07 193.718 1443.75 193.217 1444.21 194.224C1440.89 197.938 1424.14 198.283 1420.15 209.324C1415.03 223.462 1430.56 226.098 1441.73 224.482C1441.5 226.82 1438.93 228.364 1437.79 229.578C1434 233.639 1427.53 240.228 1427.54 246.773C1427.55 251.811 1431.71 255.884 1436.72 256.068C1442.84 256.294 1448.07 253.214 1452.49 253.077C1451.47 259.431 1445.42 267.949 1451.09 274.967C1455.93 280.956 1467.03 277.981 1474.69 278.171C1473.92 281.651 1470.55 283.639 1470.75 287.051C1472.86 288.486 1474.42 287.805 1474.62 291.07C1472.94 293.547 1460.09 299.917 1455.96 301.268C1444.39 305.059 1442.2 302.321 1431.81 300.48L1407.23 295.915C1402 294.55 1386.96 293.649 1380.83 293.189C1345.49 290.54 1331.72 305.282 1335.73 310.195C1341.57 317.355 1352.38 320.012 1361.05 321.357C1363.15 321.684 1371.79 322.546 1373.54 323.642C1372.65 325.055 1368.53 326.427 1366.73 327.292C1346.99 336.79 1352.82 352.407 1384.93 349.476C1387.45 349.246 1392.82 348.441 1394.63 348.503C1394.44 351.114 1392.67 352.026 1389.96 352.262C1380.74 353.067 1374.39 353.63 1365.02 352.414C1345.07 349.821 1339.95 346.102 1323.42 340.741C1309.17 336.121 1295.23 332.65 1279.85 330.99C1277.15 330.698 1275.45 330.059 1272.5 330.003C1269.48 329.947 1266.43 329.821 1263.65 329.603C1255.51 328.966 1246.17 329.474 1238.06 330.097C1227.89 330.876 1209.07 333.763 1198.94 335.625C1183.33 338.492 1168.3 341.733 1152 341.799V341.799ZM1397.31 32.2409C1390.8 42.6406 1408.15 68.8352 1415.63 76.4164C1424.43 85.3323 1438.59 95.2117 1445.3 103.578C1446.71 105.332 1448.67 106.566 1447.83 108.918C1445.29 109.711 1437.97 104.599 1435.8 103.103C1432.09 100.535 1428.51 98.221 1424.58 95.6746C1420.23 92.8644 1405.18 83.5536 1399.02 83.871C1400.28 96.7592 1422.86 114.333 1432.54 122.012C1434.68 123.706 1445.96 132.059 1443.68 134.291C1440.59 137.32 1415.09 117.985 1407.68 125.14C1404.21 128.489 1407.26 134.779 1409.41 137.798C1419.22 151.588 1442.64 166.703 1443.66 170.337C1438.57 177.058 1420.91 163.053 1410.05 168.6C1409.84 173.978 1423.43 181.221 1427.72 183.275C1432.44 185.535 1448.64 191.624 1450.07 193.354C1449.2 200.636 1419.02 199.996 1422.67 216.264C1423.28 218.983 1425.55 219.967 1428.23 220.925C1435.53 223.536 1452.34 217.649 1446.59 224.922C1445.81 225.907 1445.27 226.607 1444.37 227.485C1440.41 231.328 1433.23 238.504 1431.42 243.674C1429.09 250.32 1433.37 253.605 1440.22 252.898C1446.36 252.264 1451.44 248.747 1456.28 249.357C1456.81 252.394 1454.16 257.709 1453.25 260.681C1446.06 284.215 1471.54 271.981 1478.99 275.675C1479.55 278.278 1475.65 282.51 1474.74 284.99C1475.85 286.82 1479.33 289.49 1477.64 292.916C1476.39 295.472 1459.08 303.741 1454.52 305.019C1446.03 307.396 1442.32 305.953 1434.89 304.324C1428.56 302.936 1421.89 301.511 1415.31 300.402C1398.13 297.505 1369.71 293.536 1352.26 298.421C1346.39 300.063 1340.17 303.317 1338.27 308.007C1341.4 313.736 1355.41 317.488 1363.07 318.503C1365.35 318.804 1366.33 319.385 1368.73 319.568C1371.44 319.774 1378.89 320.666 1380.63 321.904C1380.82 325.488 1372.19 327.939 1367.07 330.687C1362.72 333.022 1355.31 337.182 1360.21 342.577C1367.97 351.122 1397.37 343.598 1399.57 345.673C1399.84 346.114 1399.89 345.841 1399.94 346.721C1400.07 349.008 1399.18 347.64 1398.27 350.459C1409.3 349.651 1424.89 340.143 1434.06 333.974C1437.8 331.456 1440.38 328.855 1443.53 326.096C1462.79 309.252 1459.76 301.36 1483.83 297.325C1504.2 293.909 1513.71 286.225 1528.68 273.314C1539.05 264.363 1548.88 252.2 1557.59 241.479C1558.68 240.145 1561.03 238.291 1561.09 236.411C1551.75 236.513 1553.56 241.095 1547.75 246.395C1545.75 248.213 1539.9 254.999 1536.23 258.296C1527.98 265.71 1518.39 272.59 1507.82 277.133C1504.49 278.562 1499.95 279.983 1495.82 280.813C1493.17 281.345 1483.57 282.255 1481.69 280.316C1480.41 277.705 1487.98 269.167 1489.49 267.481C1496.45 259.678 1511.31 249.708 1521.4 246.535C1531.47 243.363 1534.96 241.108 1544.5 237.482C1553.94 233.888 1551.7 237.318 1556.85 228.585C1564.03 216.387 1567.69 209.169 1567.69 193.354C1567.69 180.517 1561.22 172.543 1553.51 164.079C1546.11 155.957 1539.39 148.789 1532.04 141.728C1525.08 135.032 1516.74 127.673 1510.73 119.21C1507.57 114.749 1504.25 111.44 1501 107.259L1485.59 89.6988C1483.9 87.694 1482.1 86.0167 1480.41 84.0274C1476.88 79.8832 1473.24 76.4558 1469.87 72.4338C1466.39 68.2684 1463.15 65.049 1459.53 61.0871C1456.03 57.2539 1452.63 53.3715 1448.99 49.4981C1441.87 41.9168 1435.35 34.6776 1428.54 26.1352C1425.41 22.2192 1411.94 3.9608 1407.52 3.81419C1404.63 9.47509 1410.95 19.5513 1413.31 23.1485C1417.89 30.1449 1435.44 57.608 1440.21 63.5122L1449 74.785C1450.23 77.1273 1448.36 78.5085 1446.72 77.0212C1445.35 75.7772 1435.84 62.8366 1431.79 58.4792L1421.59 48.2895C1417.26 44.0181 1403.06 31.7012 1397.31 32.2409V32.2409ZM1569.76 233.792C1581.64 237.042 1588.63 244.06 1592.14 256.506C1594 263.113 1592.24 270.639 1588.74 274.43C1583.03 280.624 1578.98 269.114 1574.26 269.463C1574.5 271.491 1579.21 273.584 1580.74 277.913C1581.74 280.758 1582.24 287.944 1580.64 290.597C1577.64 291.078 1576.49 288.492 1573.71 287.894L1572.64 290.401C1572.19 291.727 1572.1 291.973 1571.48 293.215C1570.47 295.231 1569.6 296.026 1568.3 297.808C1560.07 309.072 1558.5 312.993 1546.84 323.217C1539.81 329.381 1520.44 341.622 1509.99 344.469C1508.11 344.981 1508.23 344.479 1507.34 345.79C1509.29 347.972 1511.3 345.935 1516.43 343.084C1521.5 340.266 1529.27 336.893 1535.1 334.005C1536.8 333.162 1538.14 332.463 1539.62 331.646C1540.88 330.952 1542.68 329.578 1544.24 329.072C1550.9 331.544 1550.42 337.688 1553.77 340.644C1560.47 340.031 1571.73 319.257 1575.28 312.161C1576.2 310.338 1576.35 308.556 1578.76 308.636C1580.06 310.418 1582.32 328.743 1582.9 332.751C1583.52 337.07 1586.91 351.605 1590.18 353.59C1596.86 351.075 1603.58 329.311 1605.01 320.587C1606.32 312.682 1603.45 307.41 1607.8 307.77C1609.58 309.892 1608.48 319.027 1609.79 327.099C1610.69 332.617 1613.19 339.57 1616.91 341.554C1621.32 343.906 1630 338.793 1631.96 336.41C1637.52 329.62 1629.47 321.653 1633.95 320.328C1635.73 320.478 1636.21 325.97 1641.02 330.89C1643.43 333.357 1648.13 337.214 1653.83 336.161C1660.55 334.921 1658.98 329.937 1658.03 324.163C1657.13 318.628 1649.24 317.008 1651.63 313.219C1653.89 312.2 1658.38 317.972 1659.85 319.408C1665.78 325.225 1682.34 337.944 1690.76 331.055C1698.58 324.648 1687.33 321.002 1679.59 316.13L1670.39 309.705C1668.57 308.292 1667.8 307.465 1666.23 306.065C1665.3 305.238 1662.31 303.425 1664.08 301.725C1665.35 300.501 1669.63 303.547 1671.32 304.451C1677.66 307.86 1687.47 313.714 1691.97 318.483C1694.53 321.196 1693.83 320.877 1698.78 322.95C1703.89 325.092 1710.95 327.678 1716.72 328.123C1719.54 328.341 1724.9 327.891 1726.21 325.813C1725 322.802 1704.96 309.011 1700.54 306.427C1692.57 301.758 1687.12 298.35 1678.55 294.624C1676.38 293.681 1671.88 292.498 1670.9 290.635L1671.75 289.014C1673.78 288.85 1702.08 300.876 1708.36 302.996C1716.23 305.656 1743.91 315.256 1749.31 306.27C1746.45 299.724 1721.14 286.99 1710.64 283.706C1708.06 282.897 1705.55 282.272 1702.85 281.542C1699.68 280.687 1695.73 281.636 1695.8 277.882C1704.94 274.563 1739.56 292.411 1764.43 291.598C1772.52 291.333 1784.5 283.037 1772.29 278.375C1760.32 273.802 1756.42 276.975 1743.74 275.78C1740.61 275.485 1736.88 275.58 1734.04 275.051C1730.69 274.425 1726.84 275.058 1727.1 271.472C1731.16 269.618 1751.62 271.002 1757.06 271.83C1772.53 274.186 1797.28 270.872 1811.54 263.994C1816.93 261.395 1827.71 253.955 1828.48 248.554C1818.15 244.027 1803.9 247.651 1791.56 245.949C1785.58 245.124 1779.53 244.895 1773.75 243.875C1767.94 242.853 1762.18 242.31 1756.33 241.284C1749.21 240.034 1729.95 236.341 1723.84 234.422L1661.25 217.588C1649.6 215.069 1641.28 211.236 1627.44 211.763C1617.11 212.156 1604.47 215.765 1594.55 218.529C1585.71 220.993 1579.21 225.693 1572.26 230.965C1571.02 231.909 1570.15 232.249 1569.76 233.792ZM1426.78 368.517C1428.86 370.361 1427.94 370.955 1425.3 374.704C1422.88 378.156 1412.53 393.655 1416.91 396.478C1422.88 397.734 1430.7 386.551 1436.66 387.611C1439.54 392.265 1437.31 399.073 1437.65 404.839C1438.03 411.198 1442.98 413.475 1448.46 410.549C1454.72 407.201 1460.99 399.731 1465.51 394.148C1466.59 392.821 1466.69 392.266 1468.6 392.903C1468.65 393.018 1468.71 393.067 1468.73 393.266C1468.74 393.468 1468.83 393.537 1468.84 393.637C1469.3 396.084 1468.62 399.829 1468.12 402.122C1467.48 405.12 1467 407.735 1466.75 410.932C1466.34 416.025 1464.53 424.56 1467.92 428.762C1473.66 435.891 1481.85 424.26 1484.16 418.047C1485.02 415.729 1485.29 411.524 1486.59 410.077C1490.44 410.237 1488 414.418 1487.97 418.31C1487.65 454.43 1518.8 448.732 1513.51 428.732L1511.34 422.089C1511.21 421.417 1511.15 421.707 1511.26 420.975C1511.5 419.337 1511.11 420.442 1511.87 419.694C1514.82 417.276 1516.04 427.919 1520.17 435.888C1522.97 441.306 1527.21 447.996 1532.05 450.076C1547.89 456.876 1527.84 419.068 1526.79 417.109C1519.2 402.998 1502.59 379.301 1499.13 367.077C1495.83 355.422 1505.78 351.687 1505.93 348.831L1502.24 347.543C1492.91 355.814 1497 359.229 1494.58 365.551C1492.57 370.816 1487.17 375.75 1480.41 376.925C1476.71 377.569 1472.9 375.351 1473.68 371.546C1473.99 370.017 1475.41 368.828 1476.32 367.64C1478.52 364.799 1482.44 357.542 1481.79 353.681C1481.33 350.916 1476.66 348.953 1474.02 348.383C1470.03 352.603 1473.06 363.092 1469.32 367.484C1463.27 367.819 1458.39 354.315 1456.91 349.885C1455.92 346.911 1454.14 341.156 1454.43 337.527C1454.84 332.553 1458.46 330.551 1463.04 332.869C1473.34 338.082 1484.11 338.155 1498.31 342.669C1504.16 344.527 1504.49 343 1510.13 341.165C1528.88 335.069 1550.78 318.649 1561.35 302.137C1564.39 297.391 1568.52 293.815 1570.1 288.325C1570.64 286.462 1570.16 283.178 1571.13 281.516C1574.81 279.889 1572.23 285.365 1578.19 285.948C1579.26 271.998 1570.28 275.43 1570.74 269.388C1571.01 265.79 1575.84 265.71 1578.5 267.577C1580.51 268.986 1582.77 272.415 1585.41 272.936C1588.67 271.061 1590.08 265.785 1589.79 261.084C1589.55 257.26 1587.44 251.82 1585.88 248.926C1582.55 242.74 1574.74 237.298 1566.34 236.446C1554.61 246.595 1539.05 275.947 1505.77 293.806C1491.85 301.27 1480.28 298.929 1469.29 305.011C1464.78 307.509 1460.48 313.112 1457.26 316.838C1450.37 324.812 1441.68 332.423 1432.2 339.048C1422.38 345.91 1411.91 350.333 1399.57 353.657C1394.13 355.123 1395.27 353.414 1392.35 358.191C1389.7 362.548 1385.35 370.061 1386.39 375.735C1386.94 378.756 1389.64 381.274 1392.58 381.895C1404.69 384.447 1422.3 368.881 1426.78 368.517V368.517ZM1485.95 278.176C1503.05 278.552 1518 269.918 1530.34 259.339L1543.16 246.994C1544.79 245.242 1548.17 241.928 1548.83 239.531C1545.9 239.697 1533.48 245.416 1530.44 246.819C1524.57 249.52 1518.02 250.395 1512.4 253.946C1506.66 257.569 1502.04 260.036 1497.44 264.159C1494.99 266.352 1486.31 274.403 1485.95 278.176V278.176ZM1467.52 362.94C1467.88 362.3 1467.62 363.264 1467.91 361.825C1468.54 358.688 1467.6 357.136 1469.94 349.553C1470.83 346.657 1469.78 341.801 1480.39 347.647C1492.64 354.403 1477.04 369.825 1476.96 373.234C1483.61 375.123 1490.61 368.764 1491.8 363.961C1492.62 360.646 1492.21 356.775 1493.57 353.701C1495.95 348.325 1498.33 348.285 1498.24 345.79C1496.55 344.971 1490.83 343.602 1488.43 343.031C1482.48 341.618 1472.56 340.303 1467.75 338.526C1465.58 337.728 1461.25 334.769 1458.59 335.117C1455.38 341.064 1461.54 354.112 1464.91 360.102C1466.6 363.083 1466.36 362.514 1467.52 362.94" fill="#2A335C"/>
<path fill-rule="evenodd" clip-rule="evenodd" d="M0 799.793V797.014C1.04467 797.391 5.3504 800.835 6.73026 801.762C13.9167 806.588 21.0887 810.62 29.6092 813.659C49.3452 820.699 68.4745 819.923 87.8975 811.852C98.6076 807.402 107.403 800.572 115.694 793.148C120.904 788.484 125.94 786.094 125.959 779.896C124.571 780.077 115.294 785.354 112.825 786.395C109.451 787.817 98.8207 791.86 100.473 783.952C101.695 778.11 110.811 769.17 115.922 765.513C117.004 764.739 118.35 764.288 118.787 763.111C108.564 759.849 122.91 749.121 130.005 746.296C130.999 745.9 132.863 745.427 133.664 744.927C133.14 744.004 132.744 744.09 131.718 743.328C129.807 741.909 126.976 740.04 125.76 737.88C122.897 732.792 132.562 734.042 135.5 734.226C161.841 735.873 142.021 725.738 147.128 722.362C149.991 720.98 156.783 725.36 159.536 725.726C160.712 722.839 161.152 721.265 163.029 719.087C166.461 715.106 176.022 713.734 177.858 716.979C180.564 721.762 173.447 736.607 171.449 740.669C169.817 743.987 168.293 747.599 166.16 750.698C164.981 752.412 165.178 753.193 166.996 753.921C167.958 753.44 171.705 749.862 172.665 748.797C174.308 746.974 176.501 745.379 178.255 743.588C181.005 740.779 186.608 735.921 190.511 733.974C196.683 730.893 202.367 733.711 206.278 737.114C208.956 739.445 211.51 742.894 213.401 746.211L215.743 749.888C215.525 748.104 215.048 746.946 215.45 745.394C217.214 744.943 218.049 746.355 219.145 747.628C221.896 750.822 224.378 755.619 229.144 756.537C232.683 757.219 237.107 755.281 237.712 752.667C238.647 748.618 234.386 744.156 235.922 743.08C237.448 742.361 238.834 745.124 239.826 746.147C241.206 747.571 242.231 748.791 243.688 750.092C246.291 752.417 249.627 755.189 254.849 754.577C264.033 753.5 261.958 742.519 256.614 738.057C255.441 737.077 255.439 736.804 256.447 735.742C257.939 735.705 260.956 739.46 266.911 741.841C272.029 743.886 282.418 745.38 285.511 738.995C288.584 732.647 271.523 729.15 274.629 726.297C275.726 725.741 276.758 726.774 277.592 727.271C280.828 729.202 284.342 730.069 288.265 730.686C307.756 733.751 320.755 720.255 302.775 715.879C298.992 714.958 295.759 716.057 295.044 714.046C296.072 711.895 300.866 713.292 302.94 713.616C308.499 714.486 315.105 715.682 320.567 714.12C322.864 713.464 325.728 712.37 326.478 710.149C325.634 707.916 322.71 706.525 320.359 705.486C318.496 704.664 314.355 703.102 312.315 702.75C310.981 702.519 308.804 702.576 307.275 702.424C304.555 702.154 294.887 701.971 293.636 699.655C294.578 696.841 302.961 698.478 305.361 698.908C307.465 699.285 309.326 699.661 311.268 700.194C316.517 701.632 341.243 701.848 343.286 697.556C342.553 696.024 337.463 695.445 335.629 695.023C332.832 694.378 330.121 693.842 327.247 693.203C321.557 691.937 315.817 690.94 310.015 689.753C286.219 684.887 261.655 682.528 237.388 679.986C226.209 678.815 211.419 683.199 203.13 686.911C196.992 689.659 201.543 691.056 192.979 697.148C188.301 700.476 186.082 702.974 181.861 706.741C178.732 709.535 172.726 714.489 167.997 709.745C164.904 706.643 164.382 698.606 164.032 693.073C163.343 682.192 165.221 668 172.295 659.983C178.813 652.598 183.715 659.895 187.054 659.527C189.221 659.289 192.571 657.63 194.689 656.889C196.44 656.277 199.09 655.238 201.069 655.703C202.686 656.082 201.402 656.074 202.674 656.8C213.683 650.55 218.287 648.853 230.992 644.919C232.931 644.318 259.2 637.455 262.338 637.541C266.995 637.667 261.479 646.365 258.587 649.138C250.794 656.609 237.296 664.598 225.723 664.547C224.236 664.541 223.493 664.353 224.063 666.199C226.158 672.99 244.11 661.734 248.029 659.58C249.07 659.007 251.721 657.081 252.782 657.942C253.655 658.929 253.023 659.352 252.687 660.915L252.415 663.964C252.752 665.938 252.012 662.805 252.56 664.476C253.397 667.029 260.184 661.639 260.701 661.143C261.807 660.083 262.596 659.188 263.663 658.103C264.654 657.096 265.781 655.162 267.133 655.848C267.675 656.655 267.783 660.619 268.225 661.879C274.401 660.184 277.602 645.517 283.078 637.945C284.064 636.583 284.936 635.689 286.011 634.289C288.288 631.319 293.51 625.74 291.832 621.594C289.072 614.777 269.361 629.84 266.394 631.749C256.476 638.133 256.62 635.496 254.95 624.297C254.474 621.1 254.773 621.883 253.508 619.441C252.661 617.808 248.178 614.051 246.442 613.323C239.093 610.237 237.369 611.504 230.025 610.255C226.975 609.736 209.917 606.358 215.879 600.73C216.989 599.682 218.541 599.016 220.114 598.366C221.285 597.882 223.992 597.587 224.776 596.519C223.649 596.165 221.879 596.205 220.614 595.993C219.265 595.768 217.869 595.539 216.538 595.247C203.643 592.419 204.98 584.909 210.758 583.02L212.608 582.128C209.754 580.735 199.138 582.235 195.781 577.932C193.475 574.977 196.303 572.701 198.27 571.435C200.844 569.777 203.721 569.538 206.189 568.298C205.462 567.791 193.776 566.149 191.795 565.723C186.213 564.521 177.099 562.889 173.27 558.778C171.212 556.57 172.891 554.348 174.742 553.31C179.01 550.917 188.448 551.597 189.66 550.514C185.06 549.697 176.691 546.218 172.747 544.288C170.476 543.176 167.325 541.233 166.005 539.643C163.573 536.713 164.264 533.638 167.37 532.136C175.385 528.262 199.036 534.459 206.626 536.806C213.52 538.938 216.049 540.286 221.045 545.467C228.38 553.071 233.356 564.747 240.416 572.571C242.775 575.186 249.496 581.927 253.042 583.328C254.39 582.701 256.817 580.67 259.367 579.475C260.531 578.93 260.96 579.047 261.842 578.231L259.79 577.164C258.974 576.829 258.333 576.45 257.584 576.1C256.173 575.442 254.82 574.791 253.394 573.972C250.794 572.479 248.123 570.321 246.783 567.991C245.095 565.054 245.414 560.893 247.373 558.467C250.39 554.729 255.07 557.283 257.545 556.344C257.508 556.283 257.433 556.126 257.411 556.175L254.335 553.562C249.996 549.619 242.302 539.495 246.074 533.479C248.197 530.093 251.519 531.307 255.081 531.967C254.513 530.553 251.907 527.955 250.775 526.242C249.629 524.508 247.989 522.053 247.141 519.679C245.925 516.278 246.709 513.563 249.251 512.378C252.25 510.979 255.308 512.088 258.317 512.341C257.946 511.144 256.785 509.431 256.199 508.215C254.049 503.75 246.747 489.271 251.097 485.436C253.852 483.007 257.68 487.222 259.493 488.035C258.244 482.463 255.416 477.618 254.781 471.531C254.443 468.287 254.577 464.724 257.846 464.568C261.219 464.407 263.044 467.251 265.087 467.851L261.837 452.798C260.763 447.759 259.992 441.533 260.191 436.112C260.648 423.615 268.385 427.951 273.199 434.244C273.822 435.057 276.463 439.35 276.943 439.654C277.316 436.185 275.992 432.756 277.252 428.855C280.451 418.95 292.971 437.754 295.115 440.823C303.935 453.448 314.086 472.175 320.78 486.216C323.291 491.483 326.123 496.808 328.413 502.252C337.265 523.292 343.769 535.139 334.379 558.246C328.351 573.076 322.656 578.823 326.261 594.953C327.46 600.316 329.962 609.414 334.696 610.508C338.992 611.501 347.444 605.428 350.944 603.267C355.876 600.221 360.44 596.777 368.179 596.81C374.033 596.836 382.144 601.15 382.812 605.856C383.077 607.725 382.578 609.839 383.085 611.576C383.9 614.369 390.318 618.717 388.701 623.575C386.587 624.001 384.23 621.46 381.663 620.784C378.661 619.994 377.248 622.563 375.522 624.255C369.301 630.351 354.069 648.521 351.238 650.945C350.303 651.745 346.347 654.875 345.984 655.935C354.405 658.725 362.719 661.857 372.586 663.182C406.564 667.745 432.655 649.765 453.936 626.51L458.042 622.231C468.816 610.919 476.089 602.43 488.939 593.478C491.449 591.73 497.431 589.039 500.483 587.913C507.958 585.155 522.529 584.755 529.994 588.201L530.086 590.294C523.731 589.794 521.056 586.959 510.262 588.06C503.047 588.796 498.42 590.917 493.201 593.555C489.083 595.636 489.778 595.569 486.447 597.874C480.87 601.734 476.101 606.493 471.383 611.288L465.973 616.961C459.693 623.927 453.25 630.794 446.442 637.307C428.949 654.042 411.334 664.422 384.959 665.995C371.311 666.808 357.751 662.377 347.119 658.645C341.016 656.503 344.179 657.947 332.035 663.529C313.543 672.032 294.902 672.4 277.029 663.98C276.771 661.42 279.078 658.382 280.294 656.758C285.016 650.446 294.558 647.599 303.109 647.479C318.417 647.265 327.039 649.482 339.521 653.657C343.981 655.148 343.435 654.763 346.551 652.24C350.624 648.943 353.314 645.08 356.883 641.313L372.143 624.479C374.828 621.612 377.503 617.7 381.834 618.538C383.793 618.918 384.369 619.664 385.966 620.105C385.145 616.88 382.44 615.329 381.471 613.501C379.873 610.489 381.815 606.819 379.651 604.232C376.613 600.6 370.045 597.853 363.327 599.471C359.394 600.419 352.077 604.958 348.963 607C345.869 609.03 338.101 614.394 332.954 612.244C328.703 610.47 326.262 603.683 324.86 598.456C322.965 591.389 321.877 586.802 323.683 579.02C326.337 567.591 332.875 559.052 335.679 546.934C340.241 527.215 328.637 508.807 321.153 492.148C317.226 483.409 312.613 475.019 308.037 466.575C305.451 461.803 302.771 456.924 299.92 452.497C297.376 448.548 285.724 428.257 280.045 428.364C277.428 432.223 279.444 440.598 280.136 445.009C280.517 447.432 281.8 449.635 278.979 449.611C277.24 446.95 273.117 434.241 266.288 430.657C263.086 428.976 262.5 433.435 262.356 436.417C261.912 445.59 264.446 455.335 266.504 464.028C266.973 466.008 268.771 471.194 268.133 472.72C266.415 473.233 264.437 470.503 263.158 469.476C252.423 460.855 257.995 476.353 259.507 481.214C260.668 484.95 262.391 488.472 263.63 492.129C264.384 494.357 262.808 495.04 260.845 492.791C259.213 490.921 255.384 486.71 252.443 487.088C251.065 491.086 254.571 499.387 255.918 502.508C256.873 504.72 258.119 507.068 259.186 509.13C260.039 510.777 262.654 513.964 262.073 515.604C260.343 516.169 255.1 513.007 250.762 514.194C244.397 515.935 255.379 528.754 257.266 530.848C258.512 532.231 259.367 533.348 260.545 534.458C261.694 535.541 263.228 536.553 262.402 538.357C260.275 538.314 255.615 534.127 251.713 533.366C243.449 531.754 248.856 545.01 253.758 549.94C256.305 552.502 259.257 554.991 262.584 556.697C263.814 557.328 264.329 557.363 264.623 558.691C262.109 561.823 250.944 554.876 248.418 561.023C247.635 562.928 247.76 565.471 248.688 567.004C252.145 572.707 265.991 576.442 265.934 578.231C265.296 579.781 262.204 580.646 260.682 581.368C259.169 582.084 256.077 583.063 255.462 584.827C257.536 586.452 263.387 589.004 266.155 590.004C270.392 591.535 273.845 592.443 278.543 593.508C283.89 594.721 292.367 597.468 292.359 603.718C292.347 612.95 271.545 615.316 263.301 614.378C258.661 613.849 254.082 612.561 252.574 609.261C251.461 606.826 252.387 604.733 253.397 602.874C254.576 600.703 256.778 599.558 257.231 598.618C254.752 597.265 252.768 596.796 251.449 593.904C249.481 589.589 251.431 588.275 251.582 585.094C246.957 582.781 241.264 576.981 238.21 573.264C230.619 564.026 225.274 552.748 216.771 544.352C210.791 538.445 186.357 533.367 177.195 533.253C173.856 533.212 168.028 532.859 166.906 535.611C165.858 538.181 171.34 541.082 173.019 541.935C183.098 547.061 194.878 549.68 205.815 553.197C207.357 553.692 210.11 553.923 208.795 555.87C207.588 556.35 202.365 554.863 200.603 554.509C194.741 553.331 177.529 551.694 174.613 556.441C176.251 562.505 205.045 565.746 213.089 566.604C214.722 566.778 214.772 566.7 215.422 567.583C216.061 569.481 209.304 569.737 205.714 570.781C199.482 572.594 192.256 576.285 202.543 578.666C207.761 579.873 209.747 579.394 214.048 579.782C216.406 579.995 219.278 579.978 221.713 579.634C223.574 579.372 223.958 579.279 225.119 580.051C225.025 582.459 222.327 581.812 220.057 582.054C217.877 582.287 203.658 585.969 211.063 590.826C214.973 593.391 227.328 595.109 232.965 595.039C234.752 595.017 234.904 595.027 235.551 596.22C234.832 597.985 232.836 597.538 230.877 597.725C229.979 597.81 227.005 598.654 225.79 598.951C222.922 599.653 218.159 600.854 217.067 603.115C218.365 605.456 226.109 607.395 229.871 608.011C232.321 608.412 235.531 608.557 238.091 608.776C241.829 609.095 244.888 610.111 248.187 611.863C249.693 612.664 249.671 613.071 250.669 613.881C255.417 617.735 256.351 618.745 257.364 625.157C257.766 627.698 257.608 630.781 258.856 632.681C260.886 632.933 267.293 628.826 269.118 627.593L273.682 624.342C275.407 623.253 276.914 622.155 278.657 621.235C282.528 619.191 292.074 614.018 294.17 621.657C294.899 624.314 293.982 626.069 292.986 628.059C291.22 631.585 288.699 634.127 286.52 637.193C285.412 638.751 284.258 640.084 283.164 641.637C281.937 643.379 281.391 645.134 280.546 647.111C278.939 650.875 277.589 654.376 275.545 657.679C274.313 659.671 270.096 665.791 266.422 664.089C265.533 663.008 266.206 661.383 265.346 659.869C264.042 660.508 261.25 663.732 259.431 664.971C257.657 666.181 253.852 668.317 250.944 667.003C249.427 665.402 250.546 663.152 250.222 661.101L235.676 668.503C233.727 669.352 229.405 670.867 226.716 670.511C222.206 669.912 222.023 667.433 221.749 664.089C220.976 663.561 220.734 663.531 220.111 663.046C219.807 657.248 229.64 653.407 234.253 651.784C241.957 649.073 242.563 651.148 237.606 654.232C234.554 656.13 227.251 659.422 225.862 662.178C227.582 663.137 235.423 660.493 237.202 659.838C244.444 657.17 261.267 647.923 261.506 639.991C258.088 640.282 253.035 641.705 249.484 642.432C236.048 645.183 206.139 653.197 198.562 663.465C195.907 667.063 195.163 669.417 197.335 674.096C198.933 677.541 200.441 680.369 200.7 685.139C201.509 685.263 208.442 682.511 209.907 681.996C221.297 677.99 230.365 676.998 242.607 678.275C272.347 681.378 301.646 685.325 330.597 691.66L343.271 694.566C344.553 694.906 344.549 694.857 345.045 696.11C345.805 698.029 345.32 699.392 344.003 700.364C341.684 702.077 337.314 702.415 333.86 702.812C329.752 703.285 325.113 702.833 321.373 703.229C321.899 703.975 321.787 703.751 322.799 704.234C324.436 705.016 325.866 705.798 327.155 707.086C332.467 712.392 323.363 717.816 311.006 716.878C310.995 718.549 315.3 720.347 312.976 725.129C310.214 730.814 303.426 732.49 297.377 733.142C293.07 733.605 289.918 732.825 286.006 732.612C287.31 735.37 289.655 736.815 287.15 740.661C285.918 742.552 283.254 744.445 280.635 745.245C277.688 746.145 273.674 746.017 270.653 745.301L262.461 742.352C262.418 744.217 267.054 754.247 256.056 756.63C250.779 757.773 247.065 755.587 243.392 752.785C242.244 751.909 241.31 750.401 240.091 749.991C240.19 753.518 239.291 755.611 237.188 756.951C235.469 758.047 232.276 759.205 229.494 758.843C225.198 758.285 222.894 755.764 220.504 752.868C219.709 751.905 219.161 750.72 218.037 750.303C218.268 752.164 219.608 758.268 218.839 759.618C216.894 761.525 214.806 754.098 214.341 753.056C210.974 745.51 206.125 736.224 196.579 734.824C191.609 734.095 184.211 741.08 181.701 743.436L172.387 752.12C171.737 752.75 169.644 754.712 169.393 755.121C169.999 755.758 169.569 755.433 170.522 755.808C171.035 756.01 171.448 756.103 171.88 756.247C175.249 757.366 184.128 759.666 187.16 758.511C192.462 756.491 197.898 753.7 203.512 752.365C210.861 750.619 208.461 757.07 205.293 758.927C198.457 762.932 189.024 760.448 185.791 761.321C179.012 763.151 174.871 765.093 166.986 765.022C161.509 764.972 156.92 760.852 157.102 766.642L162.733 770.775C168.505 774.671 177.051 782.283 167.324 787.751C168.344 790.926 173.062 795.831 171.471 799.453C170.69 801.231 169.488 800.777 167.335 800.958C168.168 803.739 172.822 815.113 168.739 817.426C166.599 818.639 164.801 816.74 163.467 816.352C163.376 819.16 169.151 831.825 162.833 831.271C157.88 830.838 147.588 814.169 144.597 809.903C143.156 807.849 142.154 805.974 140.77 803.837C139.621 802.064 138.169 799.408 137.177 797.25C135.211 792.977 133.154 787.693 132.57 782.06C131.968 776.258 133.332 768.935 135.79 765.281C138.736 760.902 143.384 760.16 150.206 759.892C155.705 759.676 157.415 761.241 158.952 759.979C160.888 758.39 162.851 757.171 164.809 755.632C164.265 754.4 162.411 753.508 163.282 751.119C163.457 750.64 165.318 747.768 165.765 746.988C168.185 742.763 178.918 720.623 175.691 717.954C173.982 716.54 165.895 716.835 162.742 723.575C159.904 729.641 162.513 729.5 154.939 726.396C153.058 725.626 151.135 724.907 149.136 724.372C148.871 726.48 156.66 734.946 146.12 736.324C141.768 736.892 130.15 734.977 127.779 736.532C128.629 739.005 133.709 742.041 136.176 743.668C137.593 744.602 138.766 744.698 138.369 746.581C137.124 747.121 134.087 747.112 131.481 748.083C129.419 748.851 127.369 749.923 125.661 750.969C123.286 752.423 117.507 756.737 117.668 759.776C119.35 762.348 122.792 760.418 124.687 762.21C124.32 763.981 120.944 764.612 117.851 766.845C115.618 768.458 113.153 770.48 111.529 772.211C109.453 774.424 101.611 781.964 102.71 786.41C106.285 787.269 112.964 784.035 115.501 782.757C118.073 781.461 124.611 777.228 126.894 777.31C128.165 778.992 128.376 779.293 128.084 782.116C127.591 786.87 123.303 789.457 120.143 792.219C117.921 794.161 115.998 795.797 113.78 797.826C92.2005 817.566 60.5867 826.259 31.6816 816.684C12.4037 810.299 2.53387 800.791 0 799.793V799.793ZM155.859 762.616C155.502 764.385 152.716 766.149 157.382 769.844C160.805 772.554 173.583 778.995 168.098 784.7C166.389 786.478 165.168 784.842 164.294 786.695C163.78 787.674 169.6 794.514 169.394 798.593C166.89 798.82 164.715 796.59 163.977 798.21C163.553 799.139 170.173 811.497 167.483 815.571C164.189 815.492 162.253 810.644 160.119 811.785C158.796 813.036 163.637 821.043 163.398 828.891C161.05 828.773 157.115 823.583 155.72 821.861C151.192 816.271 141.257 801.409 138.597 794.92C135.51 787.389 133.06 780.185 135.832 770.723C137.017 766.676 138.653 764.023 142.739 762.948C145.306 762.273 153.659 761.309 155.859 762.616V762.616ZM181.687 697.556C181.68 704.001 185.973 697.475 188.275 695.462C189.723 694.195 194.704 690.673 196.804 690.062C195.781 693.041 190.127 696.17 187.547 698.333C183.49 701.734 171.506 716.5 167.955 705.299C166.311 700.112 166.097 691.409 166.097 685.564C166.097 677.194 170.05 665.874 173.986 661.386C175.057 660.166 176.84 658.715 179.249 658.909C181.737 659.109 182.967 660.789 184.739 661.539C188.287 663.039 194.309 658.422 197.152 658.657C196.128 659.87 195.176 660.464 193.792 661.693C189.597 665.419 188.237 669.582 186.495 675.086C184.996 679.819 181.692 692.302 181.687 697.556V697.556ZM340.256 656.482C337.204 660.142 319.382 666.239 312.708 667.28C303.349 668.739 295.937 667.841 287.06 665.348C284.287 664.569 282.068 663.587 279.614 662.867C279.958 658.365 285.936 654.31 289.572 652.54C298.364 648.262 315.224 649.276 324.762 651.621C327.674 652.337 338.845 655.207 340.256 656.482V656.482ZM268.935 599.253L269.048 597.683C267.022 596.827 260.374 597.718 256.57 595.975C253.433 594.538 251.579 590.511 253.695 586.694L264.201 591.647C271.904 594.607 282.991 596.066 287.706 599.62C298.468 607.736 272.556 615.234 259.211 611.335C253.808 609.756 252.816 606.752 256.351 602.515C259.722 598.475 265.12 600.932 268.935 599.253V599.253ZM184.206 695.937C183.833 692.001 188.665 674.595 190.79 669.488C191.68 667.347 194.296 663.954 195.839 663.147C195.323 664.919 194.4 665.537 194.005 667.912C193.037 673.722 197.558 677.219 198.403 683.543C198.956 687.68 198.01 686.183 191.769 690.244C190.259 691.227 189.134 691.927 187.855 692.939L184.206 695.937ZM180.084 760.617C178.348 762.168 168.634 763.292 164.148 762.469C162.747 762.212 161.805 762.159 160.898 761.417C161.447 760.39 163.611 759.222 164.649 758.475C166.666 757.023 166.712 756.639 169.205 757.702C171.889 758.846 178.504 759.762 180.084 760.617V760.617ZM192.704 759.119C193.103 758.519 192.642 758.991 193.198 758.587L195.817 757.547C196.883 757.131 198 756.722 199.04 756.271C200.94 755.445 203.689 754.191 205.888 754.305C206.134 758.39 196.709 759.206 192.704 759.119Z" fill="#2A335C"/>
<path fill-rule="evenodd" clip-rule="evenodd" d="M530 591.008V587.745C531.228 588.187 536.288 592.233 537.91 593.321C546.356 598.989 554.785 603.725 564.799 607.294C587.994 615.562 610.477 614.651 633.304 605.172C645.892 599.945 656.229 591.924 665.973 583.205C672.096 577.727 678.015 574.92 678.037 567.641C676.406 567.853 665.502 574.051 662.601 575.273C658.636 576.944 646.142 581.692 648.084 572.404C649.52 565.543 660.234 555.043 666.241 550.748C667.512 549.839 669.095 549.309 669.608 547.927C657.594 544.096 674.454 531.496 682.793 528.178C683.96 527.713 686.151 527.158 687.093 526.57C686.477 525.486 686.012 525.587 684.806 524.692C682.56 523.025 679.232 520.831 677.804 518.294C674.439 512.319 685.798 513.787 689.251 514.002C720.208 515.936 696.914 504.033 702.916 500.068C706.281 498.446 714.264 503.589 717.499 504.019C718.881 500.628 719.398 498.78 721.605 496.222C725.638 491.547 736.875 489.935 739.033 493.746C742.213 499.364 733.849 516.799 731.501 521.569C729.582 525.466 727.791 529.709 725.285 533.348C723.899 535.361 724.131 536.279 726.267 537.134C727.397 536.568 731.801 532.366 732.929 531.115C734.861 528.975 737.439 527.102 739.5 524.998C742.732 521.699 749.317 515.993 753.903 513.706C761.158 510.088 767.837 513.397 772.434 517.394C775.582 520.132 778.583 524.182 780.806 528.079L783.559 532.396C783.302 530.302 782.741 528.941 783.214 527.119C785.287 526.589 786.269 528.247 787.557 529.743C790.79 533.494 793.707 539.127 799.309 540.205C803.468 541.007 808.667 538.731 809.378 535.661C810.477 530.905 805.47 525.664 807.274 524.401C809.068 523.557 810.697 526.802 811.863 528.004C813.485 529.676 814.689 531.109 816.402 532.637C819.461 535.367 823.382 538.623 829.519 537.903C840.313 536.639 837.874 523.743 831.593 518.502C830.214 517.351 830.212 517.03 831.397 515.782C833.151 515.739 836.696 520.15 843.696 522.946C849.711 525.348 861.921 527.102 865.555 519.603C869.167 512.148 849.116 508.041 852.766 504.69C854.055 504.037 855.268 505.25 856.248 505.834C860.052 508.102 864.181 509.12 868.793 509.845C891.699 513.444 906.977 497.594 885.846 492.454C881.399 491.373 877.6 492.664 876.76 490.302C877.967 487.775 883.602 489.415 886.039 489.796C892.573 490.818 900.337 492.223 906.757 490.389C909.456 489.618 912.822 488.333 913.703 485.724C912.711 483.102 909.275 481.468 906.511 480.248C904.322 479.282 899.455 477.448 897.058 477.034C895.49 476.764 892.931 476.83 891.135 476.652C887.937 476.334 876.575 476.12 875.104 473.4C876.212 470.094 886.064 472.017 888.884 472.522C891.358 472.965 893.545 473.407 895.828 474.032C901.996 475.721 931.056 475.975 933.457 470.935C932.596 469.136 926.614 468.456 924.458 467.959C921.171 467.202 917.985 466.573 914.607 465.822C907.919 464.335 901.174 463.165 894.355 461.771C866.388 456.055 837.518 453.285 808.997 450.299C795.858 448.924 778.476 454.072 768.734 458.432C761.52 461.66 766.87 463.3 756.804 470.455C751.306 474.363 748.699 477.298 743.738 481.722C740.06 485.003 733.002 490.822 727.444 485.25C723.809 481.607 723.194 472.167 722.783 465.669C721.974 452.89 724.18 436.222 732.495 426.806C740.156 418.133 745.917 426.703 749.841 426.271C752.388 425.991 756.325 424.043 758.814 423.173C760.872 422.454 763.986 421.234 766.312 421.779C768.212 422.225 766.704 422.215 768.199 423.067C781.137 415.728 786.549 413.734 801.48 409.114C803.759 408.408 834.632 400.348 838.321 400.448C843.793 400.597 837.312 410.812 833.913 414.069C824.753 422.844 808.889 432.226 795.288 432.167C793.54 432.159 792.667 431.939 793.336 434.107C795.799 442.083 816.897 428.863 821.504 426.332C822.727 425.66 825.842 423.398 827.09 424.409C828.115 425.568 827.373 426.066 826.978 427.901L826.658 431.482C827.055 433.8 826.185 430.121 826.829 432.083C827.812 435.081 835.789 428.751 836.397 428.168C837.697 426.924 838.623 425.873 839.878 424.598C841.042 423.415 842.367 421.144 843.957 421.95C844.594 422.897 844.72 427.553 845.24 429.033C852.498 427.042 856.26 409.816 862.696 400.923C863.854 399.323 864.88 398.273 866.143 396.629C868.82 393.142 874.956 386.589 872.984 381.72C869.74 373.713 846.574 391.404 843.087 393.647C831.431 401.144 831.601 398.047 829.638 384.893C829.078 381.139 829.43 382.058 827.943 379.191C826.947 377.273 821.679 372.861 819.639 372.005C811.001 368.381 808.976 369.869 800.344 368.402C796.76 367.793 776.712 363.825 783.719 357.215C785.023 355.984 786.847 355.202 788.696 354.439C790.072 353.87 793.254 353.524 794.174 352.27C792.851 351.853 790.77 351.901 789.283 351.652C787.698 351.387 786.057 351.118 784.493 350.776C769.337 347.454 770.909 338.634 777.7 336.415L779.874 335.368C776.519 333.731 764.043 335.493 760.098 330.44C757.388 326.97 760.711 324.296 763.022 322.809C766.048 320.861 769.43 320.581 772.33 319.125C771.475 318.53 757.742 316.601 755.413 316.1C748.852 314.689 738.141 312.772 733.641 307.944C731.222 305.35 733.196 302.741 735.37 301.522C740.387 298.711 751.48 299.51 752.903 298.239C747.498 297.278 737.661 293.192 733.026 290.926C730.357 289.62 726.654 287.338 725.103 285.47C722.244 282.029 723.057 278.417 726.707 276.654C736.126 272.103 763.923 279.382 772.844 282.138C780.946 284.642 783.918 286.226 789.79 292.31C798.41 301.242 804.259 314.955 812.556 324.144C815.329 327.215 823.228 335.131 827.396 336.777C828.979 336.041 831.832 333.655 834.829 332.252C836.197 331.611 836.702 331.749 837.738 330.791L835.326 329.538C834.367 329.144 833.614 328.699 832.734 328.289C831.075 327.516 829.485 326.751 827.809 325.788C824.754 324.035 821.614 321.501 820.039 318.764C818.055 315.315 818.43 310.428 820.732 307.578C824.278 303.188 829.779 306.188 832.687 305.086C832.644 305.013 832.556 304.829 832.53 304.886L828.914 301.817C823.815 297.187 814.773 285.296 819.206 278.231C821.701 274.254 825.605 275.68 829.792 276.455C829.124 274.794 826.062 271.743 824.731 269.732C823.384 267.695 821.457 264.812 820.46 262.023C819.031 258.029 819.952 254.84 822.939 253.448C826.465 251.805 830.058 253.108 833.595 253.405C833.158 251.999 831.794 249.987 831.105 248.559C828.578 243.315 819.996 226.309 825.109 221.806C828.348 218.953 832.846 223.904 834.977 224.858C833.51 218.314 830.186 212.624 829.44 205.474C829.042 201.665 829.2 197.48 833.042 197.297C837.005 197.108 839.15 200.448 841.552 201.153L837.732 183.474C836.47 177.555 835.564 170.242 835.797 163.876C836.334 149.199 845.428 154.291 851.085 161.682C851.817 162.638 854.921 167.679 855.486 168.036C855.924 163.962 854.369 159.934 855.849 155.353C859.609 143.719 874.323 165.805 876.843 169.409C887.209 184.236 899.14 206.231 907.007 222.722C909.958 228.908 913.286 235.162 915.977 241.556C926.381 266.267 934.025 280.181 922.989 307.319C915.905 324.737 909.212 331.486 913.448 350.43C914.857 356.729 917.798 367.414 923.362 368.699C928.41 369.865 938.344 362.732 942.457 360.195C948.254 356.618 953.618 352.572 962.713 352.612C969.594 352.641 979.126 357.708 979.911 363.235C980.223 365.43 979.636 367.913 980.232 369.953C981.19 373.234 988.733 378.34 986.832 384.046C984.348 384.547 981.578 381.562 978.561 380.768C975.033 379.841 973.372 382.857 971.343 384.844C964.032 392.004 946.13 413.344 942.804 416.191C941.705 417.131 937.055 420.807 936.629 422.052C946.525 425.328 956.296 429.007 967.893 430.563C1007.83 435.923 1038.49 414.806 1063.5 387.493L1068.33 382.468C1080.99 369.182 1089.54 359.212 1104.64 348.698C1107.59 346.645 1114.62 343.484 1118.21 342.162C1126.99 338.923 1144.12 338.453 1152.89 342.5L1153 344.959C1145.53 344.371 1142.39 341.042 1129.7 342.335C1121.22 343.199 1115.78 345.69 1109.65 348.788C1104.81 351.233 1105.63 351.154 1101.71 353.861C1095.16 358.394 1089.55 363.983 1084.01 369.615L1077.65 376.278C1070.27 384.459 1062.7 392.524 1054.69 400.174C1034.14 419.828 1013.43 432.019 982.434 433.866C966.394 434.822 950.458 429.618 937.962 425.235C930.789 422.719 934.506 424.415 920.235 430.971C898.501 440.957 876.593 441.39 855.586 431.5C855.283 428.494 857.995 424.926 859.423 423.019C864.973 415.605 876.188 412.261 886.239 412.121C904.229 411.869 914.362 414.473 929.032 419.377C934.274 421.128 933.633 420.675 937.295 417.712C942.082 413.839 945.243 409.303 949.438 404.879L967.372 385.108C970.528 381.741 973.672 377.146 978.761 378.13C981.064 378.576 981.741 379.453 983.618 379.97C982.653 376.183 979.474 374.361 978.336 372.215C976.457 368.677 978.739 364.366 976.196 361.328C972.625 357.063 964.906 353.836 957.011 355.737C952.388 356.85 943.789 362.181 940.13 364.579C936.493 366.963 927.363 373.263 921.314 370.738C916.318 368.654 913.449 360.684 911.802 354.544C909.575 346.244 908.295 340.857 910.419 331.717C913.538 318.294 921.222 308.266 924.517 294.033C929.879 270.874 916.241 249.254 907.445 229.689C902.83 219.425 897.408 209.571 892.03 199.654C888.99 194.049 885.841 188.319 882.49 183.12C879.5 178.482 865.806 154.651 859.132 154.776C856.055 159.309 858.425 169.145 859.239 174.326C859.686 177.171 861.194 179.759 857.878 179.73C855.835 176.605 850.99 161.679 842.963 157.469C839.2 155.495 838.511 160.733 838.341 164.234C837.82 175.008 840.798 186.453 843.217 196.663C843.768 198.988 845.882 205.079 845.132 206.871C843.112 207.474 840.787 204.268 839.285 203.061C826.668 192.937 833.217 211.138 834.993 216.847C836.358 221.235 838.383 225.372 839.839 229.667C840.725 232.283 838.873 233.085 836.566 230.444C834.648 228.248 830.148 223.303 826.691 223.746C825.072 228.442 829.192 238.191 830.776 241.857C831.898 244.454 833.362 247.212 834.617 249.634C835.618 251.568 838.692 255.312 838.009 257.237C835.976 257.901 829.814 254.187 824.715 255.581C817.235 257.625 830.142 272.682 832.359 275.141C833.824 276.765 834.829 278.077 836.213 279.38C837.564 280.653 839.366 281.842 838.396 283.959C835.896 283.91 830.419 278.992 825.833 278.098C816.121 276.205 822.476 291.774 828.237 297.564C831.23 300.573 834.7 303.496 838.61 305.5C840.055 306.241 840.661 306.282 841.006 307.842C838.052 311.52 824.93 303.361 821.961 310.581C821.041 312.818 821.187 315.805 822.279 317.605C826.341 324.303 842.614 328.69 842.547 330.791C841.797 332.612 838.164 333.628 836.374 334.475C834.597 335.316 830.963 336.465 830.24 338.537C832.677 340.446 839.553 343.444 842.807 344.618C847.786 346.415 851.845 347.482 857.366 348.733C863.65 350.158 873.614 353.384 873.604 360.725C873.59 371.567 849.142 374.346 839.453 373.244C834 372.623 828.618 371.111 826.845 367.235C825.537 364.375 826.626 361.916 827.812 359.733C829.198 357.183 831.786 355.838 832.319 354.735C829.405 353.146 827.073 352.594 825.523 349.199C823.21 344.13 825.502 342.588 825.679 338.851C820.244 336.135 813.553 329.322 809.964 324.957C801.041 314.107 794.76 300.862 784.767 291C777.739 284.064 749.021 278.099 738.254 277.966C734.329 277.917 727.479 277.503 726.162 280.735C724.93 283.754 731.373 287.16 733.346 288.163C745.191 294.183 759.036 297.258 771.89 301.389C773.702 301.971 776.938 302.242 775.393 304.528C773.975 305.092 767.836 303.346 765.765 302.93C758.875 301.547 738.646 299.624 735.219 305.199C737.144 312.321 770.985 316.128 780.439 317.135C782.359 317.339 782.417 317.248 783.181 318.284C783.933 320.514 775.991 320.815 771.772 322.042C764.447 324.171 755.955 328.506 768.044 331.302C774.177 332.72 776.512 332.157 781.567 332.612C784.338 332.863 787.714 332.842 790.575 332.439C792.762 332.131 793.213 332.022 794.577 332.928C794.467 335.756 791.296 334.996 788.629 335.281C786.066 335.555 769.355 339.879 778.058 345.583C782.654 348.596 797.174 350.613 803.799 350.531C805.899 350.505 806.078 350.517 806.838 351.918C805.994 353.992 803.648 353.467 801.345 353.686C800.29 353.786 796.795 354.777 795.367 355.126C791.996 355.95 786.398 357.36 785.114 360.017C786.64 362.765 795.742 365.043 800.162 365.767C803.042 366.238 806.815 366.408 809.824 366.665C814.217 367.04 817.812 368.233 821.689 370.29C823.46 371.231 823.433 371.709 824.607 372.661C830.187 377.187 831.284 378.374 832.475 385.904C832.947 388.888 832.762 392.509 834.228 394.741C836.615 395.037 844.144 390.213 846.289 388.765L851.653 384.946C853.681 383.668 855.451 382.379 857.5 381.298C862.05 378.897 873.268 372.821 875.732 381.793C876.589 384.913 875.511 386.975 874.34 389.312C872.265 393.453 869.302 396.439 866.741 400.04C865.44 401.87 864.082 403.436 862.797 405.259C861.355 407.305 860.713 409.367 859.721 411.689C857.832 416.109 856.245 420.22 853.842 424.1C852.394 426.439 847.439 433.627 843.12 431.629C842.075 430.358 842.867 428.45 841.856 426.672C840.323 427.423 837.042 431.209 834.904 432.665C832.819 434.085 828.347 436.595 824.929 435.051C823.147 433.171 824.461 430.528 824.081 428.119L806.985 436.812C804.695 437.81 799.616 439.59 796.455 439.171C791.154 438.467 790.939 435.556 790.618 431.629C789.709 431.008 789.424 430.973 788.692 430.404C788.335 423.594 799.891 419.083 805.313 417.176C814.367 413.993 815.079 416.429 809.254 420.051C805.666 422.281 797.083 426.147 795.452 429.385C797.472 430.511 806.688 427.406 808.779 426.636C817.29 423.502 837.062 412.642 837.343 403.326C833.325 403.668 827.386 405.339 823.214 406.193C807.422 409.424 772.271 418.836 763.366 430.896C760.245 435.122 759.371 437.886 761.923 443.381C763.802 447.428 765.575 450.749 765.879 456.351C766.829 456.497 774.978 453.265 776.7 452.659C790.086 447.954 800.743 446.789 815.131 448.29C850.085 451.934 884.519 456.569 918.544 464.01L933.44 467.423C934.946 467.823 934.942 467.764 935.525 469.237C936.418 471.49 935.848 473.09 934.3 474.233C931.575 476.244 926.438 476.641 922.38 477.108C917.551 477.663 912.099 477.132 907.703 477.598C908.322 478.473 908.19 478.21 909.379 478.778C911.303 479.696 912.984 480.614 914.499 482.127C920.742 488.359 910.042 494.729 895.519 493.627C895.506 495.59 900.565 497.702 897.835 503.318C894.589 509.995 886.611 511.964 879.502 512.729C874.439 513.274 870.735 512.357 866.137 512.107C867.67 515.346 870.426 517.043 867.482 521.56C866.034 523.781 862.903 526.005 859.825 526.944C856.362 528.001 851.644 527.85 848.093 527.01L838.465 523.547C838.415 525.737 843.863 537.516 830.938 540.315C824.735 541.658 820.371 539.091 816.054 535.799C814.705 534.771 813.607 532.999 812.174 532.518C812.291 536.66 811.234 539.119 808.763 540.692C806.742 541.979 802.989 543.339 799.72 542.914C794.671 542.259 791.963 539.298 789.154 535.897C788.22 534.766 787.576 533.374 786.254 532.884C786.526 535.07 788.1 542.239 787.197 543.824C784.911 546.064 782.457 537.341 781.911 536.118C777.953 527.255 772.255 516.349 761.035 514.704C755.195 513.849 746.499 522.052 743.549 524.82L732.602 535.018C731.839 535.758 729.379 538.062 729.084 538.543C729.796 539.291 729.291 538.909 730.411 539.35C731.014 539.587 731.5 539.697 732.007 539.865C735.967 541.18 746.402 543.881 749.965 542.524C756.196 540.152 762.586 536.873 769.184 535.306C777.821 533.255 775.001 540.832 771.276 543.012C763.242 547.716 752.157 544.8 748.356 545.825C740.39 547.973 735.523 550.255 726.256 550.171C719.819 550.113 714.424 545.274 714.639 552.074L721.257 556.928C728.041 561.503 738.084 570.444 726.652 576.866C727.851 580.595 733.396 586.356 731.527 590.609C730.609 592.697 729.196 592.164 726.665 592.377C727.644 595.644 733.114 609.002 728.316 611.719C725.8 613.143 723.687 610.912 722.12 610.457C722.013 613.755 728.8 628.63 721.374 627.979C715.553 627.47 703.458 607.893 699.942 602.883C698.249 600.47 697.07 598.268 695.444 595.759C694.094 593.677 692.387 590.557 691.221 588.022C688.911 583.003 686.493 576.797 685.806 570.182C685.099 563.368 686.702 554.766 689.591 550.475C693.053 545.332 698.516 544.461 706.534 544.146C712.997 543.892 715.006 545.731 716.813 544.248C719.089 542.383 721.396 540.951 723.697 539.143C723.057 537.696 720.878 536.649 721.902 533.842C722.107 533.28 724.295 529.907 724.821 528.99C727.665 524.029 740.278 498.026 736.486 494.891C734.478 493.231 724.973 493.577 721.267 501.493C717.932 508.618 720.999 508.451 712.096 504.807C709.886 503.902 707.626 503.058 705.276 502.429C704.965 504.905 714.12 514.848 701.732 516.466C696.617 517.134 682.963 514.884 680.176 516.71C681.175 519.615 687.145 523.18 690.045 525.091C691.71 526.189 693.089 526.301 692.622 528.512C691.16 529.147 687.59 529.137 684.528 530.277C682.103 531.179 679.695 532.438 677.687 533.666C674.895 535.374 668.103 540.441 668.293 544.01C670.269 547.031 674.315 544.764 676.543 546.868C676.111 548.949 672.143 549.69 668.508 552.313C665.883 554.206 662.987 556.581 661.077 558.615C658.638 561.213 649.422 570.07 650.713 575.291C654.914 576.299 662.765 572.501 665.745 571C668.768 569.479 676.453 564.507 679.136 564.604C680.63 566.579 680.878 566.933 680.534 570.248C679.955 575.831 674.915 578.869 671.201 582.113C668.59 584.395 666.33 586.315 663.724 588.698C638.361 611.883 601.206 622.093 567.235 610.847C544.578 603.348 532.978 592.181 530 591.008V591.008ZM713.179 547.345C712.759 549.423 709.484 551.495 714.968 555.834C718.99 559.017 734.009 566.582 727.562 573.282C725.553 575.37 724.119 573.449 723.092 575.625C722.488 576.775 729.327 584.809 729.086 589.6C726.143 589.866 723.586 587.247 722.719 589.149C722.221 590.24 730 604.755 726.84 609.539C722.968 609.447 720.693 603.753 718.184 605.093C716.629 606.562 722.32 615.966 722.039 625.184C719.279 625.045 714.655 618.95 713.015 616.927C707.693 610.362 696.017 592.907 692.89 585.285C689.262 576.441 686.383 567.98 689.64 556.867C691.034 552.114 692.956 548.998 697.759 547.736C700.776 546.942 710.592 545.811 713.179 547.345V547.345ZM743.533 470.935C743.525 478.504 748.571 470.839 751.276 468.475C752.978 466.988 758.832 462.851 761.3 462.133C760.098 465.632 753.452 469.307 750.42 471.847C745.652 475.841 731.567 493.183 727.394 480.028C725.462 473.936 725.21 463.715 725.21 456.85C725.21 447.02 729.857 433.724 734.483 428.454C735.741 427.021 737.837 425.317 740.668 425.544C743.592 425.78 745.038 427.752 747.12 428.633C751.29 430.396 758.367 424.973 761.709 425.248C760.505 426.674 759.386 427.371 757.76 428.815C752.83 433.191 751.231 438.08 749.184 444.544C747.422 450.103 743.539 464.763 743.533 470.935V470.935ZM929.896 422.695C926.309 426.993 905.363 434.154 897.519 435.376C886.52 437.09 877.808 436.035 867.376 433.107C864.117 432.193 861.509 431.039 858.625 430.193C859.029 424.906 866.055 420.143 870.329 418.065C880.661 413.04 900.477 414.231 911.686 416.985C915.109 417.826 928.238 421.197 929.896 422.695V422.695ZM846.074 355.48L846.207 353.637C843.825 352.631 836.013 353.678 831.542 351.631C827.855 349.943 825.675 345.213 828.162 340.731L840.511 346.547C849.564 350.024 862.594 351.738 868.135 355.912C880.784 365.443 850.33 374.25 834.645 369.67C828.296 367.816 827.13 364.287 831.284 359.312C835.246 354.567 841.59 357.452 846.074 355.48V355.48ZM746.493 469.033C746.055 464.41 751.734 443.967 754.232 437.969C755.278 435.455 758.352 431.47 760.166 430.522C759.559 432.603 758.475 433.329 758.01 436.118C756.872 442.942 762.186 447.049 763.179 454.477C763.829 459.336 762.717 457.577 755.382 462.347C753.607 463.501 752.286 464.324 750.783 465.512L746.493 469.033ZM741.649 544.997C739.609 546.819 728.193 548.14 722.92 547.173C721.273 546.871 720.166 546.809 719.1 545.937C719.746 544.731 722.289 543.359 723.509 542.482C725.879 540.777 725.933 540.326 728.863 541.574C732.018 542.918 739.792 543.994 741.649 544.997V544.997ZM756.481 543.238C756.95 542.533 756.408 543.088 757.062 542.614L760.14 541.392C761.392 540.904 762.705 540.423 763.928 539.893C766.161 538.923 769.392 537.451 771.976 537.585C772.265 542.382 761.189 543.341 756.481 543.238Z" fill="#2A335C"/>
</svg>
