<svg width="280" height="166" viewBox="0 0 280 166" fill="none" xmlns="http://www.w3.org/2000/svg">
<path stroke-width="1" stroke="#a1d9f8" fill-rule="evenodd" clip-rule="evenodd" d="M0 124.361V125.52C3.4484 125.488 12.9402 124.216 16.56 123.371C18.2799 122.97 20.1658 122.807 21.9754 122.471C28.9555 121.176 37.7958 120.644 45.3187 121.402C52.5393 122.13 59.4793 123.854 65.4803 126.254C72.0298 128.873 77.1008 129.659 84.0642 129.56C84.5338 129.553 85.1365 129.574 85.5866 129.496C85.9882 129.425 86.1839 129.258 86.6657 129.234C86.8708 130.138 81.147 137.165 86.6749 139.78C90.6471 141.659 97.1092 136.726 97.9697 136.556C97.6952 138.413 93.7508 141.892 95.4237 144.633C97.1574 147.473 101.648 142.532 102.732 142.454C103.036 142.432 102.935 142.447 103.09 142.515C103.632 143.982 102.625 146.509 103.195 148.408C103.639 149.885 104.944 151.203 106.936 150.948C108.55 150.741 110.13 149.488 111.008 148.648C111.883 147.813 112.569 147.248 113.36 146.26C113.676 145.865 113.624 145.665 114.196 145.601C114.067 147.204 113.519 149.055 113.433 150.774C113.338 152.661 113.258 155.006 114.04 156.352C114.799 157.658 116.465 158.371 118.261 157.482C120.252 156.496 120.817 154.682 121.346 154.428C121.751 155.663 121.619 156.958 122.633 158.99C125.246 164.226 131.246 163.664 132.545 160.214C132.638 159.967 132.64 159.838 132.73 159.615C132.744 159.58 132.759 159.538 132.775 159.504L133.048 159.092C133.713 159.518 134.193 160.883 134.569 161.427C135.232 162.388 135.696 162.943 136.356 163.589C137.528 164.736 140.46 166.264 141.596 164.071C143.691 160.026 134.392 145.726 132.337 142.326C131.242 140.513 127.018 134.01 127.431 131.545C127.618 130.431 129.599 127.128 131.234 127.945C137.075 130.862 140.735 133.22 146.105 136.77C154.318 142.2 159.078 144.052 168.371 146.124C178.285 148.335 191.228 147.415 201.394 146.019L218.79 143.622C221.133 143.244 223.55 143.159 225.88 142.773C233.391 141.53 248.006 141.142 255.576 142.361C256.757 142.551 257.848 142.689 258.988 142.857C260.006 143.006 261.167 143.326 262.303 143.508C264.305 143.828 266.664 144.554 268.579 145.126C271.848 146.104 274.246 147.022 277.233 148.33C277.912 148.627 279.435 149.43 280 149.501V148.28C279.1 148.09 277.083 147.023 276.109 146.604C265.855 142.193 253.962 140.317 242.551 140.455C240.109 140.484 234.152 140.76 231.929 141.047C230.215 141.267 228.342 141.355 226.587 141.481C225.146 141.585 223.187 142.022 221.645 142.157C218.19 142.46 214.864 143.166 211.572 143.548C208.381 143.918 204.696 144.706 201.629 144.945C200.029 145.07 198.227 145.262 196.7 145.498L191.514 145.99C187.742 146.12 184.379 146.403 180.448 146.318C173.825 146.176 166.55 144.989 161.001 143.037C149.617 139.032 145.313 134.044 135.507 128.878C134.533 128.365 133.227 127.856 132.288 127.215C131.648 126.777 132.112 127.217 131.854 126.762C132.178 126.371 132.716 126.197 133.177 125.943C133.614 125.702 134.054 125.469 134.518 125.245C135.496 124.772 136.516 124.314 137.416 123.877L143.16 121.094C145.098 121.562 144.68 128.734 149.911 122.767C151.376 121.096 153.31 118.134 154.332 115.97C154.557 115.493 154.548 115.119 155.011 114.999C155.264 115.533 155.441 117.969 155.587 118.746C156.267 122.362 156.756 126.458 158.726 129.37C160.533 132.04 164.001 124.652 164.594 123.075L165.629 119.529C166.174 119.797 166.154 120.826 166.352 121.431C166.581 122.126 166.875 122.78 167.226 123.407C167.796 124.429 168.849 125.648 170.496 125.665C172.728 125.689 175.89 124.007 176.711 121.482L176.975 120.806C177.539 121.113 177.66 121.462 178.125 121.818C179.452 122.838 180.978 123.736 182.802 123.473C184.271 123.262 184.796 122.84 185.569 121.923C186.485 120.836 185.896 120.114 185.754 118.463C187.202 118.816 192.297 124.178 196.672 121.654C198.072 120.846 198.32 120.328 198.478 118.396C198.811 118.448 202.699 119.978 204.527 120.347C207.024 120.85 210.104 120.278 210.961 118.703C211.142 117.373 202.087 111.856 201.68 111.118C202.002 110.969 204.132 111.887 204.77 112.097C207.896 113.127 213.329 114.589 216.425 113.582C217.468 113.243 218.638 112.64 219.032 111.76C219.486 110.744 217.801 109.792 217.206 109.285C216.301 108.515 215.76 108.093 214.71 107.351C213.717 106.649 212.685 106.177 211.93 105.588C212.278 105.35 212.586 105.553 213.162 105.739C216.694 106.882 220.257 107.478 224.065 107.157C226.17 106.979 230.242 104.609 229.045 102.184C228.432 100.943 227.882 101.176 227.155 100.373C227.376 100.204 227.156 100.286 227.553 100.194C227.763 100.145 227.795 100.152 228.01 100.14L230.564 99.8571C235.708 99.064 240.897 98.0117 244.832 94.5936C245.497 94.0159 248.068 91.5157 248.027 89.9839C244.475 87.2937 239.321 89.0381 234.521 88.4687C230.825 88.0302 224.167 87.6319 220.841 86.7039L214.266 85.5002C208.452 84.5885 190.885 79.1794 183.733 77.4832C178.618 76.2703 176.166 75.3336 170.378 76.35C163.553 77.5481 156.247 79.103 151.265 84.3049C150.559 85.0414 149.165 85.0226 148.044 85.0461C148.009 84.2901 149.177 82.7763 149.603 82.0072C151.555 78.4848 152.682 75.3113 152.675 70.9828C152.665 64.8182 150.19 62.4306 146.656 58.3227C142.275 53.2301 137.24 49.1932 132.804 44.2051C132.154 43.4737 131.421 42.3243 130.775 41.4961C128.737 38.8787 115.319 23.7538 113.225 21.7532C111.597 20.197 102.955 10.4335 102.173 9.42096C100.792 7.6328 99.504 5.90164 98.0736 4.19768C97.3444 3.32945 94.2706 -0.115296 92.7542 0.00300224C91.5344 0.959092 91.6054 3.25943 92.1757 4.87919C93.394 8.33903 98.6255 14.7406 99.1172 16.5465C98.3276 16.3402 97.5297 15.2679 96.86 14.7348C95.1076 13.3389 91.3804 10.3552 89.0107 10.3696C85.3874 14.26 91.0627 23.1494 92.9129 25.7866C95.4096 29.3458 103.668 35.6764 103.975 36.3742C103.244 36.2041 101.235 34.6852 100.592 34.2325C99.6807 33.5915 98.222 32.7068 97.0697 32.0637C95.9292 31.4271 89.9549 28.4372 88.916 29.2672C88.1126 30.2481 90.2208 33.9842 90.7099 34.7866C93.6417 39.5967 102.517 45.7023 102.839 46.4621C102.069 46.3673 100.08 45.1911 99.1248 44.8404C96.8266 43.9972 92.5232 42.6746 91.6155 46.131C91.2029 47.7026 91.9925 49.3491 92.6692 50.368C94.7057 53.4354 98.0619 56.3892 100.877 58.594C101.51 59.0907 103.633 60.622 103.917 61.3C99.9048 61.1429 96.5919 57.8171 92.7203 60.9536C92.6789 63.296 96.6556 65.9886 98.5101 66.9717C100.304 67.9231 105.762 70.0654 106.102 70.2627C106.482 70.4831 106.366 70.3008 106.535 70.667C105.323 72.0184 99.2195 72.1439 97.7628 76.1612C95.897 81.3052 101.558 82.2642 105.631 81.6763C105.546 82.5268 104.609 83.0888 104.196 83.5305C102.814 85.008 100.455 87.4054 100.458 89.7866C100.46 91.6197 101.979 93.1016 103.806 93.1686C106.037 93.2507 107.944 92.1302 109.552 92.0803C109.181 94.3921 106.977 97.4913 109.043 100.045C110.806 102.224 114.853 101.141 117.647 101.211C117.366 102.477 116.137 103.2 116.211 104.442C116.98 104.964 117.547 104.716 117.622 105.904C117.01 106.805 112.323 109.123 110.819 109.614C106.6 110.993 105.803 109.998 102.015 109.328L93.0517 107.667C91.1452 107.17 85.6637 106.842 83.4262 106.675C70.5446 105.711 65.5237 111.075 66.9843 112.862C69.1123 115.467 73.0539 116.434 76.2147 116.924C76.9813 117.042 80.1316 117.356 80.7685 117.755C80.444 118.269 78.9441 118.768 78.2883 119.083C71.0906 122.539 73.2172 128.221 84.9228 127.154C85.8399 127.071 87.7978 126.778 88.4581 126.8C88.3901 127.75 87.7432 128.082 86.757 128.168C83.3954 128.461 81.0784 128.666 77.6649 128.223C70.3917 127.28 68.5246 125.927 62.4975 123.976C57.3022 122.296 52.2177 121.032 46.6132 120.428C45.6277 120.322 45.0094 120.09 43.931 120.069C42.8319 120.049 41.7184 120.003 40.7068 119.924C37.7395 119.692 34.3321 119.877 31.3751 120.103C27.6685 120.387 20.8064 121.437 17.1133 122.115C11.424 123.158 5.94194 124.337 0 124.361V124.361ZM89.4359 11.7307C87.0617 15.5145 93.3862 25.0453 96.1143 27.8036C99.3228 31.0476 104.486 34.6422 106.932 37.686C107.446 38.3245 108.16 38.7734 107.854 39.6289C106.928 39.9177 104.259 38.0576 103.47 37.5132C102.116 36.5791 100.812 35.737 99.3764 34.8106C97.7919 33.7881 92.3036 30.4004 90.0602 30.5159C90.5195 35.2052 98.7509 41.5993 102.28 44.3932C103.059 45.0097 107.174 48.0489 106.343 48.8609C105.216 49.9628 95.9198 42.9279 93.2172 45.5313C91.9525 46.7497 93.0624 49.0384 93.846 50.1369C97.4244 55.1542 105.961 60.6538 106.335 61.9761C104.477 64.4212 98.0386 59.3256 94.0812 61.3442C94.0031 63.3009 98.9585 65.9361 100.523 66.6834C102.244 67.5058 108.151 69.7212 108.67 70.3507C108.353 73.0002 97.3494 72.7671 98.6805 78.6863C98.903 79.6756 99.7315 80.0335 100.709 80.3822C103.37 81.332 109.501 79.19 107.401 81.8364C107.117 82.1946 106.923 82.4495 106.593 82.7688C105.151 84.1673 102.532 86.7782 101.872 88.659C101.023 91.0774 102.583 92.2725 105.078 92.0154C107.319 91.7845 109.17 90.505 110.937 90.727C111.128 91.8318 110.162 93.7657 109.831 94.8471C107.208 103.41 116.501 98.9586 119.214 100.303C119.418 101.249 117.996 102.789 117.665 103.692C118.07 104.358 119.338 105.329 118.724 106.576C118.266 107.505 111.956 110.514 110.294 110.979C107.2 111.844 105.846 111.319 103.137 110.726C100.828 110.221 98.3962 109.703 95.9984 109.299C89.7345 108.245 79.3717 106.801 73.0099 108.578C70.8707 109.176 68.6038 110.36 67.9106 112.066C69.0511 114.151 74.1599 115.516 76.9543 115.885C77.7824 115.995 78.1418 116.206 79.0163 116.273C80.0049 116.348 82.7208 116.672 83.3536 117.123C83.4232 118.427 80.2789 119.318 78.411 120.318C76.8239 121.168 74.1225 122.681 75.9094 124.644C78.7408 127.753 89.4594 125.016 90.2615 125.771C90.3598 125.931 90.3755 125.832 90.3946 126.152C90.444 126.984 90.1176 126.486 89.7869 127.512C93.8082 127.218 99.4911 123.759 102.834 121.514C104.198 120.598 105.137 119.652 106.288 118.648C113.309 112.519 112.203 109.648 120.979 108.18C128.405 106.937 131.873 104.141 137.33 99.4435C141.114 96.1868 144.697 91.7614 147.872 87.8607C148.267 87.375 149.127 86.7007 149.146 86.0166C145.743 86.0535 146.404 87.721 144.284 89.6492C143.556 90.3108 141.423 92.7797 140.085 93.9794C137.077 96.6769 133.581 99.1801 129.725 100.833C128.511 101.353 126.857 101.87 125.351 102.172C124.386 102.365 120.885 102.696 120.2 101.991C119.732 101.041 122.494 97.9348 123.043 97.321C125.581 94.4822 131 90.8547 134.676 89.7C138.35 88.5461 139.622 87.7254 143.098 86.4062C146.542 85.0985 145.724 86.3467 147.601 83.1691C150.221 78.731 151.555 76.1047 151.555 70.3507C151.555 65.6798 149.195 62.7787 146.384 59.699C143.687 56.7438 141.236 54.1359 138.558 51.5668C136.017 49.1304 132.978 46.4529 130.788 43.3738C129.634 41.7507 128.423 40.5467 127.241 39.0255L121.621 32.6363C121.004 31.9069 120.349 31.2966 119.732 30.5728C118.447 29.065 117.119 27.818 115.892 26.3546C114.621 24.839 113.439 23.6676 112.12 22.2262C110.844 20.8315 109.604 19.4189 108.278 18.0096C105.682 15.2512 103.306 12.6172 100.82 9.50914C99.6809 8.08434 94.7685 1.44115 93.1584 1.3878C92.106 3.44748 94.4092 7.11364 95.2677 8.42247C96.9378 10.968 103.337 20.9603 105.076 23.1085L108.281 27.21C108.729 28.0623 108.049 28.5648 107.45 28.0237C106.949 27.5711 103.483 22.8627 102.007 21.2773L98.2888 17.5698C96.7099 16.0157 91.5306 11.5343 89.4359 11.7307V11.7307ZM152.309 85.0635C156.641 86.2463 159.187 88.7997 160.467 93.3278C161.146 95.7318 160.503 98.4702 159.228 99.8497C157.145 102.103 155.671 97.9153 153.95 98.0424C154.035 98.7802 155.754 99.5418 156.311 101.117C156.677 102.152 156.859 104.767 156.276 105.732C155.181 105.907 154.761 104.966 153.747 104.748L153.36 105.66C153.193 106.143 153.163 106.232 152.935 106.684C152.566 107.418 152.249 107.707 151.775 108.356C148.776 112.454 148.203 113.881 143.952 117.6C141.389 119.843 134.329 124.297 130.518 125.333C129.833 125.519 129.877 125.336 129.55 125.814C130.262 126.607 130.995 125.866 132.865 124.829C134.713 123.804 137.547 122.576 139.673 121.525C140.293 121.219 140.78 120.965 141.321 120.667C141.78 120.415 142.434 119.915 143.002 119.731C145.431 120.63 145.258 122.866 146.478 123.941C148.92 123.718 153.026 116.159 154.322 113.578C154.655 112.914 154.71 112.266 155.591 112.295C156.063 112.944 156.888 119.611 157.098 121.069C157.324 122.641 158.561 127.929 159.752 128.651C162.187 127.736 164.637 119.818 165.162 116.643C165.636 113.767 164.592 111.849 166.176 111.98C166.828 112.752 166.424 116.076 166.903 119.013C167.231 121.021 168.143 123.55 169.498 124.272C171.105 125.128 174.273 123.267 174.984 122.401C177.011 119.93 174.077 117.031 175.711 116.549C176.361 116.604 176.535 118.602 178.288 120.392C179.167 121.29 180.879 122.693 182.958 122.31C185.408 121.859 184.836 120.046 184.491 117.945C184.162 115.931 181.286 115.341 182.157 113.963C182.981 113.592 184.617 115.692 185.152 116.215C187.317 118.331 193.353 122.959 196.421 120.452C199.275 118.121 195.173 116.794 192.352 115.022L188.997 112.684C188.333 112.17 188.052 111.869 187.48 111.36C187.142 111.059 186.051 110.399 186.696 109.781C187.16 109.335 188.721 110.444 189.334 110.772C191.648 112.013 195.224 114.143 196.865 115.878C197.799 116.865 197.542 116.749 199.347 117.503C201.211 118.282 203.785 119.223 205.886 119.385C206.916 119.464 208.869 119.301 209.347 118.545C208.907 117.449 201.598 112.431 199.99 111.491C197.084 109.793 195.097 108.553 191.97 107.197C191.18 106.854 189.54 106.423 189.181 105.746L189.492 105.156C190.231 105.096 200.548 109.472 202.838 110.243C205.711 111.211 215.801 114.704 217.771 111.434C216.728 109.053 207.5 104.419 203.672 103.224C202.73 102.93 201.815 102.703 200.83 102.437C199.676 102.126 198.236 102.471 198.259 101.106C201.594 99.8979 214.216 106.392 223.281 106.096C226.232 106 230.599 102.981 226.148 101.285C221.782 99.621 220.36 100.775 215.739 100.341C214.597 100.233 213.236 100.268 212.203 100.075C210.981 99.8475 209.579 100.078 209.67 98.7731C211.152 98.0987 218.61 98.6022 220.593 98.9034C226.235 99.7607 235.257 98.5551 240.457 96.0524C242.421 95.1068 246.351 92.3996 246.633 90.4347C242.866 88.7876 237.673 90.1062 233.174 89.487C230.991 89.1867 228.788 89.1032 226.678 88.7324C224.561 88.3603 222.462 88.163 220.329 87.7894C217.734 87.3346 210.711 85.9911 208.483 85.293L185.664 79.1681C181.418 78.2512 178.382 76.8567 173.337 77.0484C169.57 77.1914 164.962 78.5045 161.345 79.5105C158.122 80.4069 155.753 82.1168 153.22 84.0352C152.766 84.3787 152.449 84.5021 152.309 85.0635ZM100.181 134.083C100.94 134.753 100.602 134.969 99.6419 136.333C98.7574 137.589 94.9839 143.229 96.5801 144.256C98.7596 144.713 101.61 140.644 103.781 141.03C104.831 142.723 104.018 145.2 104.144 147.298C104.283 149.612 106.086 150.44 108.084 149.375C110.368 148.157 112.654 145.439 114.302 143.408C114.694 142.925 114.731 142.723 115.427 142.955C115.447 142.997 115.468 143.015 115.474 143.087C115.48 143.161 115.509 143.186 115.516 143.222C115.681 144.113 115.433 145.475 115.253 146.31C115.019 147.4 114.844 148.352 114.751 149.515C114.605 151.368 113.945 154.473 115.179 156.002C117.272 158.596 120.258 154.364 121.099 152.104C121.413 151.26 121.512 149.73 121.986 149.204C123.389 149.262 122.5 150.783 122.488 152.199C122.372 165.341 133.727 163.268 131.799 155.991L131.01 153.574C130.964 153.33 130.94 153.435 130.979 153.169C131.067 152.573 130.927 152.975 131.203 152.703C132.277 151.823 132.722 155.695 134.227 158.595C135.25 160.566 136.795 163 138.561 163.757C144.336 166.231 137.026 152.475 136.642 151.762C133.876 146.628 127.818 138.006 126.557 133.558C125.355 129.318 128.981 127.959 129.038 126.92L127.69 126.451C124.292 129.461 125.78 130.703 124.9 133.003C124.166 134.919 122.198 136.714 119.733 137.142C118.383 137.376 116.994 136.569 117.278 135.184C117.392 134.628 117.908 134.195 118.243 133.763C119.043 132.73 120.472 130.089 120.237 128.685C120.069 127.678 118.367 126.964 117.404 126.757C115.949 128.292 117.052 132.109 115.691 133.707C113.485 133.829 111.706 128.915 111.166 127.303C110.804 126.221 110.154 124.127 110.262 122.807C110.41 120.997 111.732 120.269 113.401 121.112C117.156 123.009 121.08 123.036 126.258 124.678C128.39 125.354 128.513 124.798 130.569 124.131C137.403 121.913 145.388 115.938 149.243 109.931C150.351 108.204 151.858 106.902 152.434 104.905C152.63 104.227 152.456 103.032 152.809 102.428C154.151 101.836 153.207 103.828 155.382 104.04C155.773 98.9645 152.497 100.213 152.665 98.015C152.766 96.7058 154.526 96.6769 155.495 97.356C156.226 97.8687 157.052 99.1164 158.014 99.306C159.202 98.6236 159.717 96.7041 159.61 94.9936C159.523 93.6023 158.753 91.6229 158.185 90.5702C156.97 88.3194 154.124 86.3392 151.061 86.0293C146.785 89.7219 141.113 100.402 128.978 106.899C123.905 109.615 119.686 108.763 115.68 110.976C114.034 111.885 112.468 113.924 111.294 115.279C108.781 118.181 105.612 120.95 102.156 123.36C98.5767 125.857 94.7594 127.466 90.2611 128.676C88.2763 129.209 88.6906 128.587 87.6289 130.325C86.6603 131.911 85.0767 134.644 85.454 136.709C85.6548 137.808 86.6384 138.724 87.7115 138.95C92.1254 139.878 98.5458 134.215 100.181 134.083V134.083ZM121.753 101.212C127.986 101.349 133.438 98.2078 137.935 94.3588L142.609 89.867C143.206 89.2297 144.435 88.0238 144.679 87.1516C143.608 87.2121 139.083 89.293 137.972 89.8035C135.835 90.786 133.444 91.1047 131.395 92.3966C129.305 93.7149 127.618 94.6122 125.941 96.1125C125.05 96.9102 121.882 99.8398 121.753 101.212V101.212ZM115.034 132.053C115.166 131.821 115.07 132.171 115.175 131.647C115.406 130.506 115.063 129.942 115.915 127.182C116.24 126.129 115.859 124.362 119.724 126.489C124.191 128.947 118.505 134.558 118.473 135.798C120.899 136.486 123.45 134.172 123.885 132.425C124.185 131.219 124.036 129.81 124.532 128.692C125.4 126.736 126.267 126.721 126.233 125.814C125.617 125.516 123.533 125.017 122.656 124.809C120.488 124.295 116.871 123.817 115.115 123.171C114.326 122.88 112.749 121.804 111.777 121.93C110.609 124.094 112.851 128.841 114.084 131.021C114.697 132.105 114.611 131.898 115.034 132.053" fill="#A1D9F8"/>
</svg>
