<svg width="1633" height="822" viewBox="0 0 1633 822" fill="none" xmlns="http://www.w3.org/2000/svg">
<path fill-rule="evenodd" clip-rule="evenodd" d="M174.242 998.072C227.996 952.614 281.75 907.154 335.503 861.695C314.166 758.749 402.992 707.473 414.813 649.659C427.692 667.535 430.771 694.444 447.983 713.882C431.399 681.77 438.368 626.417 424.354 625.866C466.789 620.187 479.31 711.039 502.69 729.735C494.577 681.919 472.565 645.85 504.41 607.652C504.674 602.371 508.405 598.078 515.5 594.746C515.622 582.084 516.283 569.563 522.652 558.542C522.558 569.227 518.76 581.68 518.664 592.365C523.304 591.01 531.204 585.898 536.285 586.533C537.683 584.6 539.035 579.659 540.242 570.843C534.188 563.296 528.131 555.748 522.078 548.201C535.048 560.291 547.656 572.279 546.82 580.433C549.742 602.588 554.04 620.705 560.015 633.905C558.05 611.079 559.471 588.777 566.842 567.396C561.804 560.376 542.1 559.063 528.836 533.952C541.717 548.629 555.998 556.332 572.299 553.955C568.519 536.354 569.614 529.182 570.589 521.757C570.184 537.288 577.98 557.163 592.53 580.615C590.805 558.575 591.241 537.942 597.739 521.253C591.186 514.12 588.051 505.234 586.072 495.75C589.976 503.691 593.669 512.678 598.762 514.688C600.057 510.297 602.149 507.504 605.093 506.424C600.161 499.947 595.228 493.469 590.296 486.992C612.737 511.855 638.01 519.532 640.632 549.235C644.769 526.318 649.845 503.7 658.628 482.271C661.931 477.661 662.015 471.89 661.298 466.213C654.826 463.665 649.885 460.454 646.85 456.416C652.157 457.965 656.591 462.286 661.899 463.836C663.469 459.77 663.964 451.78 661.677 445.432C679.488 480.101 701.723 485.631 702.73 498.173C705.467 538.357 712.682 577.111 720.409 615.699C727.129 584.904 744.466 503.126 778.805 466.415C783.805 451.819 790.903 438.108 799.068 424.844C793.608 436.337 787.776 447.951 785.958 458.278C793.791 453.455 802.1 443.101 810.361 433.315C816.017 418.562 814.362 404.11 808.556 389.842C817.729 402.752 822.049 415.723 827.683 428.273C839.835 455.358 828.465 510.452 819.577 551.211C837.058 490.378 867.297 438.941 888.482 388.427C890.24 380.515 889.172 369.431 887.691 357.884C895.523 381.107 898.346 405.931 900.522 430.964C904.652 406.708 902.227 378.842 895.679 348.7C900.283 357.626 904.198 370.31 907.296 387.473C904.435 364.087 902.228 341.291 904.468 322.497C914.462 372.055 941.866 398.403 934.448 471.17C966.532 397.824 974.395 350.061 978.809 307.278C981.381 330.195 982.386 354.13 980.245 380.106C993.625 347.205 1003.63 305.46 1013.78 264.118C1012.82 272.385 1010.48 282.495 1012.23 290.629C1033.5 389.73 1004.57 403.237 987.821 488.002C1022.24 455.68 1054.18 334.332 1091.22 254.925C1094.87 241.932 1095.28 229.976 1098.93 216.983C1102.09 219.517 1101.3 263.439 1105.94 308.296C1108.58 318.344 1070.82 409.977 1053.26 460.818C1081.71 432.736 1098.17 371.563 1116.2 314.758C1128.64 278.554 1144.48 246.125 1165.23 219.15C1170.95 216.468 1176.23 213.059 1179.49 206.399C1181.35 192.341 1183.99 182.298 1188.72 182.784C1215.71 253.901 1166.82 352.237 1136.54 426.311C1166.61 392.841 1184.64 357.693 1199.62 325.481C1226.95 266.575 1251.17 240.858 1274.98 219.496C1289.71 212.997 1297.2 215.75 1301.38 222.741C1260.83 283.891 1239.87 337.883 1207.95 391.814C1249.01 354.57 1280.29 251.134 1309.46 224.831C1320.74 218.327 1347.26 240.907 1351.01 247.397C1340.01 280.463 1324.6 313.478 1304.64 346.439C1327.32 319.69 1359.23 253.43 1368.15 258.283C1382.87 264.473 1393.87 276.825 1402.37 293.328C1402.42 301.187 1410.41 302.74 1411.58 308.702C1416.61 334.301 1427.75 337.87 1441.21 353.793C1436.92 365.388 1435.9 371.897 1452.04 380.343C1459.13 384.051 1458.99 394.751 1462.47 401.956C1402.27 424.265 1374.06 412.836 1331.97 416.048C1410.13 440.33 1455.43 417.457 1466.29 424.901C1452.24 430.569 1438.18 436.237 1424.13 441.905C1433.63 440.294 1443.13 438.683 1452.62 437.072C1449.76 450.601 1434.49 446.255 1425.42 450.846C1429.72 454.829 1447.05 450.051 1447.85 459.265C1448.98 472.414 1473.27 478.782 1473.35 489.692C1378.67 496.257 1284.31 477.838 1190.17 441.165C1259.63 467.394 1347.2 529.616 1465.89 522.487C1470.58 527.335 1472.11 538.3 1471.73 552.972C1465.39 564.391 1460.33 574.923 1461.27 581.269C1366.02 624.68 1198.02 582.182 1123.62 522.643C1210.91 640.289 1292.72 719.327 1423.53 667.027C1413.11 689.334 1402.68 711.644 1392.26 733.952C1333.02 782.946 1268.12 805.774 1195.84 794.482C1132.11 815.442 1068.1 832.745 1002.75 832.338C851.097 845.395 771.71 829.595 738.173 795.486C743.632 817.544 760.317 834.851 785.942 848.377C815.855 859.961 852.582 862.423 887.938 866.717C855.27 865.058 831.81 866.963 765.875 852.428C724.07 870.231 691.178 862.074 666.615 829.655C639.718 791.71 612.829 753.652 585.043 736.003C627.008 787.803 607.559 873.297 689.658 901.725C675.224 905.257 658.331 901.259 639.057 890.65C630.109 891.236 620.85 890.294 607.739 884.693C613.364 890.453 618.99 896.214 624.616 901.975C597.331 914.538 578.048 901.999 560.018 885.532C548.147 896.07 540.909 915.765 536.477 941.013C466.231 961.256 408.275 951.331 374.025 883.2C323.193 917.342 272.361 951.486 221.528 985.629C208.545 992.362 195.562 999.095 182.579 1005.83C177.153 1005.83 174.454 1003.16 174.243 998.071L174.242 998.072ZM514.395 599.669C511.659 611.147 508.923 622.626 506.187 634.103C505.819 614.564 502.219 614.49 514.395 599.669ZM523.664 596.995C527.008 594.607 530.351 592.217 533.695 589.828C530.221 595.261 529.01 601.858 528.815 608.978C526.358 607 524.657 602.96 523.664 596.995ZM555.957 555.607C559.607 555.855 568.219 557.398 571.867 557.646C572.294 560.984 571.091 563.24 568.511 564.583C565.98 562.023 558.488 558.168 555.957 555.607ZM576.389 558.233C574.879 562.381 573.408 568.733 571.898 572.88C573.958 575.348 576.019 577.815 578.079 580.283C579.341 572.202 579.36 562.891 576.389 558.233V558.233ZM581.285 566.698C584.277 573.895 588.006 585.884 586.329 588.664C584.721 586.541 582.487 581.071 580.879 578.947C581.537 575.804 581.575 571.421 581.285 566.698ZM599.514 523.44C602.741 528.303 606.317 531.621 610.08 533.542C608.456 550.397 603.949 563.664 599.461 576.956C596.087 557.571 594.102 538.82 599.514 523.44V523.44ZM601.353 517.72C602.159 513.131 604.459 509.965 607.256 508.961C608.023 510.665 609.867 511.77 611.442 513.025C609.652 515.438 609.508 520.747 609.514 526.133C606.302 524.722 603.217 521.254 601.353 517.72ZM626.339 542.44C621.714 537.765 616.909 530.739 612.058 527.339C611.815 522.325 611.891 517.733 613.405 515.036C624.537 522.507 627.973 532.573 626.339 542.44V542.44ZM655.521 570.591C652.716 556.05 649.931 531.859 651.247 524.311C653.429 504.271 656.83 501.576 659.276 489.652C655.376 511.634 654.199 538.755 655.521 570.591V570.591ZM678.201 541.493C679.932 519.562 681.386 498.123 678.159 484.927C672.849 482.82 668.152 477.777 664.36 468.384C666.131 476.26 666.733 484.396 665.465 492.948C667.764 513.518 673.09 527.262 678.201 541.493V541.493ZM693.824 514.652C695.891 509.118 695.905 501.891 694.356 493.375C688.38 484.889 682.933 479.539 677.621 474.987C680.667 480.998 682.929 488.369 685.976 494.381C691.863 505.005 691.47 507.442 693.824 514.652ZM665.773 465.001C668.209 468.519 671.085 470.168 674.274 470.488C669.883 465.141 666.906 460.233 665.798 455.905C665.79 458.937 665.78 461.969 665.773 465.001ZM810.755 436.501C800.114 461.223 788.246 482.885 775.914 503.385C778.896 491.432 781.933 479.463 783.347 468.013C796.687 455.916 803.357 446.347 810.755 436.501ZM890.213 396.8C881.88 439.237 869.837 482.158 856.749 525.217C870.159 489.391 890.887 441.126 890.213 396.8ZM1103.93 437.14C1149.77 365.215 1158.61 316.739 1180.84 221.509C1173.08 240.284 1162.76 258.2 1157.56 277.835C1143.29 331.692 1125.77 384.916 1103.93 437.14ZM1073.54 478.253C1146.64 495.458 1208.93 552.688 1304.47 580.104C1193.66 567.021 1169.51 539.386 1073.54 478.253ZM1053.11 501.383C1091.72 519.998 1091.91 517.996 1119.94 550.389C1097.67 534.053 1075.39 517.719 1053.11 501.383ZM1040.7 553.784C1102.74 577.389 1109.85 702.194 1241.94 727.014C1107.5 715.954 1108.45 623.733 1040.7 553.784ZM968.917 532.817C1037.32 563.115 1029.46 554.007 1072.77 614.809C1045.55 587.929 1010.59 560.578 968.917 532.817ZM936.619 553.917C967.713 574.902 1006.59 587.491 1029.9 616.874C1068.95 666.095 1108.63 714.094 1160.71 748.08C1128.02 737.348 1085.67 728.888 1053.18 689.684C1017.95 647.162 1003.12 598.8 936.619 553.917V553.917ZM1008.21 730.086C1048.64 763.123 1045.77 764.874 1096.27 778.125C1066.92 762.111 1037.56 746.1 1008.21 730.086ZM858.406 571.777C942.509 618.449 929.24 603.41 970.729 690.07C926.004 654.71 896.652 610.609 858.406 571.777ZM833.911 584.998C864.376 598.661 860.536 597.742 880.997 624.182C866.295 606.9 850.616 593.775 833.911 584.998ZM842.162 627.645C867.955 670.273 894.986 706.728 923.814 734.231C873.429 695.138 871.574 685.366 842.162 627.645ZM786.861 607.682C829.189 631.28 822.447 632.814 845.069 676.037C828.822 649.944 809.591 626.981 786.861 607.682ZM770.361 619.239C800.883 630.339 794.342 626.73 810.186 655.367C797.088 638.871 783.807 626.975 770.361 619.239ZM716.858 649.817C769.845 679.006 762.103 672.921 792.957 725.001C771.64 695.525 746.345 670.388 716.858 649.817ZM665.437 686.902C692.632 702.463 689.292 700.788 706.155 727.226C694.013 711.015 680.496 697.465 665.437 686.902ZM646.501 720.315C658.993 733.655 675.449 743.691 688.236 768.11C704.181 798.558 726.644 814.232 747.976 841.183C729.179 824.033 710.78 823.214 691.584 789.734C672.387 756.253 661.529 743.454 646.501 720.315ZM683.844 803.42C699.656 819.011 714.452 833.814 729.346 850.285C700.72 830.632 700.592 833.78 683.844 803.42ZM625.563 848.53C633.838 866.243 644.843 879.853 658.433 889.574C630.828 874.112 636.55 878.466 625.563 848.53ZM323.09 891.938C346.675 879.816 370.261 867.693 393.845 855.571C589.317 690.288 836.481 568.487 1243.08 383.232C1227.21 384.266 510.754 680.226 323.09 891.938V891.938Z" stroke="white" stroke-width="3" stroke-miterlimit="22.9256"/>
<path fill-rule="evenodd" clip-rule="evenodd" d="M139.145 974.311C195.902 945.122 252.659 915.932 309.415 886.742C311.569 791.454 400.493 764.281 422.73 715.623C430.46 734.041 427.69 758.439 438.928 779.12C430.83 747.371 448.278 699.898 436.012 696.552C474.655 700.192 467.18 783 484.019 804.284C486.608 760.392 474.522 724.04 510.444 696.795C511.755 692.184 515.926 689.153 522.873 687.657C525.564 676.497 528.703 665.572 536.577 657.135C534.314 666.555 528.418 676.78 526.154 686.2C530.529 685.949 538.55 683.045 542.909 684.643C544.538 683.22 546.741 679.132 549.605 671.59C545.797 663.688 541.987 655.786 538.179 647.884C547.17 661.21 555.861 674.371 553.459 681.403C551.521 701.57 551.621 718.45 554.206 731.329C557.127 710.765 562.932 691.355 573.806 673.972C570.787 666.743 553.649 661.563 547.056 636.676C555.44 652.269 566.484 661.986 581.368 663.212C581.619 646.894 584.05 640.782 586.426 634.422C582.9 648.058 585.732 667.205 593.8 690.89C596.772 671.069 601.366 652.932 610.511 639.516C606.178 631.878 605.222 623.389 605.409 614.608C607.237 622.418 608.665 631.11 612.754 633.925C614.794 630.31 617.212 628.27 620.033 627.917C616.997 621.189 613.962 614.46 610.926 607.733C625.677 634.274 646.436 646.211 642.692 672.983C651.021 653.584 660.12 634.64 672.25 617.503C676.108 614.105 677.36 609.024 677.884 603.863C672.687 600.292 668.978 596.447 667.12 592.261C671.492 594.712 674.527 599.433 678.9 601.885C681.117 598.614 683.184 591.657 682.458 585.583C691.119 619.842 709.632 629.262 707.963 640.547C702.182 676.601 700.649 712.306 699.603 747.969C711.821 722.137 743.819 653.437 781.641 628.014C789.036 616.141 798.103 605.477 808.022 595.426C800.854 604.465 793.332 613.534 789.62 622.285C797.523 619.623 806.975 612.172 816.269 605.213C824.274 593.335 825.761 580.231 823.544 566.443C829.012 579.719 830.182 592.058 832.598 604.293C837.807 630.697 816.524 677.044 800.358 711.235C828.21 661.065 865.415 621.797 894.434 581.499C897.601 574.869 898.919 564.86 899.965 554.358C902.147 576.469 899.576 598.973 896.391 621.53C904.987 600.946 908.53 575.836 908.896 547.875C911.142 556.699 912.012 568.702 911.247 584.494C913.491 563.253 916.192 542.666 922.005 526.522C920.723 572.337 939.554 601.201 918.157 663.967C961.461 605.722 978.151 565.136 990.778 528.244C988.374 549.012 984.379 570.36 977.189 592.869C995.72 566.536 1013.07 531.701 1030.47 497.254C1027.94 504.361 1023.81 512.814 1023.69 520.355C1022.26 612.234 993.957 618.264 961.87 689.724C998.869 668.195 1051.83 567.518 1100.75 504.931C1106.63 494.198 1109.43 483.721 1115.3 472.988C1117.58 475.871 1107.92 514.508 1102.87 555.079C1103.15 564.493 1051.1 637.734 1025.22 679.062C1056.08 660.059 1083.1 609.379 1110.62 562.881C1128.99 533.439 1149.6 508.023 1173.43 488.428C1179.03 487.227 1184.39 485.292 1188.63 480.074C1193.14 468.035 1197.52 459.704 1201.59 461.097C1210.93 529.424 1147.68 606.314 1105.83 665.569C1139.21 642.137 1162.31 614.77 1182.11 589.37C1218.28 542.913 1244.92 525.136 1270.3 511.124C1284.65 508.389 1290.7 512.349 1292.96 519.375C1244.67 565.121 1215.14 608.537 1175.94 649.665C1219.81 625.143 1268.54 540.155 1299.67 522.871C1310.97 519.427 1329.79 544.784 1331.77 551.281C1315.31 578.246 1294.96 604.264 1270.61 629.31C1296.1 610.308 1337.81 558.288 1344.69 564.393C1356.43 572.864 1363.63 586.02 1367.77 602.332C1366.22 609.284 1372.95 612.286 1372.77 617.791C1371.99 641.43 1381.11 646.856 1389.75 663.667C1383.59 673.033 1381.36 678.575 1393.9 689.329C1399.4 694.051 1397.1 703.474 1398.7 710.547C1340.97 717.973 1318.39 702.122 1280.55 696.373C1344.64 733.767 1389.32 722.804 1397.39 731.595C1383.82 733.735 1370.25 735.875 1356.68 738.014C1365.4 738.529 1374.12 739.044 1382.84 739.558C1377.55 750.925 1364.95 743.971 1356 746.176C1358.99 750.571 1375.27 749.887 1374.09 758.187C1372.41 770.034 1392.57 780.614 1390.41 790.268C1305.44 776.752 1225.84 741.231 1150.17 689.631C1206.17 726.971 1270.83 799.798 1377.13 817.715C1380.28 822.954 1379.4 832.953 1376.07 845.836C1368.14 854.629 1361.52 862.899 1361.06 868.698C1268.06 887.611 1128.33 815.798 1074.76 748.027C1127.87 869.758 1184.01 956.264 1310.23 936.752C1296.47 954.33 1282.71 971.91 1268.95 989.489C1206.62 1020.68 1144.64 1027.61 1083.1 1002.89C1022.53 1008.4 962.453 1010.63 904.809 996.935C768.184 977.529 701.282 947.377 678.616 910.406C678.939 931.004 690.147 949.696 710.022 966.872C734.082 983.207 766.023 992.874 796.378 1003.88C767.86 995.75 746.748 992.647 691.47 966.356C650.91 973.554 623.52 959.638 608.435 925.99C592.418 886.985 576.429 847.881 555.485 826.622C581.988 880.941 547.366 952.493 614.088 994.353C600.617 994.529 586.511 987.551 571.649 974.247C563.626 972.94 555.639 970.219 545.2 962.596C548.994 968.832 552.788 975.068 556.582 981.305C529.918 986.836 515.443 971.826 502.875 953.601C490.239 960.488 479.827 976.409 470.761 997.808C404.581 1001.36 355.411 980.768 339.056 913.597C287.189 933.387 235.321 953.177 183.453 972.967C170.611 976.266 157.769 979.565 144.927 982.864C140.135 981.754 138.294 978.852 139.146 974.311L139.145 974.311ZM520.893 691.78C516.134 701.361 511.376 710.943 506.618 720.523C510.279 703.188 507.114 702.388 520.893 691.78ZM529.626 691.309C533.067 689.882 536.508 688.453 539.949 687.024C535.772 691.115 533.356 696.695 531.731 702.945C529.964 700.697 529.286 696.781 529.626 691.309ZM566.595 661.338C569.769 662.302 577.061 665.421 580.233 666.385C579.929 669.42 578.406 671.168 575.853 671.828C574.14 669.05 568.308 664.116 566.595 661.338ZM584.108 667.826C581.928 671.182 579.332 676.493 577.152 679.848C578.469 682.448 579.786 685.048 581.102 687.647C583.866 680.767 585.782 672.546 584.108 667.826ZM586.705 676.302C587.88 683.27 588.728 694.621 586.68 696.735C585.693 694.531 584.835 689.243 583.848 687.039C585.071 684.397 585.999 680.533 586.705 676.302ZM611.633 641.809C613.492 646.763 615.973 650.424 618.906 652.888C614.032 667.445 607.345 678.245 600.669 689.071C601.643 671.26 603.715 654.291 611.633 641.809ZM614.425 637.132C616.072 633.243 618.751 630.915 621.426 630.599C621.756 632.261 623.159 633.613 624.294 635.043C622.221 636.809 621.01 641.47 619.917 646.228C617.368 644.327 615.35 640.634 614.425 637.132ZM631.452 664.066C628.321 658.992 625.51 651.805 621.918 647.813C622.727 643.334 623.73 639.293 625.618 637.219C633.927 646.09 634.909 655.682 631.452 664.066ZM651.487 694.886C651.976 681.469 654.451 659.531 657.153 653.133C663.169 635.875 666.723 634.189 671.317 624.155C663.387 642.777 656.814 666.494 651.487 694.886ZM677.457 673.809C683.461 654.79 689.119 636.148 688.96 623.834C684.7 620.889 681.579 615.476 680.146 606.406C680.103 613.724 678.976 621.034 676.111 628.329C673.945 646.969 675.846 660.196 677.457 673.809ZM696.734 653.287C699.689 648.819 701.175 642.438 701.545 634.6C697.996 625.885 694.277 620.048 690.513 614.943C691.977 620.875 692.471 627.847 693.937 633.78C696.969 644.364 696.125 646.437 696.734 653.287ZM682.084 603.705C683.518 607.31 685.722 609.353 688.475 610.286C685.686 604.668 684.058 599.725 683.962 595.675C683.336 598.352 682.709 601.028 682.084 603.705ZM815.967 608.108C801.524 627.774 786.621 644.488 771.545 660.081C776.618 650.131 781.742 640.177 785.327 630.352C799.579 622.387 807.423 615.295 815.967 608.108ZM894.254 589.248C878.237 625.034 858.842 660.492 838.496 695.857C857.651 666.946 885.807 628.541 894.254 589.248ZM1074.81 668.482C1129.97 614.299 1147.67 573.282 1186.74 493.697C1176.05 508.698 1163.28 522.419 1154.68 538.703C1131.09 583.366 1104.75 626.806 1074.81 668.482ZM1039.58 698.6C1100.64 728.71 1143.98 791.97 1222.79 835.68C1127.58 801.517 1111.88 772.18 1039.58 698.6ZM1016.81 714.863C1047.12 739.183 1047.7 737.454 1065.85 771.786C1049.51 752.811 1033.16 733.838 1016.81 714.863ZM995.155 758.618C1045.15 792.127 1025.96 903.822 1137.58 952.694C1021.08 915.497 1040.74 834.23 995.155 758.618ZM936.028 725.454C990.267 766.171 985.185 756.522 1011.04 819.068C992.478 789.77 967.175 758.477 936.028 725.454ZM903.194 737.503C926.379 762.383 958.155 781.436 972.75 812.146C997.197 863.59 1022.46 914.085 1061.53 954.732C1034.85 938.583 999.157 922.468 978.461 881.211C956.012 836.462 952.783 790.717 903.194 737.503ZM930.489 907.724C959.469 945.156 956.57 946.117 998.479 968.125C975.817 947.991 953.153 927.858 930.489 907.724ZM830.462 737.324C895.231 795.708 886.578 779.717 905.547 864.731C873.254 824.372 856.324 779.428 830.462 737.324ZM806.127 744.005C830.25 762.289 827.046 760.693 839.725 788.223C830.265 769.959 819.092 755.166 806.127 744.005ZM804.715 783.359C818.802 826.277 835.243 863.994 855.097 894.169C818.565 849.358 818.92 840.347 804.715 783.359ZM759.938 754.444C792.514 783.924 786.245 783.904 797.41 826.699C788.382 800.336 776.079 776.129 759.938 754.444ZM743.005 761.287C767.702 777.318 762.661 772.796 770.813 801.324C762.609 784.081 753.304 770.863 743.005 761.287ZM689.506 777.382C730.356 813.976 724.759 807.021 741.389 859.32C728.572 828.934 711.356 801.569 689.506 777.382ZM636.518 799.65C657.366 818.944 654.757 816.783 664.259 843.577C656.841 826.78 647.665 812.054 636.518 799.65ZM612.974 825.302C621.288 839.634 633.777 851.857 640.09 876.036C647.963 906.184 664.608 924.613 677.953 952.771C664.848 933.787 648.763 929.31 638.636 895.82C628.509 862.329 621.528 848.808 612.974 825.302ZM629.006 906.331C639.794 923.328 649.844 939.423 659.64 957.011C638.363 933.81 637.608 936.565 629.006 906.331ZM568.322 934.288C572.018 951.623 578.963 965.891 588.984 977.25C567.754 957.96 571.92 962.974 568.322 934.288ZM292.28 910.925C315.587 905.029 338.894 899.132 362.2 893.236C568.587 787.112 811.766 729.944 1208.72 649.251C1194.5 646.927 501.243 762.196 292.28 910.925Z" fill="url(#paint0_linear_129_21290)" stroke="white" stroke-width="2" stroke-miterlimit="22.9256"/>
<defs>
<linearGradient id="paint0_linear_129_21290" x1="141.334" y1="987.213" x2="1395.22" y2="686.493" gradientUnits="userSpaceOnUse">
<stop offset="0.208333" stop-color="white" stop-opacity="0"/>
<stop offset="1" stop-color="white"/>
</linearGradient>
</defs>
</svg>
