<svg id="eNe8AczFIVi1" xmlns="http://www.w3.org/2000/svg" xmlns:xlink="http://www.w3.org/1999/xlink" viewBox="0 0 1633 822" shape-rendering="geometricPrecision" text-rendering="geometricPrecision"><defs><linearGradient id="eNe8AczFIVi3-fill" x1="141.334" y1="987.213" x2="1395.22" y2="686.493" spreadMethod="pad" gradientUnits="userSpaceOnUse" gradientTransform="translate(0 0)"><stop id="eNe8AczFIVi3-fill-0" offset="20.8333%" stop-color="rgba(255,255,255,0)"/><stop id="eNe8AczFIVi3-fill-1" offset="100%" stop-color="#fff"/></linearGradient></defs><path id="eNe8AczFIVi2" d="M174.242,998.072c53.754-45.458,107.508-90.918,161.261-136.377-21.337-102.946,67.489-154.222,79.31-212.036c12.879,17.876,15.958,44.785,33.17,64.223-16.584-32.112-9.615-87.465-23.629-88.016c42.435-5.679,54.956,85.173,78.336,103.869-8.113-47.816-30.125-83.885,1.72-122.083.264-5.281,3.995-9.574,11.09-12.906.122-12.662.783-25.183,7.152-36.204-.094,10.685-3.892,23.138-3.988,33.823c4.64-1.355,12.54-6.467,17.621-5.832c1.398-1.933,2.75-6.874,3.957-15.69-6.054-7.547-12.111-15.095-18.164-22.642c12.97,12.09,25.578,24.078,24.742,32.232c2.922,22.155,7.22,40.272,13.195,53.472-1.965-22.826-.544-45.128,6.827-66.509-5.038-7.02-24.742-8.333-38.006-33.444c12.881,14.677,27.162,22.38,43.463,20.003-3.78-17.601-2.685-24.773-1.71-32.198-.405,15.531,7.391,35.406,21.941,58.858-1.725-22.04-1.289-42.673,5.209-59.362-6.553-7.133-9.688-16.019-11.667-25.503c3.904,7.941,7.597,16.928,12.69,18.938c1.295-4.391,3.387-7.184,6.331-8.264-4.932-6.477-9.865-12.955-14.797-19.432c22.441,24.863,47.714,32.54,50.336,62.243c4.137-22.917,9.213-45.535,17.996-66.964c3.303-4.61,3.387-10.381,2.67-16.058-6.472-2.548-11.413-5.759-14.448-9.797c5.307,1.549,9.741,5.87,15.049,7.42c1.57-4.066,2.065-12.056-.222-18.404c17.811,34.669,40.046,40.199,41.053,52.741c2.737,40.184,9.952,78.938,17.679,117.526c6.72-30.795,24.057-112.573,58.396-149.284c5-14.596,12.098-28.307,20.263-41.571-5.46,11.493-11.292,23.107-13.11,33.434c7.833-4.823,16.142-15.177,24.403-24.963c5.656-14.753,4.001-29.205-1.805-43.473c9.173,12.91,13.493,25.881,19.127,38.431c12.152,27.085.782,82.179-8.106,122.938c17.481-60.833,47.72-112.27,68.905-162.784c1.758-7.912.69-18.996-.791-30.543c7.832,23.223,10.655,48.047,12.831,73.08c4.13-24.256,1.705-52.122-4.843-82.264c4.604,8.926,8.519,21.61,11.617,38.773-2.861-23.386-5.068-46.182-2.828-64.976c9.994,49.558,37.398,75.906,29.98,148.673c32.084-73.346,39.947-121.109,44.361-163.892c2.572,22.917,3.577,46.852,1.436,72.828c13.38-32.901,23.385-74.646,33.535-115.988-.96,8.267-3.3,18.377-1.55,26.511c21.27,99.101-7.66,112.608-24.409,197.373c34.419-32.322,66.359-153.67,103.399-233.077c3.65-12.993,4.06-24.949,7.71-37.942c3.16,2.534,2.37,46.456,7.01,91.313c2.64,10.048-35.12,101.681-52.68,152.522c28.45-28.082,44.91-89.255,62.94-146.06c12.44-36.204,28.28-68.633,49.03-95.608c5.72-2.682,11-6.091,14.26-12.751c1.86-14.058,4.5-24.101,9.23-23.615c26.99,71.117-21.9,169.453-52.18,243.527c30.07-33.47,48.1-68.618,63.08-100.83c27.33-58.906,51.55-84.623,75.36-105.985c14.73-6.499,22.22-3.746,26.4,3.245-40.55,61.15-61.51,115.142-93.43,169.073c41.06-37.244,72.34-140.68,101.51-166.983c11.28-6.504,37.8,16.076,41.55,22.566-11,33.066-26.41,66.081-46.37,99.042c22.68-26.749,54.59-93.009,63.51-88.156c14.72,6.19,25.72,18.542,34.22,35.045.05,7.859,8.04,9.412,9.21,15.374c5.03,25.599,16.17,29.168,29.63,45.091-4.29,11.595-5.31,18.104,10.83,26.55c7.09,3.708,6.95,14.408,10.43,21.613-60.2,22.309-88.41,10.88-130.5,14.092c78.16,24.282,123.46,1.409,134.32,8.853-14.05,5.668-28.11,11.336-42.16,17.004c9.5-1.611,19-3.222,28.49-4.833-2.86,13.529-18.13,9.183-27.2,13.774c4.3,3.983,21.63-.795,22.43,8.419c1.13,13.149,25.42,19.517,25.5,30.427-94.68,6.565-189.04-11.854-283.18-48.527c69.46,26.229,157.03,88.451,275.72,81.322c4.69,4.848,6.22,15.813,5.84,30.485-6.34,11.419-11.4,21.951-10.46,28.297-95.25,43.411-263.25.913-337.65-58.626c87.29,117.646,169.1,196.684,299.91,144.384-10.42,22.307-20.85,44.617-31.27,66.925-59.24,48.994-124.14,71.822-196.42,60.53-63.73,20.96-127.74,38.263-193.09,37.856-151.653,13.057-231.04-2.743-264.577-36.852c5.459,22.058,22.144,39.365,47.769,52.891c29.913,11.584,66.64,14.046,101.996,18.34-32.668-1.659-56.128.246-122.063-14.289-41.805,17.803-74.697,9.646-99.26-22.773-26.897-37.945-53.786-76.003-81.572-93.652c41.965,51.8,22.516,137.294,104.615,165.722-14.434,3.532-31.327-.466-50.601-11.075-8.948.586-18.207-.356-31.318-5.957c5.625,5.76,11.251,11.521,16.877,17.282-27.285,12.563-46.568.024-64.598-16.443-11.871,10.538-19.109,30.233-23.541,55.481-70.246,20.243-128.202,10.318-162.452-57.813-50.832,34.142-101.664,68.286-152.497,102.429-12.983,6.733-25.966,13.466-38.949,20.201-5.426,0-8.125-2.67-8.336-7.759l-.001.001ZM514.395,599.669c-2.736,11.478-5.472,22.957-8.208,34.434-.368-19.539-3.968-19.613,8.208-34.434Zm9.269-2.674c3.344-2.388,6.687-4.778,10.031-7.167-3.474,5.433-4.685,12.03-4.88,19.15-2.457-1.978-4.158-6.018-5.151-11.983Zm32.293-41.388c3.65.248,12.262,1.791,15.91,2.039.427,3.338-.776,5.594-3.356,6.937-2.531-2.56-10.023-6.415-12.554-8.976Zm20.432,2.626c-1.51,4.148-2.981,10.5-4.491,14.647c2.06,2.468,4.121,4.935,6.181,7.403c1.262-8.081,1.281-17.392-1.69-22.05v0Zm4.896,8.465c2.992,7.197,6.721,19.186,5.044,21.966-1.608-2.123-3.842-7.593-5.45-9.717.658-3.143.696-7.526.406-12.249Zm18.229-43.258c3.227,4.863,6.803,8.181,10.566,10.102-1.624,16.855-6.131,30.122-10.619,43.414-3.374-19.385-5.359-38.136.053-53.516v0Zm1.839-5.72c.806-4.589,3.106-7.755,5.903-8.759.767,1.704,2.611,2.809,4.186,4.064-1.79,2.413-1.934,7.722-1.928,13.108-3.212-1.411-6.297-4.879-8.161-8.413Zm24.986,24.72c-4.625-4.675-9.43-11.701-14.281-15.101-.243-5.014-.167-9.606,1.347-12.303c11.132,7.471,14.568,17.537,12.934,27.404v0Zm29.182,28.151c-2.805-14.541-5.59-38.732-4.274-46.28c2.182-20.04,5.583-22.735,8.029-34.659-3.9,21.982-5.077,49.103-3.755,80.939v0Zm22.68-29.098c1.731-21.931,3.185-43.37-.042-56.566-5.31-2.107-10.007-7.15-13.799-16.543c1.771,7.876,2.373,16.012,1.105,24.564c2.299,20.57,7.625,34.314,12.736,48.545v0Zm15.623-26.841c2.067-5.534,2.081-12.761.532-21.277-5.976-8.486-11.423-13.836-16.735-18.388c3.046,6.011,5.308,13.382,8.355,19.394c5.887,10.624,5.494,13.061,7.848,20.271Zm-28.051-49.651c2.436,3.518,5.312,5.167,8.501,5.487-4.391-5.347-7.368-10.255-8.476-14.583-.008,3.032-.018,6.064-.025,9.096Zm144.982-28.5c-10.641,24.722-22.509,46.384-34.841,66.884c2.982-11.953,6.019-23.922,7.433-35.372c13.34-12.097,20.01-21.666,27.408-31.512ZM890.213,396.8c-8.333,42.437-20.376,85.358-33.464,128.417c13.41-35.826,34.138-84.091,33.464-128.417Zm213.717,40.34c45.84-71.925,54.68-120.401,76.91-215.631-7.76,18.775-18.08,36.691-23.28,56.326-14.27,53.857-31.79,107.081-53.63,159.305Zm-30.39,41.113c73.1,17.205,135.39,74.435,230.93,101.851-110.81-13.083-134.96-40.718-230.93-101.851Zm-20.43,23.13c38.61,18.615,38.8,16.613,66.83,49.006-22.27-16.336-44.55-32.67-66.83-49.006Zm-12.41,52.401c62.04,23.605,69.15,148.41,201.24,173.23-134.44-11.06-133.49-103.281-201.24-173.23Zm-71.783-20.967c68.403,30.298,60.543,21.19,103.853,81.992-27.22-26.88-62.18-54.231-103.853-81.992Zm-32.298,21.1c31.094,20.985,69.971,33.574,93.281,62.957c39.05,49.221,78.73,97.22,130.81,131.206-32.69-10.732-75.04-19.192-107.53-58.396-35.23-42.522-50.06-90.884-116.561-135.767v0Zm71.591,176.169c40.43,33.037,37.56,34.788,88.06,48.039-29.35-16.014-58.71-32.025-88.06-48.039ZM858.406,571.777c84.103,46.672,70.834,31.633,112.323,118.293-44.725-35.36-74.077-79.461-112.323-118.293Zm-24.495,13.221c30.465,13.663,26.625,12.744,47.086,39.184-14.702-17.282-30.381-30.407-47.086-39.184Zm8.251,42.647c25.793,42.628,52.824,79.083,81.652,106.586-50.385-39.093-52.24-48.865-81.652-106.586Zm-55.301-19.963c42.328,23.598,35.586,25.132,58.208,68.355-16.247-26.093-35.478-49.056-58.208-68.355Zm-16.5,11.557c30.522,11.1,23.981,7.491,39.825,36.128-13.098-16.496-26.379-28.392-39.825-36.128Zm-53.503,30.578c52.987,29.189,45.245,23.104,76.099,75.184-21.317-29.476-46.612-54.613-76.099-75.184Zm-51.421,37.085c27.195,15.561,23.855,13.886,40.718,40.324-12.142-16.211-25.659-29.761-40.718-40.324Zm-18.936,33.413c12.492,13.34,28.948,23.376,41.735,47.795c15.945,30.448,38.408,46.122,59.74,73.073-18.797-17.15-37.196-17.969-56.392-51.449-19.197-33.481-30.055-46.28-45.083-69.419Zm37.343,83.105c15.812,15.591,30.608,30.394,45.502,46.865-28.626-19.653-28.754-16.505-45.502-46.865Zm-58.281,45.11c8.275,17.713,19.28,31.323,32.87,41.044-27.605-15.462-21.883-11.108-32.87-41.044ZM323.09,891.938c23.585-12.122,47.171-24.245,70.755-36.367C589.317,690.288,836.481,568.487,1243.08,383.232c-15.87,1.034-732.326,296.994-919.99,508.706v0Z" clip-rule="evenodd" fill="none" fill-rule="evenodd" stroke="#fff" stroke-width="3" stroke-miterlimit="22.9256"/><path id="eNe8AczFIVi3" d="M139.145,974.311c56.757-29.189,113.514-58.379,170.27-87.569c2.154-95.288,91.078-122.461,113.315-171.119c7.73,18.418,4.96,42.816,16.198,63.497-8.098-31.749,9.35-79.222-2.916-82.568c38.643,3.64,31.168,86.448,48.007,107.732c2.589-43.892-9.497-80.244,26.425-107.489c1.311-4.611,5.482-7.642,12.429-9.138c2.691-11.16,5.83-22.085,13.704-30.522-2.263,9.42-8.159,19.645-10.423,29.065c4.375-.251,12.396-3.155,16.755-1.557c1.629-1.423,3.832-5.511,6.696-13.053-3.808-7.902-7.618-15.804-11.426-23.706c8.991,13.326,17.682,26.487,15.28,33.519-1.938,20.167-1.838,37.047.747,49.926c2.921-20.564,8.726-39.974,19.6-57.357-3.019-7.229-20.157-12.409-26.75-37.296c8.384,15.593,19.428,25.31,34.312,26.536.251-16.318,2.682-22.43,5.058-28.79-3.526,13.636-.694,32.783,7.374,56.468c2.972-19.821,7.567-37.958,16.711-51.374-4.333-7.638-5.289-16.127-5.102-24.908c1.828,7.81,3.256,16.502,7.345,19.317c2.04-3.615,4.458-5.655,7.279-6.008-3.036-6.728-6.071-13.457-9.107-20.184c14.751,26.541,35.51,38.478,31.766,65.25c8.329-19.399,17.428-38.343,29.558-55.48c3.858-3.398,5.11-8.479,5.634-13.64-5.197-3.571-8.906-7.416-10.764-11.602c4.372,2.451,7.407,7.172,11.78,9.624c2.217-3.271,4.283-10.228,3.558-16.302c8.661,34.259,27.174,43.679,25.505,54.964-5.781,36.054-7.314,71.759-8.36,107.422c12.218-25.832,44.216-94.532,82.038-119.955c7.395-11.873,16.462-22.537,26.381-32.588-7.168,9.039-14.69,18.108-18.402,26.859c7.903-2.662,17.355-10.113,26.649-17.072c8.005-11.878,9.492-24.982,7.274-38.77c5.469,13.276,6.639,25.615,9.055,37.85c5.209,26.404-16.074,72.751-32.24,106.942c27.852-50.17,65.057-89.438,94.076-129.736c3.167-6.63,4.485-16.639,5.531-27.141c2.182,22.111-.389,44.615-3.574,67.172c8.596-20.584,12.139-45.694,12.505-73.655c2.245,8.824,3.116,20.827,2.351,36.619c2.244-21.241,4.945-41.828,10.758-57.972-1.282,45.815,17.549,74.679-3.848,137.445c43.304-58.245,59.994-98.831,72.621-135.723-2.404,20.768-6.399,42.116-13.589,64.625c18.531-26.333,35.881-61.168,53.281-95.615-2.53,7.107-6.66,15.56-6.78,23.101-1.43,91.879-29.733,97.909-61.82,169.369c36.999-21.529,89.96-122.206,138.88-184.793c5.88-10.733,8.68-21.21,14.55-31.943c2.28,2.883-7.38,41.52-12.43,82.091.28,9.414-51.77,82.655-77.65,123.983c30.86-19.003,57.88-69.683,85.4-116.181c18.37-29.442,38.98-54.858,62.81-74.453c5.6-1.201,10.96-3.136,15.2-8.354c4.51-12.039,8.89-20.37,12.96-18.977c9.34,68.327-53.91,145.217-95.76,204.473c33.38-23.433,56.48-50.8,76.28-76.2c36.17-46.457,62.81-64.234,88.19-78.246c14.35-2.735,20.4,1.225,22.66,8.251-48.29,45.746-77.82,89.162-117.02,130.29c43.87-24.522,92.6-109.51,123.73-126.794c11.3-3.444,30.12,21.913,32.1,28.41-16.46,26.965-36.81,52.983-61.16,78.029c25.49-19.002,67.2-71.022,74.08-64.917c11.74,8.471,18.94,21.627,23.08,37.939-1.55,6.952,5.18,9.954,5,15.459-.78,23.639,8.34,29.065,16.98,45.876-6.16,9.366-8.39,14.908,4.15,25.662c5.5,4.722,3.2,14.145,4.8,21.218-57.73,7.426-80.31-8.425-118.15-14.174c64.09,37.394,108.77,26.431,116.84,35.222-13.57,2.14-27.14,4.28-40.71,6.419c8.72.515,17.44,1.03,26.16,1.544-5.29,11.367-17.89,4.413-26.84,6.618c2.99,4.395,19.27,3.711,18.09,12.011-1.68,11.847,18.48,22.427,16.32,32.081-84.97-13.516-164.57-49.037-240.24-100.637c56,37.34,120.66,110.167,226.96,128.084c3.15,5.239,2.27,15.238-1.06,28.121-7.93,8.793-14.55,17.063-15.01,22.862-93,18.913-232.73-52.9-286.3-120.671c53.11,121.731,109.25,208.237,235.47,188.725-13.76,17.578-27.52,35.158-41.28,52.737-62.33,31.191-124.31,38.121-185.85,13.401-60.57,5.51-120.647,7.74-178.291-5.955-136.625-19.406-203.527-49.558-226.193-86.529.323,20.598,11.531,39.29,31.406,56.466c24.06,16.335,56.001,26.002,86.356,37.008-28.518-8.13-49.63-11.233-104.908-37.524-40.56,7.198-67.95-6.718-83.035-40.366-16.017-39.005-32.006-78.109-52.95-99.368c26.503,54.319-8.119,125.871,58.603,167.731-13.471.176-27.577-6.802-42.439-20.106-8.023-1.307-16.01-4.028-26.449-11.651c3.794,6.236,7.588,12.472,11.383,18.709-26.665,5.531-41.14-9.479-53.708-27.704-12.636,6.887-23.048,22.808-32.114,44.207-66.18,3.552-115.35-17.04-131.705-84.211-51.867,19.79-103.735,39.58-155.603,59.37-12.842,3.299-25.684,6.598-38.526,9.897-4.792-1.11-6.633-4.012-5.781-8.553h-.001ZM520.893,691.78c-4.759,9.581-9.517,19.163-14.275,28.743c3.661-17.335.496-18.135,14.275-28.743Zm8.733-.471c3.441-1.427,6.882-2.856,10.323-4.285-4.177,4.091-6.593,9.671-8.218,15.921-1.767-2.248-2.445-6.164-2.105-11.636Zm36.969-29.971c3.174.964,10.466,4.083,13.638,5.047-.304,3.035-1.827,4.783-4.38,5.443-1.713-2.778-7.545-7.712-9.258-10.49Zm17.513,6.488c-2.18,3.356-4.776,8.667-6.956,12.022c1.317,2.6,2.634,5.2,3.95,7.8c2.764-6.881,4.68-15.102,3.006-19.822v0Zm2.597,8.476c1.175,6.968,2.023,18.319-.025,20.433-.987-2.204-1.845-7.492-2.832-9.696c1.223-2.642,2.151-6.506,2.857-10.737Zm24.928-34.493c1.859,4.954,4.34,8.615,7.273,11.079-4.874,14.557-11.561,25.357-18.237,36.183.974-17.811,3.046-34.78,10.964-47.262v0Zm2.792-4.677c1.647-3.89,4.326-6.217,7-6.533.331,1.662,1.734,3.014,2.869,4.444-2.073,1.766-3.284,6.427-4.377,11.185-2.549-1.901-4.567-5.594-5.492-9.096Zm17.027,26.934c-3.131-5.074-5.942-12.261-9.534-16.253.809-4.479,1.812-8.52,3.7-10.594c8.309,8.871,9.291,18.463,5.834,26.847v0Zm20.035,30.82c.489-13.417,2.964-35.355,5.666-41.753c6.016-17.258,9.57-18.944,14.164-28.978-7.93,18.622-14.503,42.339-19.83,70.731v0Zm25.97-21.077c6.004-19.019,11.662-37.661,11.503-49.975-4.26-2.945-7.381-8.358-8.814-17.428-.043,7.318-1.17,14.628-4.035,21.923-2.166,18.64-.265,31.867,1.346,45.48v0Zm19.277-20.522c2.955-4.468,4.441-10.849,4.811-18.687-3.549-8.715-7.268-14.552-11.032-19.657c1.464,5.932,1.958,12.904,3.424,18.837c3.032,10.584,2.188,12.657,2.797,19.507Zm-14.65-49.582c1.434,3.605,3.638,5.648,6.391,6.581-2.789-5.618-4.417-10.561-4.513-14.611-.626,2.677-1.253,5.353-1.878,8.03Zm133.883,4.403c-14.443,19.666-29.346,36.38-44.422,51.973c5.073-9.95,10.197-19.904,13.782-29.729c14.252-7.965,22.096-15.057,30.64-22.244Zm78.287-18.86c-16.017,35.786-35.412,71.244-55.758,106.609c19.155-28.911,47.311-67.316,55.758-106.609Zm180.556,79.234c55.16-54.183,72.86-95.2,111.93-174.785-10.69,15.001-23.46,28.722-32.06,45.006-23.59,44.663-49.93,88.103-79.87,129.779ZM1039.58,698.6c61.06,30.11,104.4,93.37,183.21,137.08-95.21-34.163-110.91-63.5-183.21-137.08Zm-22.77,16.263c30.31,24.32,30.89,22.591,49.04,56.923-16.34-18.975-32.69-37.948-49.04-56.923Zm-21.655,43.755c49.995,33.509,30.805,145.204,142.425,194.076-116.5-37.197-96.84-118.464-142.425-194.076Zm-59.126-33.164c54.238,40.717,49.156,31.068,75.011,93.614-18.562-29.298-43.865-60.591-75.011-93.614Zm-32.835,12.049c23.185,24.88,54.961,43.933,69.556,74.643c24.447,51.444,49.71,101.939,88.78,142.586-26.68-16.149-62.373-32.264-83.069-73.521-22.449-44.749-25.678-90.494-75.267-143.708v0Zm27.295,170.221c28.98,37.432,26.081,38.393,67.99,60.401-22.662-20.134-45.326-40.267-67.99-60.401Zm-100.027-170.4c64.769,58.385,56.116,42.393,75.085,127.407-32.293-40.359-49.223-85.303-75.085-127.407Zm-24.335,6.681c24.123,18.284,20.919,16.688,33.598,44.218-9.46-18.264-20.633-33.057-33.598-44.218Zm-1.412,39.354c14.087,42.918,30.528,80.635,50.382,110.81-36.532-44.811-36.177-53.822-50.382-110.81Zm-44.777-28.915c32.576,29.48,26.307,29.46,37.472,72.255-9.028-26.363-21.331-50.57-37.472-72.255Zm-16.933,6.843c24.697,16.031,19.656,11.509,27.808,40.037-8.204-17.243-17.509-30.461-27.808-40.037Zm-53.499,16.095c40.85,36.594,35.253,29.639,51.883,81.938-12.817-30.386-30.033-57.751-51.883-81.938ZM636.518,799.65c20.848,19.294,18.239,17.133,27.741,43.927-7.418-16.797-16.594-31.523-27.741-43.927Zm-23.544,25.652c8.314,14.332,20.803,26.555,27.116,50.734c7.873,30.148,24.518,48.577,37.863,76.735-13.105-18.984-29.19-23.461-39.317-56.951-10.127-33.491-17.108-47.012-25.662-70.518Zm16.032,81.029c10.788,16.997,20.838,33.092,30.634,50.68-21.277-23.201-22.032-20.446-30.634-50.68Zm-60.684,27.957c3.696,17.335,10.641,31.603,20.662,42.962-21.23-19.29-17.064-14.276-20.662-42.962ZM292.28,910.925c23.307-5.896,46.614-11.793,69.92-17.689c206.387-106.124,449.566-163.292,846.52-243.985-14.22-2.324-707.477,112.945-916.44,261.674v0Z" clip-rule="evenodd" fill="url(#eNe8AczFIVi3-fill)" fill-rule="evenodd" stroke="#fff" stroke-width="2" stroke-miterlimit="22.9256"/><script><![CDATA[!function(t,n){"object"==typeof exports&&"undefined"!=typeof module?module.exports=n():"function"==typeof define&&define.amd?define(n):((t="undefined"!=typeof globalThis?globalThis:t||self).__SVGATOR_PLAYER__=t.__SVGATOR_PLAYER__||{},t.__SVGATOR_PLAYER__["5c7f360c"]=n())}(this,(function(){"use strict";function t(t,n){var e=Object.keys(t);if(Object.getOwnPropertySymbols){var r=Object.getOwnPropertySymbols(t);n&&(r=r.filter((function(n){return Object.getOwnPropertyDescriptor(t,n).enumerable}))),e.push.apply(e,r)}return e}function n(n){for(var e=1;e<arguments.length;e++){var r=null!=arguments[e]?arguments[e]:{};e%2?t(Object(r),!0).forEach((function(t){o(n,t,r[t])})):Object.getOwnPropertyDescriptors?Object.defineProperties(n,Object.getOwnPropertyDescriptors(r)):t(Object(r)).forEach((function(t){Object.defineProperty(n,t,Object.getOwnPropertyDescriptor(r,t))}))}return n}function e(t){return(e="function"==typeof Symbol&&"symbol"==typeof Symbol.iterator?function(t){return typeof t}:function(t){return t&&"function"==typeof Symbol&&t.constructor===Symbol&&t!==Symbol.prototype?"symbol":typeof t})(t)}function r(t,n){if(!(t instanceof n))throw new TypeError("Cannot call a class as a function")}function i(t,n){for(var e=0;e<n.length;e++){var r=n[e];r.enumerable=r.enumerable||!1,r.configurable=!0,"value"in r&&(r.writable=!0),Object.defineProperty(t,r.key,r)}}function u(t,n,e){return n&&i(t.prototype,n),e&&i(t,e),t}function o(t,n,e){return n in t?Object.defineProperty(t,n,{value:e,enumerable:!0,configurable:!0,writable:!0}):t[n]=e,t}function a(t){return(a=Object.setPrototypeOf?Object.getPrototypeOf:function(t){return t.__proto__||Object.getPrototypeOf(t)})(t)}function l(t,n){return(l=Object.setPrototypeOf||function(t,n){return t.__proto__=n,t})(t,n)}function s(){if("undefined"==typeof Reflect||!Reflect.construct)return!1;if(Reflect.construct.sham)return!1;if("function"==typeof Proxy)return!0;try{return Boolean.prototype.valueOf.call(Reflect.construct(Boolean,[],(function(){}))),!0}catch(t){return!1}}function f(t,n,e){return(f=s()?Reflect.construct:function(t,n,e){var r=[null];r.push.apply(r,n);var i=new(Function.bind.apply(t,r));return e&&l(i,e.prototype),i}).apply(null,arguments)}function c(t,n){if(n&&("object"==typeof n||"function"==typeof n))return n;if(void 0!==n)throw new TypeError("Derived constructors may only return object or undefined");return function(t){if(void 0===t)throw new ReferenceError("this hasn't been initialised - super() hasn't been called");return t}(t)}function h(t,n,e){return(h="undefined"!=typeof Reflect&&Reflect.get?Reflect.get:function(t,n,e){var r=function(t,n){for(;!Object.prototype.hasOwnProperty.call(t,n)&&null!==(t=a(t)););return t}(t,n);if(r){var i=Object.getOwnPropertyDescriptor(r,n);return i.get?i.get.call(e):i.value}})(t,n,e||t)}function v(t){return function(t){if(Array.isArray(t))return y(t)}(t)||function(t){if("undefined"!=typeof Symbol&&null!=t[Symbol.iterator]||null!=t["@@iterator"])return Array.from(t)}(t)||function(t,n){if(!t)return;if("string"==typeof t)return y(t,n);var e=Object.prototype.toString.call(t).slice(8,-1);"Object"===e&&t.constructor&&(e=t.constructor.name);if("Map"===e||"Set"===e)return Array.from(t);if("Arguments"===e||/^(?:Ui|I)nt(?:8|16|32)(?:Clamped)?Array$/.test(e))return y(t,n)}(t)||function(){throw new TypeError("Invalid attempt to spread non-iterable instance.\nIn order to be iterable, non-array objects must have a [Symbol.iterator]() method.")}()}function y(t,n){(null==n||n>t.length)&&(n=t.length);for(var e=0,r=new Array(n);e<n;e++)r[e]=t[e];return r}Number.isInteger||(Number.isInteger=function(t){return"number"==typeof t&&isFinite(t)&&Math.floor(t)===t}),Number.EPSILON||(Number.EPSILON=2220446049250313e-31);var g=d(Math.pow(10,-6));function d(t){var n=arguments.length>1&&void 0!==arguments[1]?arguments[1]:6;if(Number.isInteger(t))return t;var e=Math.pow(10,n);return Math.round((+t+Number.EPSILON)*e)/e}function p(t,n){var e=arguments.length>2&&void 0!==arguments[2]?arguments[2]:g;return Math.abs(t-n)<e}var m=Math.PI/180;function b(t){return t}function w(t,n,e){var r=1-e;return 3*e*r*(t*r+n*e)+e*e*e}function x(){var t=arguments.length>0&&void 0!==arguments[0]?arguments[0]:0,n=arguments.length>1&&void 0!==arguments[1]?arguments[1]:0,e=arguments.length>2&&void 0!==arguments[2]?arguments[2]:1,r=arguments.length>3&&void 0!==arguments[3]?arguments[3]:1;return t<0||t>1||e<0||e>1?null:p(t,n)&&p(e,r)?b:function(i){if(i<=0)return t>0?i*n/t:0===n&&e>0?i*r/e:0;if(i>=1)return e<1?1+(i-1)*(r-1)/(e-1):1===e&&t<1?1+(i-1)*(n-1)/(t-1):1;for(var u,o=0,a=1;o<a;){var l=w(t,e,u=(o+a)/2);if(p(i,l))break;l<i?o=u:a=u}return w(n,r,u)}}function A(){return 1}function k(t){return 1===t?1:0}function _(){var t=arguments.length>0&&void 0!==arguments[0]?arguments[0]:1,n=arguments.length>1&&void 0!==arguments[1]?arguments[1]:0;if(1===t){if(0===n)return k;if(1===n)return A}var e=1/t;return function(t){return t>=1?1:(t+=n*e)-t%e}}var S=Math.sin,O=Math.cos,j=Math.acos,M=Math.asin,P=Math.tan,E=Math.atan2,I=Math.PI/180,R=180/Math.PI,F=Math.sqrt,N=function(){function t(){var n=arguments.length>0&&void 0!==arguments[0]?arguments[0]:1,e=arguments.length>1&&void 0!==arguments[1]?arguments[1]:0,i=arguments.length>2&&void 0!==arguments[2]?arguments[2]:0,u=arguments.length>3&&void 0!==arguments[3]?arguments[3]:1,o=arguments.length>4&&void 0!==arguments[4]?arguments[4]:0,a=arguments.length>5&&void 0!==arguments[5]?arguments[5]:0;r(this,t),this.m=[n,e,i,u,o,a],this.i=null,this.w=null,this.s=null}return u(t,[{key:"determinant",get:function(){var t=this.m;return t[0]*t[3]-t[1]*t[2]}},{key:"isIdentity",get:function(){if(null===this.i){var t=this.m;this.i=1===t[0]&&0===t[1]&&0===t[2]&&1===t[3]&&0===t[4]&&0===t[5]}return this.i}},{key:"point",value:function(t,n){var e=this.m;return{x:e[0]*t+e[2]*n+e[4],y:e[1]*t+e[3]*n+e[5]}}},{key:"translateSelf",value:function(){var t=arguments.length>0&&void 0!==arguments[0]?arguments[0]:0,n=arguments.length>1&&void 0!==arguments[1]?arguments[1]:0;if(!t&&!n)return this;var e=this.m;return e[4]+=e[0]*t+e[2]*n,e[5]+=e[1]*t+e[3]*n,this.w=this.s=this.i=null,this}},{key:"rotateSelf",value:function(){var t=arguments.length>0&&void 0!==arguments[0]?arguments[0]:0;if(t%=360){var n=S(t*=I),e=O(t),r=this.m,i=r[0],u=r[1];r[0]=i*e+r[2]*n,r[1]=u*e+r[3]*n,r[2]=r[2]*e-i*n,r[3]=r[3]*e-u*n,this.w=this.s=this.i=null}return this}},{key:"scaleSelf",value:function(){var t=arguments.length>0&&void 0!==arguments[0]?arguments[0]:1,n=arguments.length>1&&void 0!==arguments[1]?arguments[1]:1;if(1!==t||1!==n){var e=this.m;e[0]*=t,e[1]*=t,e[2]*=n,e[3]*=n,this.w=this.s=this.i=null}return this}},{key:"skewSelf",value:function(t,n){if(n%=360,(t%=360)||n){var e=this.m,r=e[0],i=e[1],u=e[2],o=e[3];t&&(t=P(t*I),e[2]+=r*t,e[3]+=i*t),n&&(n=P(n*I),e[0]+=u*n,e[1]+=o*n),this.w=this.s=this.i=null}return this}},{key:"resetSelf",value:function(){var t=arguments.length>0&&void 0!==arguments[0]?arguments[0]:1,n=arguments.length>1&&void 0!==arguments[1]?arguments[1]:0,e=arguments.length>2&&void 0!==arguments[2]?arguments[2]:0,r=arguments.length>3&&void 0!==arguments[3]?arguments[3]:1,i=arguments.length>4&&void 0!==arguments[4]?arguments[4]:0,u=arguments.length>5&&void 0!==arguments[5]?arguments[5]:0,o=this.m;return o[0]=t,o[1]=n,o[2]=e,o[3]=r,o[4]=i,o[5]=u,this.w=this.s=this.i=null,this}},{key:"recomposeSelf",value:function(){var t=arguments.length>0&&void 0!==arguments[0]?arguments[0]:null,n=arguments.length>1&&void 0!==arguments[1]?arguments[1]:null,e=arguments.length>2&&void 0!==arguments[2]?arguments[2]:null,r=arguments.length>3&&void 0!==arguments[3]?arguments[3]:null,i=arguments.length>4&&void 0!==arguments[4]?arguments[4]:null;return this.isIdentity||this.resetSelf(),t&&(t.x||t.y)&&this.translateSelf(t.x,t.y),n&&this.rotateSelf(n),e&&(e.x&&this.skewSelf(e.x,0),e.y&&this.skewSelf(0,e.y)),!r||1===r.x&&1===r.y||this.scaleSelf(r.x,r.y),i&&(i.x||i.y)&&this.translateSelf(i.x,i.y),this}},{key:"decompose",value:function(){var t=arguments.length>0&&void 0!==arguments[0]?arguments[0]:0,n=arguments.length>1&&void 0!==arguments[1]?arguments[1]:0,e=this.m,r=e[0]*e[0]+e[1]*e[1],i=[[e[0],e[1]],[e[2],e[3]]],u=F(r);if(0===u)return{origin:{x:d(e[4]),y:d(e[5])},translate:{x:d(t),y:d(n)},scale:{x:0,y:0},skew:{x:0,y:0},rotate:0};i[0][0]/=u,i[0][1]/=u;var o=e[0]*e[3]-e[1]*e[2]<0;o&&(u=-u);var a=i[0][0]*i[1][0]+i[0][1]*i[1][1];i[1][0]-=i[0][0]*a,i[1][1]-=i[0][1]*a;var l=F(i[1][0]*i[1][0]+i[1][1]*i[1][1]);if(0===l)return{origin:{x:d(e[4]),y:d(e[5])},translate:{x:d(t),y:d(n)},scale:{x:d(u),y:0},skew:{x:0,y:0},rotate:0};i[1][0]/=l,i[1][1]/=l,a/=l;var s=0;return i[1][1]<0?(s=j(i[1][1])*R,i[0][1]<0&&(s=360-s)):s=M(i[0][1])*R,o&&(s=-s),a=E(a,F(i[0][0]*i[0][0]+i[0][1]*i[0][1]))*R,o&&(a=-a),{origin:{x:d(e[4]),y:d(e[5])},translate:{x:d(t),y:d(n)},scale:{x:d(u),y:d(l)},skew:{x:d(a),y:0},rotate:d(s)}}},{key:"clone",value:function(){var t=this.m;return new this.constructor(t[0],t[1],t[2],t[3],t[4],t[5])}},{key:"toString",value:function(){var t=arguments.length>0&&void 0!==arguments[0]?arguments[0]:" ";if(null===this.s){var n=this.m.map((function(t){return d(t)}));1===n[0]&&0===n[1]&&0===n[2]&&1===n[3]?this.s="translate("+n[4]+t+n[5]+")":this.s="matrix("+n.join(t)+")"}return this.s}}],[{key:"create",value:function(t){return t?Array.isArray(t)?f(this,v(t)):t instanceof this?t.clone():(new this).recomposeSelf(t.origin,t.rotate,t.skew,t.scale,t.translate):new this}}]),t}();function T(t,n,e){return t>=.5?e:n}function q(t,n,e){return 0===t||n===e?n:t*(e-n)+n}function B(t,n,e){var r=q(t,n,e);return r<=0?0:r}function L(t,n,e){var r=q(t,n,e);return r<=0?0:r>=1?1:r}function C(t,n,e){return 0===t?n:1===t?e:{x:q(t,n.x,e.x),y:q(t,n.y,e.y)}}function D(t,n,e){var r=function(t,n,e){return Math.round(q(t,n,e))}(t,n,e);return r<=0?0:r>=255?255:r}function z(t,n,e){return 0===t?n:1===t?e:{r:D(t,n.r,e.r),g:D(t,n.g,e.g),b:D(t,n.b,e.b),a:q(t,null==n.a?1:n.a,null==e.a?1:e.a)}}function V(t,n){for(var e=[],r=0;r<t;r++)e.push(n);return e}function G(t,n){if(--n<=0)return t;var e=(t=Object.assign([],t)).length;do{for(var r=0;r<e;r++)t.push(t[r])}while(--n>0);return t}var Y,$=function(){function t(n){r(this,t),this.list=n,this.length=n.length}return u(t,[{key:"setAttribute",value:function(t,n){for(var e=this.list,r=0;r<this.length;r++)e[r].setAttribute(t,n)}},{key:"removeAttribute",value:function(t){for(var n=this.list,e=0;e<this.length;e++)n[e].removeAttribute(t)}},{key:"style",value:function(t,n){for(var e=this.list,r=0;r<this.length;r++)e[r].style[t]=n}}]),t}(),U=/-./g,Q=function(t,n){return n.toUpperCase()};function H(t){return"function"==typeof t?t:T}function J(t){return t?"function"==typeof t?t:Array.isArray(t)?function(t){var n=arguments.length>1&&void 0!==arguments[1]?arguments[1]:b;if(!Array.isArray(t))return n;switch(t.length){case 1:return _(t[0])||n;case 2:return _(t[0],t[1])||n;case 4:return x(t[0],t[1],t[2],t[3])||n}return n}(t,null):function(t,n){var e=arguments.length>2&&void 0!==arguments[2]?arguments[2]:b;switch(t){case"linear":return b;case"steps":return _(n.steps||1,n.jump||0)||e;case"bezier":case"cubic-bezier":return x(n.x1||0,n.y1||0,n.x2||0,n.y2||0)||e}return e}(t.type,t.value,null):null}function Z(t,n,e){var r=arguments.length>3&&void 0!==arguments[3]&&arguments[3],i=n.length-1;if(t<=n[0].t)return r?[0,0,n[0].v]:n[0].v;if(t>=n[i].t)return r?[i,1,n[i].v]:n[i].v;var u,o=n[0],a=null;for(u=1;u<=i;u++){if(!(t>n[u].t)){a=n[u];break}o=n[u]}return null==a?r?[i,1,n[i].v]:n[i].v:o.t===a.t?r?[u,1,a.v]:a.v:(t=(t-o.t)/(a.t-o.t),o.e&&(t=o.e(t)),r?[u,t,e(t,o.v,a.v)]:e(t,o.v,a.v))}function K(t,n){var e=arguments.length>2&&void 0!==arguments[2]?arguments[2]:null;return t&&t.length?"function"!=typeof n?null:("function"!=typeof e&&(e=null),function(r){var i=Z(r,t,n);return null!=i&&e&&(i=e(i)),i}):null}function W(t,n){return t.t-n.t}function X(t,n,r,i,u){var o,a="@"===r[0],l="#"===r[0],s=Y[r],f=T;switch(a?(o=r.substr(1),r=o.replace(U,Q)):l&&(r=r.substr(1)),e(s)){case"function":if(f=s(i,u,Z,J,r,a,n,t),l)return f;break;case"string":f=K(i,H(s));break;case"object":if((f=K(i,H(s.i),s.f))&&"function"==typeof s.u)return s.u(n,f,r,a,t)}return f?function(t,n,e){if(arguments.length>3&&void 0!==arguments[3]&&arguments[3])return t instanceof $?function(r){return t.style(n,e(r))}:function(r){return t.style[n]=e(r)};if(Array.isArray(n)){var r=n.length;return function(i){var u=e(i);if(null==u)for(var o=0;o<r;o++)t[o].removeAttribute(n);else for(var a=0;a<r;a++)t[a].setAttribute(n,u)}}return function(r){var i=e(r);null==i?t.removeAttribute(n):t.setAttribute(n,i)}}(n,r,f,a):null}function tt(t,n,r,i){if(!i||"object"!==e(i))return null;var u=null,o=null;return Array.isArray(i)?o=function(t){if(!t||!t.length)return null;for(var n=0;n<t.length;n++)t[n].e&&(t[n].e=J(t[n].e));return t.sort(W)}(i):(o=i.keys,u=i.data||null),o?X(t,n,r,o,u):null}function nt(t,n,e){if(!e)return null;var r=[];for(var i in e)if(e.hasOwnProperty(i)){var u=tt(t,n,i,e[i]);u&&r.push(u)}return r.length?r:null}function et(t,n){if(!n.settings.duration||n.settings.duration<0)return null;var e,r,i,u,o,a=function(t,n){if(!n)return null;var e=[];if(Array.isArray(n))for(var r=n.length,i=0;i<r;i++){var u=n[i];if(2===u.length){var o=null;if("string"==typeof u[0])o=t.getElementById(u[0]);else if(Array.isArray(u[0])){o=[];for(var a=0;a<u[0].length;a++)if("string"==typeof u[0][a]){var l=t.getElementById(u[0][a]);l&&o.push(l)}o=o.length?1===o.length?o[0]:new $(o):null}if(o){var s=nt(t,o,u[1]);s&&(e=e.concat(s))}}}else for(var f in n)if(n.hasOwnProperty(f)){var c=t.getElementById(f);if(c){var h=nt(t,c,n[f]);h&&(e=e.concat(h))}}return e.length?e:null}(t,n.elements);return a?(e=a,r=n.settings,i=r.duration,u=e.length,o=null,function(t,n){var a=r.iterations||1/0,l=(r.alternate&&a%2==0)^r.direction>0?i:0,s=t%i,f=1+(t-s)/i;n*=r.direction,r.alternate&&f%2==0&&(n=-n);var c=!1;if(f>a)s=l,c=!0,-1===r.fill&&(s=r.direction>0?0:i);else if(n<0&&(s=i-s),s===o)return!1;o=s;for(var h=0;h<u;h++)e[h](s);return c}):null}function rt(t,n){if(Y=n,!t||!t.root||!Array.isArray(t.animations))return null;var e=function(t){for(var n=document.getElementsByTagName("svg"),e=0;e<n.length;e++)if(n[e].id===t.root&&!n[e].svgatorAnimation)return n[e].svgatorAnimation=!0,n[e];return null}(t);if(!e)return null;var r=t.animations.map((function(t){return et(e,t)})).filter((function(t){return!!t}));return r.length?{svg:e,animations:r,animationSettings:t.animationSettings,options:t.options||void 0}:null}function it(t){return+("0x"+(t.replace(/[^0-9a-fA-F]+/g,"")||27))}function ut(t,n,e){return!t||!e||n>t.length?t:t.substring(0,n)+ut(t.substring(n+1),e,e)}function ot(t){var n=arguments.length>1&&void 0!==arguments[1]?arguments[1]:27;return!t||t%n?t%n:ot(t/n,n)}function at(t,n,e){if(t&&t.length){var r=it(e),i=it(n),u=ot(r)+5,o=ut(t,ot(r,5),u);return o=o.replace(/\x7c$/g,"==").replace(/\x2f$/g,"="),o=function(t,n,e){var r=+("0x"+t.substring(0,4));t=t.substring(4);for(var i=n%r+e%27,u=[],o=0;o<t.length;o+=2)if("|"!==t[o]){var a=+("0x"+t[o]+t[o+1])-i;u.push(a)}else{var l=+("0x"+t.substring(o+1,o+1+4))-i;o+=3,u.push(l)}return String.fromCharCode.apply(String,u)}(o=(o=atob(o)).replace(/[\x41-\x5A]/g,""),i,r),o=JSON.parse(o)}}var lt=[{key:"alternate",def:!1},{key:"fill",def:1},{key:"iterations",def:0},{key:"direction",def:1},{key:"speed",def:1},{key:"fps",def:100}],st=function(){function t(n,e){var i=this,u=arguments.length>2&&void 0!==arguments[2]?arguments[2]:null;r(this,t),this._id=0,this._running=!1,this._rollingBack=!1,this._animations=n,this._settings=e,(!u||u<"2022-05-02")&&delete this._settings.speed,lt.forEach((function(t){i._settings[t.key]=i._settings[t.key]||t.def})),this.duration=e.duration,this.offset=e.offset||0,this.rollbackStartOffset=0}return u(t,[{key:"alternate",get:function(){return this._settings.alternate}},{key:"fill",get:function(){return this._settings.fill}},{key:"iterations",get:function(){return this._settings.iterations}},{key:"direction",get:function(){return this._settings.direction}},{key:"speed",get:function(){return this._settings.speed}},{key:"fps",get:function(){return this._settings.fps}},{key:"maxFiniteDuration",get:function(){return this.iterations>0?this.iterations*this.duration:this.duration}},{key:"_apply",value:function(t){for(var n=arguments.length>1&&void 0!==arguments[1]?arguments[1]:{},e=this._animations,r=e.length,i=0,u=0;u<r;u++)n[u]?i++:(n[u]=e[u](t,1),n[u]&&i++);return i}},{key:"_rollback",value:function(t){var n=this,e=1/0,r=null;this.rollbackStartOffset=t,this._rollingBack=!0,this._running=!0;this._id=window.requestAnimationFrame((function i(u){if(n._rollingBack){null==r&&(r=u);var o=Math.round(t-(u-r)*n.speed);if(o>n.duration&&e!==1/0){var a=!!n.alternate&&o/n.duration%2>1,l=o%n.duration;o=(l+=a?n.duration:0)||n.duration}var s=(n.fps?1e3/n.fps:0)*n.speed,f=Math.max(0,o);f<e-s&&(n.offset=f,e=f,n._apply(f));var c=n.iterations>0&&-1===n.fill&&o>=n.maxFiniteDuration;(o<=0||n.offset<o||c)&&n.stop(),n._id=window.requestAnimationFrame(i)}}))}},{key:"_start",value:function(){var t=this,n=arguments.length>0&&void 0!==arguments[0]?arguments[0]:0,e=-1/0,r=null,i={};this._running=!0;var u=function u(o){null==r&&(r=o);var a=Math.round((o-r)*t.speed+n),l=(t.fps?1e3/t.fps:0)*t.speed;if(a>e+l&&!t._rollingBack&&(t.offset=a,e=a,t._apply(a,i)===t._animations.length))return void t.pause(!0);t._id=window.requestAnimationFrame(u)};this._id=window.requestAnimationFrame(u)}},{key:"_pause",value:function(){this._id&&window.cancelAnimationFrame(this._id),this._running=!1}},{key:"play",value:function(){if(!this._running)return this._rollingBack?this._rollback(this.offset):this._start(this.offset)}},{key:"stop",value:function(){this._pause(),this.offset=0,this.rollbackStartOffset=0,this._rollingBack=!1,this._apply(0)}},{key:"reachedToEnd",value:function(){return this.iterations>0&&this.offset>=this.iterations*this.duration}},{key:"restart",value:function(){var t=arguments.length>0&&void 0!==arguments[0]&&arguments[0];this.stop(t),this.play(t)}},{key:"pause",value:function(){this._pause()}},{key:"reverse",value:function(){this.direction=-this.direction}}],[{key:"build",value:function(t,n){delete t.animationSettings,t.options=at(t.options,t.root,"5c7f360c"),t.animations.map((function(n){n.settings=at(n.s,t.root,"5c7f360c"),delete n.s,t.animationSettings||(t.animationSettings=n.settings)}));var e=t.version;if(!(t=rt(t,n)))return null;var r=t.options||{},i=new this(t.animations,t.animationSettings,e);return{el:t.svg,options:r,player:i}}},{key:"push",value:function(t){return this.build(t)}},{key:"init",value:function(){var t=this,n=window.__SVGATOR_PLAYER__&&window.__SVGATOR_PLAYER__["5c7f360c"];Array.isArray(n)&&n.splice(0).forEach((function(n){return t.build(n)}))}}]),t}();function ft(t){return d(t)+""}function ct(t){var n=arguments.length>1&&void 0!==arguments[1]?arguments[1]:" ";return t&&t.length?t.map(ft).join(n):""}function ht(t){if(!t)return"transparent";if(null==t.a||t.a>=1){var n=function(t){return 1===(t=parseInt(t).toString(16)).length?"0"+t:t},e=function(t){return t.charAt(0)===t.charAt(1)},r=n(t.r),i=n(t.g),u=n(t.b);return e(r)&&e(i)&&e(u)&&(r=r.charAt(0),i=i.charAt(0),u=u.charAt(0)),"#"+r+i+u}return"rgba("+t.r+","+t.g+","+t.b+","+t.a+")"}function vt(t){return t?"url(#"+t+")":"none"}!function(){for(var t=0,n=["ms","moz","webkit","o"],e=0;e<n.length&&!window.requestAnimationFrame;++e)window.requestAnimationFrame=window[n[e]+"RequestAnimationFrame"],window.cancelAnimationFrame=window[n[e]+"CancelAnimationFrame"]||window[n[e]+"CancelRequestAnimationFrame"];window.requestAnimationFrame||(window.requestAnimationFrame=function(n){var e=Date.now(),r=Math.max(0,16-(e-t)),i=window.setTimeout((function(){n(e+r)}),r);return t=e+r,i},window.cancelAnimationFrame=window.clearTimeout)}();var yt={f:null,i:function(t,n,e){return 0===t?n:1===t?e:{x:B(t,n.x,e.x),y:B(t,n.y,e.y)}},u:function(t,n){return function(e){var r=n(e);t.setAttribute("rx",ft(r.x)),t.setAttribute("ry",ft(r.y))}}},gt={f:null,i:function(t,n,e){return 0===t?n:1===t?e:{width:B(t,n.width,e.width),height:B(t,n.height,e.height)}},u:function(t,n){return function(e){var r=n(e);t.setAttribute("width",ft(r.width)),t.setAttribute("height",ft(r.height))}}};Object.freeze({M:2,L:2,Z:0,H:1,V:1,C:6,Q:4,T:2,S:4,A:7});var dt={},pt=null;function mt(t){var n=function(){if(pt)return pt;if("object"!==("undefined"==typeof document?"undefined":e(document))||!document.createElementNS)return{};var t=document.createElementNS("http://www.w3.org/2000/svg","svg");return t&&t.style?(t.style.position="absolute",t.style.opacity="0.01",t.style.zIndex="-9999",t.style.left="-9999px",t.style.width="1px",t.style.height="1px",pt={svg:t}):{}}().svg;if(!n)return function(t){return null};var r=document.createElementNS(n.namespaceURI,"path");r.setAttributeNS(null,"d",t),r.setAttributeNS(null,"fill","none"),r.setAttributeNS(null,"stroke","none"),n.appendChild(r);var i=r.getTotalLength();return function(t){var n=r.getPointAtLength(i*t);return{x:n.x,y:n.y}}}function bt(t){return dt[t]?dt[t]:dt[t]=mt(t)}function wt(t,n,e,r){if(!t||!r)return!1;var i=["M",t.x,t.y];if(n&&e&&(i.push("C"),i.push(n.x),i.push(n.y),i.push(e.x),i.push(e.y)),n?!e:e){var u=n||e;i.push("Q"),i.push(u.x),i.push(u.y)}return n||e||i.push("L"),i.push(r.x),i.push(r.y),i.join(" ")}function xt(t,n,e,r){var i=arguments.length>4&&void 0!==arguments[4]?arguments[4]:1,u=wt(t,n,e,r),o=bt(u);try{return o(i)}catch(t){return null}}function At(t,n,e){return t+(n-t)*e}function kt(t,n,e){var r=arguments.length>3&&void 0!==arguments[3]&&arguments[3],i={x:At(t.x,n.x,e),y:At(t.y,n.y,e)};return r&&(i.a=_t(t,n)),i}function _t(t,n){return Math.atan2(n.y-t.y,n.x-t.x)}function St(t,n,e,r){var i=1-r;return i*i*t+2*i*r*n+r*r*e}function Ot(t,n,e,r){return 2*(1-r)*(n-t)+2*r*(e-n)}function jt(t,n,e,r){var i=arguments.length>4&&void 0!==arguments[4]&&arguments[4],u=xt(t,n,null,e,r);return u||(u={x:St(t.x,n.x,e.x,r),y:St(t.y,n.y,e.y,r)}),i&&(u.a=Mt(t,n,e,r)),u}function Mt(t,n,e,r){return Math.atan2(Ot(t.y,n.y,e.y,r),Ot(t.x,n.x,e.x,r))}function Pt(t,n,e,r,i){var u=i*i;return i*u*(r-t+3*(n-e))+3*u*(t+e-2*n)+3*i*(n-t)+t}function Et(t,n,e,r,i){var u=1-i;return 3*(u*u*(n-t)+2*u*i*(e-n)+i*i*(r-e))}function It(t,n,e,r,i){var u=arguments.length>5&&void 0!==arguments[5]&&arguments[5],o=xt(t,n,e,r,i);return o||(o={x:Pt(t.x,n.x,e.x,r.x,i),y:Pt(t.y,n.y,e.y,r.y,i)}),u&&(o.a=Rt(t,n,e,r,i)),o}function Rt(t,n,e,r,i){return Math.atan2(Et(t.y,n.y,e.y,r.y,i),Et(t.x,n.x,e.x,r.x,i))}function Ft(t,n,e){var r=arguments.length>3&&void 0!==arguments[3]&&arguments[3];if(Tt(n)){if(qt(e))return jt(n,e.start,e,t,r)}else if(Tt(e)){if(Bt(n))return jt(n,n.end,e,t,r)}else{if(Bt(n))return qt(e)?It(n,n.end,e.start,e,t,r):jt(n,n.end,e,t,r);if(qt(e))return jt(n,e.start,e,t,r)}return kt(n,e,t,r)}function Nt(t,n,e){var r=Ft(t,n,e,!0);return r.a=function(t){return arguments.length>1&&void 0!==arguments[1]&&arguments[1]?t+Math.PI:t}(r.a)/m,r}function Tt(t){return!t.type||"corner"===t.type}function qt(t){return null!=t.start&&!Tt(t)}function Bt(t){return null!=t.end&&!Tt(t)}var Lt=new N;var Ct={f:ft,i:q},Dt={f:ft,i:L};function zt(t,n,e){return t.map((function(t){return function(t,n,e){var r=t.v;if(!r||"g"!==r.t||r.s||!r.v||!r.r)return t;var i=e.getElementById(r.r),u=i&&i.querySelectorAll("stop")||[];return r.s=r.v.map((function(t,n){var e=u[n]&&u[n].getAttribute("offset");return{c:t,o:e=d(parseInt(e)/100)}})),delete r.v,t}(t,0,e)}))}var Vt={gt:"gradientTransform",c:{x:"cx",y:"cy"},rd:"r",f:{x:"x1",y:"y1"},to:{x:"x2",y:"y2"}};function Gt(t,n,r,i,u,o,a,l){return zt(t,0,l),n=function(t,n,e){for(var r,i,u,o=t.length-1,a={},l=0;l<=o;l++)(r=t[l]).e&&(r.e=n(r.e)),r.v&&"g"===(i=r.v).t&&i.r&&(u=e.getElementById(i.r))&&(a[i.r]={e:u,s:u.querySelectorAll("stop")});return a}(t,i,l),function(i){var u=r(i,t,Yt);if(!u)return"none";if("c"===u.t)return ht(u.v);if("g"===u.t){if(!n[u.r])return vt(u.r);var o=n[u.r];return function(t,n){for(var e=t.s,r=e.length;r<n.length;r++){var i=e[e.length-1].cloneNode();i.id=Qt(i.id),t.e.appendChild(i),e=t.s=t.e.querySelectorAll("stop")}for(var u=0,o=e.length,a=n.length-1;u<o;u++)e[u].setAttribute("stop-color",ht(n[Math.min(u,a)].c)),e[u].setAttribute("offset",n[Math.min(u,a)].o)}(o,u.s),Object.keys(Vt).forEach((function(t){if(void 0!==u[t])if("object"!==e(Vt[t])){var n,r="gt"===t?(n=u[t],Array.isArray(n)?"matrix("+n.join(" ")+")":""):u[t],i=Vt[t];o.e.setAttribute(i,r)}else Object.keys(Vt[t]).forEach((function(n){if(void 0!==u[t][n]){var e=u[t][n],r=Vt[t][n];o.e.setAttribute(r,e)}}))})),vt(u.r)}return"none"}}function Yt(t,e,r){if(0===t)return e;if(1===t)return r;if(e&&r){var i=e.t;if(i===r.t)switch(e.t){case"c":return{t:i,v:z(t,e.v,r.v)};case"g":if(e.r===r.r){var u={t:i,s:$t(t,e.s,r.s),r:e.r};return e.gt&&r.gt&&(u.gt=function(t,n,e){var r=n.length;if(r!==e.length)return T(t,n,e);for(var i=new Array(r),u=0;u<r;u++)i[u]=q(t,n[u],e[u]);return i}(t,e.gt,r.gt)),e.c?(u.c=C(t,e.c,r.c),u.rd=B(t,e.rd,r.rd)):e.f&&(u.f=C(t,e.f,r.f),u.to=C(t,e.to,r.to)),u}}if("c"===e.t&&"g"===r.t||"c"===r.t&&"g"===e.t){var o="c"===e.t?e:r,a="g"===e.t?n({},e):n({},r),l=a.s.map((function(t){return{c:o.v,o:t.o}}));return a.s="c"===e.t?$t(t,l,a.s):$t(t,a.s,l),a}}return T(t,e,r)}function $t(t,n,e){if(n.length===e.length)return n.map((function(n,r){return Ut(t,n,e[r])}));for(var r=Math.max(n.length,e.length),i=[],u=0;u<r;u++){var o=Ut(t,n[Math.min(u,n.length-1)],e[Math.min(u,e.length-1)]);i.push(o)}return i}function Ut(t,n,e){return{o:L(t,n.o,e.o||0),c:z(t,n.c,e.c||{})}}function Qt(t){return t.replace(/-fill-([0-9]+)$/,(function(t,n){return"-fill-"+(+n+1)}))}var Ht={fill:Gt,"fill-opacity":Dt,stroke:Gt,"stroke-opacity":Dt,"stroke-width":Ct,"stroke-dashoffset":{f:ft,i:q},"stroke-dasharray":{f:function(t){var n=arguments.length>1&&void 0!==arguments[1]?arguments[1]:" ";return t&&t.length>0&&(t=t.map((function(t){return d(t,4)}))),ct(t,n)},i:function(t,n,e){var r,i,u,o=n.length,a=e.length;if(o!==a)if(0===o)n=V(o=a,0);else if(0===a)a=o,e=V(o,0);else{var l=(u=(r=o)*(i=a)/function(t,n){for(var e;n;)e=n,n=t%n,t=e;return t||1}(r,i))<0?-u:u;n=G(n,Math.floor(l/o)),e=G(e,Math.floor(l/a)),o=a=l}for(var s=[],f=0;f<o;f++)s.push(d(B(t,n[f],e[f])));return s}},opacity:Dt,transform:function(t,n,r,i){if(!(t=function(t,n){if(!t||"object"!==e(t))return null;var r=!1;for(var i in t)t.hasOwnProperty(i)&&(t[i]&&t[i].length?(t[i].forEach((function(t){t.e&&(t.e=n(t.e))})),r=!0):delete t[i]);return r?t:null}(t,i)))return null;var u=function(e,i,u){var o=arguments.length>3&&void 0!==arguments[3]?arguments[3]:null;return t[e]?r(i,t[e],u):n&&n[e]?n[e]:o};return n&&n.a&&t.o?function(n){var e=r(n,t.o,Nt);return Lt.recomposeSelf(e,u("r",n,q,0)+e.a,u("k",n,C),u("s",n,C),u("t",n,C)).toString()}:function(t){return Lt.recomposeSelf(u("o",t,Ft,null),u("r",t,q,0),u("k",t,C),u("s",t,C),u("t",t,C)).toString()}},r:Ct,"#size":gt,"#radius":yt,_:function(t,n){if(Array.isArray(t))for(var e=0;e<t.length;e++)this[t[e]]=n;else this[t]=n}},Jt=function(t){!function(t,n){if("function"!=typeof n&&null!==n)throw new TypeError("Super expression must either be null or a function");t.prototype=Object.create(n&&n.prototype,{constructor:{value:t,writable:!0,configurable:!0}}),n&&l(t,n)}(o,t);var n,e,i=(n=o,e=s(),function(){var t,r=a(n);if(e){var i=a(this).constructor;t=Reflect.construct(r,arguments,i)}else t=r.apply(this,arguments);return c(this,t)});function o(){return r(this,o),i.apply(this,arguments)}return u(o,null,[{key:"build",value:function(t){var n=h(a(o),"build",this).call(this,t,Ht);if(!n)return null;n.el,n.options,function(t,n,e){t.play()}(n.player)}}]),o}(st);return Jt.init(),Jt}));
(function(s,i,o,w,a,b){w[o]=w[o]||{};w[o][s]=w[o][s]||[];w[o][s].push(i);})('5c7f360c',{"root":"eNe8AczFIVi1","version":"2022-05-04","animations":[{"elements":{"eNe8AczFIVi2":{"transform":{"data":{"t":{"x":-823.795959,"y":-594.298553}},"keys":{"o":[{"t":0,"v":{"x":823.795959,"y":594.298553,"type":"corner"}},{"t":1500,"v":{"x":823.795959,"y":606.298553,"type":"corner"}},{"t":2300,"v":{"x":823.795959,"y":609.298553,"type":"corner"}},{"t":3000,"v":{"x":823.795959,"y":594.298553,"type":"corner"}}],"r":[{"t":0,"v":0},{"t":1000,"v":-3.393146},{"t":3000,"v":0,"e":[0.42,0,1,1]}],"s":[{"t":0,"v":{"x":1,"y":1}},{"t":1100,"v":{"x":1,"y":1.05}},{"t":2000,"v":{"x":1,"y":0.95}},{"t":3000,"v":{"x":1,"y":1},"e":[0.645,0.045,0.355,1]}]}}},"eNe8AczFIVi3":{"transform":{"data":{"t":{"x":-768.822403,"y":-739.394379}},"keys":{"o":[{"t":0,"v":{"x":768.822403,"y":739.394379,"type":"corner"},"e":[0.42,0,0.58,1]},{"t":1500,"v":{"x":768.822403,"y":757.394379,"type":"corner"},"e":[0.42,0,0.58,1]},{"t":3000,"v":{"x":768.822403,"y":739.394379,"type":"corner"}}],"r":[{"t":0,"v":0,"e":[0.445,0.05,0.55,0.95]},{"t":1900,"v":2.298174,"e":[0.445,0.05,0.55,0.95]},{"t":3000,"v":0}],"s":[{"t":0,"v":{"x":1,"y":1},"e":[0.42,0,1,1]},{"t":1000,"v":{"x":1,"y":0.91},"e":[0.42,0,1,1]},{"t":3000,"v":{"x":1,"y":1}}]}}}},"s":"MDDA1MzlhNDE4Mzk0OTSE4MDkzODg4ZThkNDEL1OTUyNGY0ZjRmNGI0JMTgzODg5MTg0ODJZOPTM4ODhlOGQ0MTU5NTVA0YjQxODg5Mzg0OTEU4MEM5Mzg4OGU4ZDkyXNDE1OTRmNGI0MTg1VSDg4OGI4YjQxNTlCNTVA0YjQxODBXOGI5MzgG0QjkxOGQ4MDkzODQ0WMTU5ODU4MDhiOTI4NSDRiVjQxOTI4Zjg0ODPRKODM0MVY1OTUwOWMR/"}],"options":"MCDAxMDg4MmY4MDgxNmMU3ZjgxMmZUNDcyZjcE5N2M2ZTcxMmY4YQ|"},'__SVGATOR_PLAYER__',window)]]></script></svg>