<svg width="142" height="142" viewBox="0 0 142 142" fill="none" xmlns="http://www.w3.org/2000/svg">
<circle cx="71" cy="71" r="69" fill="#49517B" stroke="white" stroke-width="4"/>
<path d="M37.1936 97.126C36.1856 97.126 35.2856 96.916 34.4936 96.496C33.7136 96.064 33.1016 95.476 32.6576 94.732C32.2136 93.988 31.9916 93.142 31.9916 92.194C31.9916 91.234 32.2136 90.388 32.6576 89.656C33.1016 88.912 33.7136 88.33 34.4936 87.91C35.2856 87.49 36.1856 87.28 37.1936 87.28C38.1296 87.28 38.9516 87.472 39.6596 87.856C40.3796 88.228 40.9256 88.78 41.2976 89.512L39.5696 90.52C39.2816 90.064 38.9276 89.728 38.5076 89.512C38.0996 89.296 37.6556 89.188 37.1756 89.188C36.6236 89.188 36.1256 89.308 35.6816 89.548C35.2376 89.788 34.8896 90.136 34.6376 90.592C34.3856 91.036 34.2596 91.57 34.2596 92.194C34.2596 92.818 34.3856 93.358 34.6376 93.814C34.8896 94.258 35.2376 94.6 35.6816 94.84C36.1256 95.08 36.6236 95.2 37.1756 95.2C37.6556 95.2 38.0996 95.092 38.5076 94.876C38.9276 94.66 39.2816 94.324 39.5696 93.868L41.2976 94.876C40.9256 95.596 40.3796 96.154 39.6596 96.55C38.9516 96.934 38.1296 97.126 37.1936 97.126ZM41.6461 96.982L41.7541 95.092C41.8381 95.104 41.9161 95.116 41.9881 95.128C42.0601 95.14 42.1261 95.146 42.1861 95.146C42.5581 95.146 42.8461 95.032 43.0501 94.804C43.2541 94.576 43.4041 94.27 43.5001 93.886C43.6081 93.49 43.6801 93.052 43.7161 92.572C43.7641 92.08 43.8001 91.588 43.8241 91.096L43.9861 87.388H51.7621V97H49.5121V88.684L50.0341 89.296H45.4621L45.9481 88.666L45.8221 91.204C45.7861 92.056 45.7141 92.848 45.6061 93.58C45.5101 94.3 45.3541 94.93 45.1381 95.47C44.9341 96.01 44.6461 96.43 44.2741 96.73C43.9141 97.03 43.4521 97.18 42.8881 97.18C42.7081 97.18 42.5101 97.162 42.2941 97.126C42.0901 97.09 41.8741 97.042 41.6461 96.982ZM55.6563 100.618C55.1883 100.618 54.7203 100.54 54.2523 100.384C53.7843 100.228 53.3943 100.012 53.0823 99.736L53.9823 98.08C54.2103 98.284 54.4683 98.446 54.7563 98.566C55.0443 98.686 55.3383 98.746 55.6383 98.746C56.0463 98.746 56.3763 98.644 56.6283 98.44C56.8803 98.236 57.1143 97.894 57.3303 97.414L57.8883 96.154L58.0683 95.884L61.7043 87.388H63.8643L59.3643 97.774C59.0643 98.494 58.7283 99.064 58.3563 99.484C57.9963 99.904 57.5883 100.198 57.1323 100.366C56.6883 100.534 56.1963 100.618 55.6563 100.618ZM57.6363 97.342L53.2983 87.388H55.6383L59.1663 95.686L57.6363 97.342ZM71.889 95.092L71.403 95.632V87.388H73.653V95.632L73.113 95.092H77.865L77.343 95.632V87.388H79.593V97H65.427V87.388H67.677V95.632L67.155 95.092H71.889ZM88.4504 97V95.056L88.3244 94.642V91.24C88.3244 90.58 88.1264 90.07 87.7304 89.71C87.3344 89.338 86.7344 89.152 85.9304 89.152C85.3904 89.152 84.8564 89.236 84.3284 89.404C83.8124 89.572 83.3744 89.806 83.0144 90.106L82.1324 88.468C82.6484 88.072 83.2604 87.778 83.9684 87.586C84.6884 87.382 85.4324 87.28 86.2004 87.28C87.5924 87.28 88.6664 87.616 89.4224 88.288C90.1904 88.948 90.5744 89.974 90.5744 91.366V97H88.4504ZM85.4264 97.126C84.7064 97.126 84.0764 97.006 83.5364 96.766C82.9964 96.514 82.5764 96.172 82.2764 95.74C81.9884 95.296 81.8444 94.798 81.8444 94.246C81.8444 93.706 81.9704 93.22 82.2224 92.788C82.4864 92.356 82.9124 92.014 83.5004 91.762C84.0884 91.51 84.8684 91.384 85.8404 91.384H88.6304V92.878H86.0024C85.2344 92.878 84.7184 93.004 84.4544 93.256C84.1904 93.496 84.0584 93.796 84.0584 94.156C84.0584 94.564 84.2204 94.888 84.5444 95.128C84.8684 95.368 85.3184 95.488 85.8944 95.488C86.4464 95.488 86.9384 95.362 87.3704 95.11C87.8144 94.858 88.1324 94.486 88.3244 93.994L88.7024 95.344C88.4864 95.908 88.0964 96.346 87.5324 96.658C86.9804 96.97 86.2784 97.126 85.4264 97.126ZM95.3567 97V88.756L95.8787 89.296H91.9727V87.388H100.973V89.296H97.0847L97.6067 88.756V97H95.3567ZM107.429 90.556C108.665 90.556 109.607 90.832 110.255 91.384C110.903 91.936 111.227 92.716 111.227 93.724C111.227 94.768 110.867 95.584 110.147 96.172C109.427 96.748 108.413 97.03 107.105 97.018L102.605 97V87.388H104.855V90.538L107.429 90.556ZM106.907 95.362C107.567 95.374 108.071 95.236 108.419 94.948C108.767 94.66 108.941 94.24 108.941 93.688C108.941 93.136 108.767 92.74 108.419 92.5C108.083 92.248 107.579 92.116 106.907 92.104L104.855 92.086V95.344L106.907 95.362Z" fill="white"/>
<path d="M46 62.2253V54.131C46 53.5943 46.2132 53.0796 46.5927 52.7001C46.9722 52.3206 47.4869 52.1074 48.0236 52.1074H53.4811C53.8809 52.1075 54.2716 51.9892 54.6042 51.7675L63.089 46.1096C63.3941 45.906 63.7487 45.7892 64.115 45.7716C64.4812 45.754 64.8454 45.8363 65.1686 46.0096C65.4917 46.1829 65.7617 46.4408 65.9497 46.7556C66.1376 47.0705 66.2365 47.4305 66.2357 47.7972V68.559C66.2357 68.9254 66.1363 69.2849 65.9481 69.5992C65.7598 69.9134 65.4898 70.1707 65.1668 70.3436C64.8438 70.5164 64.4799 70.5983 64.1139 70.5805C63.748 70.5627 63.3938 70.446 63.089 70.2426L54.6042 64.5868C54.2714 64.3657 53.8806 64.2481 53.4811 64.2488H48.0236C47.4869 64.2488 46.9722 64.0356 46.5927 63.6561C46.2132 63.2766 46 62.7619 46 62.2253V62.2253Z" stroke="white" stroke-width="4"/>
<path d="M75.3418 49.0707C75.3418 49.0707 78.3771 52.1061 78.3771 57.165C78.3771 62.2239 75.3418 65.2593 75.3418 65.2593M81.4125 43C81.4125 43 86.4714 48.0589 86.4714 57.165C86.4714 66.2711 81.4125 71.33 81.4125 71.33" stroke="white" stroke-width="4" stroke-linecap="round" stroke-linejoin="round"/>
</svg>
