<svg width="142" height="142" viewBox="0 0 142 142" fill="none" xmlns="http://www.w3.org/2000/svg">
<circle cx="71" cy="71" r="69" fill="#49517B" stroke="#008BD2" stroke-width="4"/>
<path d="M46 62.2253V54.131C46 53.5943 46.2132 53.0796 46.5927 52.7001C46.9722 52.3206 47.4869 52.1074 48.0236 52.1074H53.4811C53.8809 52.1075 54.2716 51.9892 54.6042 51.7675L63.089 46.1096C63.3941 45.906 63.7487 45.7892 64.115 45.7716C64.4812 45.754 64.8454 45.8363 65.1686 46.0096C65.4917 46.1829 65.7617 46.4408 65.9497 46.7556C66.1376 47.0705 66.2365 47.4305 66.2357 47.7972V68.559C66.2357 68.9254 66.1363 69.2849 65.9481 69.5992C65.7598 69.9134 65.4898 70.1707 65.1668 70.3436C64.8438 70.5164 64.4799 70.5983 64.1139 70.5805C63.748 70.5627 63.3938 70.446 63.089 70.2426L54.6042 64.5868C54.2714 64.3657 53.8806 64.2481 53.4811 64.2488H48.0236C47.4869 64.2488 46.9722 64.0356 46.5927 63.6561C46.2132 63.2766 46 62.7619 46 62.2253V62.2253Z" stroke="#008BD2" stroke-width="4"/>
<path d="M75.3418 49.0707C75.3418 49.0707 78.3771 52.1061 78.3771 57.165C78.3771 62.2239 75.3418 65.2593 75.3418 65.2593M81.4125 43C81.4125 43 86.4714 48.0589 86.4714 57.165C86.4714 66.2711 81.4125 71.33 81.4125 71.33" stroke="#008BD2" stroke-width="4" stroke-linecap="round" stroke-linejoin="round"/>
<path d="M21.9786 97.126C20.9946 97.126 20.1186 96.916 19.3506 96.496C18.5826 96.064 17.9766 95.476 17.5326 94.732C17.0886 93.988 16.8666 93.142 16.8666 92.194C16.8666 91.234 17.0886 90.388 17.5326 89.656C17.9766 88.912 18.5826 88.33 19.3506 87.91C20.1186 87.49 20.9946 87.28 21.9786 87.28C22.9746 87.28 23.8566 87.49 24.6246 87.91C25.4046 88.33 26.0106 88.906 26.4426 89.638C26.8866 90.37 27.1086 91.222 27.1086 92.194C27.1086 93.142 26.8866 93.988 26.4426 94.732C26.0106 95.476 25.4046 96.064 24.6246 96.496C23.8566 96.916 22.9746 97.126 21.9786 97.126ZM21.9786 95.2C22.5306 95.2 23.0226 95.08 23.4546 94.84C23.8866 94.6 24.2226 94.252 24.4626 93.796C24.7146 93.34 24.8406 92.806 24.8406 92.194C24.8406 91.57 24.7146 91.036 24.4626 90.592C24.2226 90.136 23.8866 89.788 23.4546 89.548C23.0226 89.308 22.5366 89.188 21.9966 89.188C21.4446 89.188 20.9526 89.308 20.5206 89.548C20.1006 89.788 19.7646 90.136 19.5126 90.592C19.2606 91.036 19.1346 91.57 19.1346 92.194C19.1346 92.806 19.2606 93.34 19.5126 93.796C19.7646 94.252 20.1006 94.6 20.5206 94.84C20.9526 95.08 21.4386 95.2 21.9786 95.2ZM33.7053 97.126C32.6973 97.126 31.7973 96.916 31.0053 96.496C30.2253 96.064 29.6133 95.476 29.1693 94.732C28.7253 93.988 28.5033 93.142 28.5033 92.194C28.5033 91.234 28.7253 90.388 29.1693 89.656C29.6133 88.912 30.2253 88.33 31.0053 87.91C31.7973 87.49 32.6973 87.28 33.7053 87.28C34.6413 87.28 35.4633 87.472 36.1713 87.856C36.8913 88.228 37.4373 88.78 37.8093 89.512L36.0813 90.52C35.7933 90.064 35.4393 89.728 35.0193 89.512C34.6113 89.296 34.1673 89.188 33.6873 89.188C33.1353 89.188 32.6373 89.308 32.1933 89.548C31.7493 89.788 31.4013 90.136 31.1493 90.592C30.8973 91.036 30.7713 91.57 30.7713 92.194C30.7713 92.818 30.8973 93.358 31.1493 93.814C31.4013 94.258 31.7493 94.6 32.1933 94.84C32.6373 95.08 33.1353 95.2 33.6873 95.2C34.1673 95.2 34.6113 95.092 35.0193 94.876C35.4393 94.66 35.7933 94.324 36.0813 93.868L37.8093 94.876C37.4373 95.596 36.8913 96.154 36.1713 96.55C35.4633 96.934 34.6413 97.126 33.7053 97.126ZM41.718 97V88.756L42.24 89.296H38.334V87.388H47.334V89.296H43.446L43.968 88.756V97H41.718ZM54.7981 97V95.056L54.6721 94.642V91.24C54.6721 90.58 54.4741 90.07 54.0781 89.71C53.6821 89.338 53.0821 89.152 52.2781 89.152C51.7381 89.152 51.2041 89.236 50.6761 89.404C50.1601 89.572 49.7221 89.806 49.3621 90.106L48.4801 88.468C48.9961 88.072 49.6081 87.778 50.3161 87.586C51.0361 87.382 51.7801 87.28 52.5481 87.28C53.9401 87.28 55.0141 87.616 55.7701 88.288C56.5381 88.948 56.9221 89.974 56.9221 91.366V97H54.7981ZM51.7741 97.126C51.0541 97.126 50.4241 97.006 49.8841 96.766C49.3441 96.514 48.9241 96.172 48.6241 95.74C48.3361 95.296 48.1921 94.798 48.1921 94.246C48.1921 93.706 48.3181 93.22 48.5701 92.788C48.8341 92.356 49.2601 92.014 49.8481 91.762C50.4361 91.51 51.2161 91.384 52.1881 91.384H54.9781V92.878H52.3501C51.5821 92.878 51.0661 93.004 50.8021 93.256C50.5381 93.496 50.4061 93.796 50.4061 94.156C50.4061 94.564 50.5681 94.888 50.8921 95.128C51.2161 95.368 51.6661 95.488 52.2421 95.488C52.7941 95.488 53.2861 95.362 53.7181 95.11C54.1621 94.858 54.4801 94.486 54.6721 93.994L55.0501 95.344C54.8341 95.908 54.4441 96.346 53.8801 96.658C53.3281 96.97 52.6261 97.126 51.7741 97.126ZM59.7063 97V87.388H61.9563V91.294H66.7983V87.388H69.0483V97H66.7983V93.202H61.9563V97H59.7063ZM76.3478 97.126C75.3638 97.126 74.4878 96.916 73.7198 96.496C72.9518 96.064 72.3458 95.476 71.9018 94.732C71.4578 93.988 71.2358 93.142 71.2358 92.194C71.2358 91.234 71.4578 90.388 71.9018 89.656C72.3458 88.912 72.9518 88.33 73.7198 87.91C74.4878 87.49 75.3638 87.28 76.3478 87.28C77.3438 87.28 78.2258 87.49 78.9938 87.91C79.7738 88.33 80.3798 88.906 80.8118 89.638C81.2558 90.37 81.4778 91.222 81.4778 92.194C81.4778 93.142 81.2558 93.988 80.8118 94.732C80.3798 95.476 79.7738 96.064 78.9938 96.496C78.2258 96.916 77.3438 97.126 76.3478 97.126ZM76.3478 95.2C76.8998 95.2 77.3918 95.08 77.8238 94.84C78.2558 94.6 78.5918 94.252 78.8318 93.796C79.0838 93.34 79.2098 92.806 79.2098 92.194C79.2098 91.57 79.0838 91.036 78.8318 90.592C78.5918 90.136 78.2558 89.788 77.8238 89.548C77.3918 89.308 76.9058 89.188 76.3658 89.188C75.8138 89.188 75.3218 89.308 74.8898 89.548C74.4698 89.788 74.1338 90.136 73.8818 90.592C73.6298 91.036 73.5038 91.57 73.5038 92.194C73.5038 92.806 73.6298 93.34 73.8818 93.796C74.1338 94.252 74.4698 94.6 74.8898 94.84C75.3218 95.08 75.8078 95.2 76.3478 95.2ZM83.7005 97V87.388H88.3985C89.5625 87.388 90.4745 87.604 91.1345 88.036C91.8065 88.468 92.1425 89.08 92.1425 89.872C92.1425 90.652 91.8305 91.264 91.2065 91.708C90.5825 92.14 89.7545 92.356 88.7225 92.356L88.9925 91.798C90.1565 91.798 91.0205 92.014 91.5845 92.446C92.1605 92.866 92.4485 93.484 92.4485 94.3C92.4485 95.152 92.1305 95.818 91.4945 96.298C90.8585 96.766 89.8925 97 88.5965 97H83.7005ZM85.8425 95.362H88.4165C89.0285 95.362 89.4905 95.266 89.8025 95.074C90.1145 94.87 90.2705 94.564 90.2705 94.156C90.2705 93.724 90.1265 93.406 89.8385 93.202C89.5505 92.998 89.1005 92.896 88.4885 92.896H85.8425V95.362ZM85.8425 91.402H88.2005C88.7765 91.402 89.2085 91.3 89.4965 91.096C89.7965 90.88 89.9465 90.58 89.9465 90.196C89.9465 89.8 89.7965 89.506 89.4965 89.314C89.2085 89.122 88.7765 89.026 88.2005 89.026H85.8425V91.402ZM94.845 97V87.388H97.095V93.724L102.405 87.388H104.457V97H102.207V90.664L96.915 97H94.845ZM109.482 97V88.756L110.004 89.296H106.098V87.388H115.098V89.296H111.21L111.732 88.756V97H109.482ZM121.554 90.556C122.79 90.556 123.732 90.832 124.38 91.384C125.028 91.936 125.352 92.716 125.352 93.724C125.352 94.768 124.992 95.584 124.272 96.172C123.552 96.748 122.538 97.03 121.23 97.018L116.73 97V87.388H118.98V90.538L121.554 90.556ZM121.032 95.362C121.692 95.374 122.196 95.236 122.544 94.948C122.892 94.66 123.066 94.24 123.066 93.688C123.066 93.136 122.892 92.74 122.544 92.5C122.208 92.248 121.704 92.116 121.032 92.104L118.98 92.086V95.344L121.032 95.362Z" fill="#008BD2"/>
</svg>
