<svg width="787" height="312" viewBox="0 0 787 312" fill="none" xmlns="http://www.w3.org/2000/svg">
<g filter="url(#filter0_d_281_8)">
<mask id="path-1-outside-1_281_8" maskUnits="userSpaceOnUse" x="20.3846" y="5.87988" width="746" height="271" fill="black">
<rect fill="white" x="20.3846" y="5.87988" width="746" height="271"/>
<path d="M75.5496 107.62C68.2596 107.62 61.4646 106.45 55.1646 104.11C48.9546 101.68 43.5546 98.2599 38.9646 93.8499C34.3746 89.4399 30.7746 84.2649 28.1646 78.3249C25.6446 72.3849 24.3846 65.8599 24.3846 58.7499C24.3846 51.6399 25.6446 45.1149 28.1646 39.1749C30.7746 33.2349 34.3746 28.0599 38.9646 23.6499C43.6446 19.2399 49.0896 15.8649 55.2996 13.5249C61.5096 11.0949 68.3046 9.87988 75.6846 9.87988C83.8746 9.87988 91.2547 11.3199 97.8246 14.1999C104.485 16.9899 110.065 21.1299 114.565 26.6199L100.525 39.5799C97.2846 35.8899 93.6846 33.1449 89.7246 31.3449C85.7646 29.4549 81.4446 28.5099 76.7646 28.5099C72.3546 28.5099 68.3046 29.2299 64.6146 30.6699C60.9246 32.1099 57.7296 34.1799 55.0296 36.8799C52.3296 39.5799 50.2146 42.7749 48.6846 46.4649C47.2446 50.1549 46.5246 54.2499 46.5246 58.7499C46.5246 63.2499 47.2446 67.3449 48.6846 71.0349C50.2146 74.7249 52.3296 77.9199 55.0296 80.6199C57.7296 83.3199 60.9246 85.3899 64.6146 86.8299C68.3046 88.2699 72.3546 88.9899 76.7646 88.9899C81.4446 88.9899 85.7646 88.0899 89.7246 86.2899C93.6846 84.3999 97.2846 81.5649 100.525 77.7849L114.565 90.7449C110.065 96.2349 104.485 100.42 97.8246 103.3C91.2547 106.18 83.8296 107.62 75.5496 107.62Z"/>
<path d="M172.066 107.62C164.596 107.62 157.666 106.405 151.276 103.975C144.976 101.545 139.486 98.1249 134.806 93.7149C130.216 89.3049 126.616 84.1299 124.006 78.1899C121.486 72.2499 120.226 65.7699 120.226 58.7499C120.226 51.7299 121.486 45.2499 124.006 39.3099C126.616 33.3699 130.261 28.1949 134.941 23.7849C139.621 19.3749 145.111 15.9549 151.411 13.5249C157.711 11.0949 164.551 9.87988 171.931 9.87988C179.401 9.87988 186.241 11.0949 192.451 13.5249C198.751 15.9549 204.196 19.3749 208.786 23.7849C213.466 28.1949 217.111 33.3699 219.721 39.3099C222.331 45.1599 223.636 51.6399 223.636 58.7499C223.636 65.7699 222.331 72.2949 219.721 78.3249C217.111 84.2649 213.466 89.4399 208.786 93.8499C204.196 98.1699 198.751 101.545 192.451 103.975C186.241 106.405 179.446 107.62 172.066 107.62ZM171.931 88.9899C176.161 88.9899 180.031 88.2699 183.541 86.8299C187.141 85.3899 190.291 83.3199 192.991 80.6199C195.691 77.9199 197.761 74.7249 199.201 71.0349C200.731 67.3449 201.496 63.2499 201.496 58.7499C201.496 54.2499 200.731 50.1549 199.201 46.4649C197.761 42.7749 195.691 39.5799 192.991 36.8799C190.381 34.1799 187.276 32.1099 183.676 30.6699C180.076 29.2299 176.161 28.5099 171.931 28.5099C167.701 28.5099 163.786 29.2299 160.186 30.6699C156.676 32.1099 153.571 34.1799 150.871 36.8799C148.171 39.5799 146.056 42.7749 144.526 46.4649C143.086 50.1549 142.366 54.2499 142.366 58.7499C142.366 63.1599 143.086 67.2549 144.526 71.0349C146.056 74.7249 148.126 77.9199 150.736 80.6199C153.436 83.3199 156.586 85.3899 160.186 86.8299C163.786 88.2699 167.701 88.9899 171.931 88.9899Z"/>
<path d="M238.792 107.485C237.172 107.485 235.462 107.35 233.662 107.08C231.952 106.81 230.062 106.45 227.992 106L229.342 87.5049C230.602 87.8649 231.907 88.0449 233.257 88.0449C236.947 88.0449 239.827 86.5599 241.897 83.5899C243.967 80.5299 245.452 76.1649 246.352 70.4949C247.252 64.8249 247.837 57.9399 248.107 49.8399L249.457 11.4999H322.087V106H300.487V24.3249L305.482 29.3199H263.767L268.222 24.0549L267.412 49.0299C267.142 58.2999 266.512 66.5349 265.522 73.7349C264.532 80.9349 263.002 87.0549 260.932 92.0949C258.862 97.1349 256.027 100.96 252.427 103.57C248.827 106.18 244.282 107.485 238.792 107.485Z"/>
<path d="M407.67 96.2799V29.3199H375.27L374.865 43.0899C374.595 48.9399 374.19 54.4749 373.65 59.6949C373.2 64.9149 372.48 69.6849 371.49 74.0049C370.5 78.2349 369.195 81.8349 367.575 84.8049C366.045 87.7749 364.11 89.8899 361.77 91.1499L338.415 88.1799C341.655 88.2699 344.31 87.1449 346.38 84.8049C348.54 82.4649 350.25 79.1799 351.51 74.9499C352.77 70.6299 353.67 65.5899 354.21 59.8299C354.84 54.0699 355.29 47.8149 355.56 41.0649L356.64 11.4999H429.27V96.2799H407.67ZM335.31 125.575L335.445 88.1799H442.5V125.575H422.25V106H355.56V125.575H335.31Z"/>
<path d="M447.084 106L489.204 11.4999H510.804L553.059 106H530.109L495.549 22.5699H504.189L469.494 106H447.084ZM468.144 85.7499L473.949 69.1449H522.549L528.489 85.7499H468.144Z"/>
<path d="M581.23 106V24.3249L586.225 29.3199H551.125V11.4999H633.07V29.3199H597.97L602.83 24.3249V106H581.23Z"/>
<path d="M692.567 42.5499C703.997 42.5499 712.817 45.1149 719.027 50.2449C725.237 55.2849 728.342 62.8899 728.342 73.0599C728.342 83.8599 724.877 92.0499 717.947 97.6299C711.107 103.21 701.612 106 689.462 106H646.802V11.4999H668.537V42.5499H692.567ZM688.247 89.7999C693.827 89.7999 698.237 88.4049 701.477 85.6149C704.717 82.8249 706.337 78.7749 706.337 73.4649C706.337 68.2449 704.717 64.5099 701.477 62.2599C698.327 59.9199 693.917 58.7499 688.247 58.7499H668.537V89.7999H688.247ZM740.357 106V11.4999H762.092V106H740.357Z"/>
<path d="M121.106 271V176.5H165.116C176.096 176.5 184.646 178.615 190.766 182.845C196.886 187.075 199.946 193.105 199.946 200.935C199.946 208.675 197.066 214.705 191.306 219.025C185.546 223.255 177.896 225.37 168.356 225.37L170.921 219.7C181.541 219.7 189.776 221.815 195.626 226.045C201.476 230.275 204.401 236.395 204.401 244.405C204.401 252.685 201.251 259.21 194.951 263.98C188.741 268.66 179.651 271 167.681 271H121.106ZM142.841 254.8H166.871C171.911 254.8 175.736 253.81 178.346 251.83C180.956 249.85 182.261 246.79 182.261 242.65C182.261 238.69 180.956 235.765 178.346 233.875C175.736 231.895 171.911 230.905 166.871 230.905H142.841V254.8ZM142.841 215.65H163.226C167.996 215.65 171.596 214.705 174.026 212.815C176.456 210.835 177.671 207.955 177.671 204.175C177.671 200.395 176.456 197.56 174.026 195.67C171.596 193.69 167.996 192.7 163.226 192.7H142.841V215.65Z"/>
<path d="M266.922 272.62C259.452 272.62 252.522 271.405 246.132 268.975C239.832 266.545 234.342 263.125 229.662 258.715C225.072 254.305 221.472 249.13 218.862 243.19C216.342 237.25 215.082 230.77 215.082 223.75C215.082 216.73 216.342 210.25 218.862 204.31C221.472 198.37 225.117 193.195 229.797 188.785C234.477 184.375 239.967 180.955 246.267 178.525C252.567 176.095 259.407 174.88 266.787 174.88C274.257 174.88 281.097 176.095 287.307 178.525C293.607 180.955 299.052 184.375 303.642 188.785C308.322 193.195 311.967 198.37 314.577 204.31C317.187 210.16 318.492 216.64 318.492 223.75C318.492 230.77 317.187 237.295 314.577 243.325C311.967 249.265 308.322 254.44 303.642 258.85C299.052 263.17 293.607 266.545 287.307 268.975C281.097 271.405 274.302 272.62 266.922 272.62ZM266.787 253.99C271.017 253.99 274.887 253.27 278.397 251.83C281.997 250.39 285.147 248.32 287.847 245.62C290.547 242.92 292.617 239.725 294.057 236.035C295.587 232.345 296.352 228.25 296.352 223.75C296.352 219.25 295.587 215.155 294.057 211.465C292.617 207.775 290.547 204.58 287.847 201.88C285.237 199.18 282.132 197.11 278.532 195.67C274.932 194.23 271.017 193.51 266.787 193.51C262.557 193.51 258.642 194.23 255.042 195.67C251.532 197.11 248.427 199.18 245.727 201.88C243.027 204.58 240.912 207.775 239.382 211.465C237.942 215.155 237.222 219.25 237.222 223.75C237.222 228.16 237.942 232.255 239.382 236.035C240.912 239.725 242.982 242.92 245.592 245.62C248.292 248.32 251.442 250.39 255.042 251.83C258.642 253.27 262.557 253.99 266.787 253.99Z"/>
<path d="M335.34 271V176.5H357.075V238.06L402.165 176.5H422.685V271H401.085V209.575L355.995 271H335.34ZM378.945 170.425C369.945 170.425 363.33 168.625 359.1 165.025C354.96 161.425 352.845 156.34 352.755 149.77H367.74C367.83 153.01 368.775 155.485 370.575 157.195C372.465 158.815 375.255 159.625 378.945 159.625C382.545 159.625 385.29 158.815 387.18 157.195C389.07 155.485 390.06 153.01 390.15 149.77H405.135C405.045 156.34 402.885 161.425 398.655 165.025C394.425 168.625 387.855 170.425 378.945 170.425Z"/>
<path d="M511.014 176.5H532.884V271H511.014V176.5ZM468.084 271H446.214V176.5H468.084V271ZM512.634 232.255H466.464V213.76H512.634V232.255Z"/>
<path d="M602.325 207.55C613.755 207.55 622.575 210.115 628.785 215.245C634.995 220.285 638.1 227.89 638.1 238.06C638.1 248.86 634.635 257.05 627.705 262.63C620.865 268.21 611.37 271 599.22 271H556.56V176.5H578.295V207.55H602.325ZM598.005 254.8C603.585 254.8 607.995 253.405 611.235 250.615C614.475 247.825 616.095 243.775 616.095 238.465C616.095 233.245 614.475 229.51 611.235 227.26C608.085 224.92 603.675 223.75 598.005 223.75H578.295V254.8H598.005ZM650.115 271V176.5H671.85V271H650.115Z"/>
</mask>
<path d="M75.5496 107.62C68.2596 107.62 61.4646 106.45 55.1646 104.11C48.9546 101.68 43.5546 98.2599 38.9646 93.8499C34.3746 89.4399 30.7746 84.2649 28.1646 78.3249C25.6446 72.3849 24.3846 65.8599 24.3846 58.7499C24.3846 51.6399 25.6446 45.1149 28.1646 39.1749C30.7746 33.2349 34.3746 28.0599 38.9646 23.6499C43.6446 19.2399 49.0896 15.8649 55.2996 13.5249C61.5096 11.0949 68.3046 9.87988 75.6846 9.87988C83.8746 9.87988 91.2547 11.3199 97.8246 14.1999C104.485 16.9899 110.065 21.1299 114.565 26.6199L100.525 39.5799C97.2846 35.8899 93.6846 33.1449 89.7246 31.3449C85.7646 29.4549 81.4446 28.5099 76.7646 28.5099C72.3546 28.5099 68.3046 29.2299 64.6146 30.6699C60.9246 32.1099 57.7296 34.1799 55.0296 36.8799C52.3296 39.5799 50.2146 42.7749 48.6846 46.4649C47.2446 50.1549 46.5246 54.2499 46.5246 58.7499C46.5246 63.2499 47.2446 67.3449 48.6846 71.0349C50.2146 74.7249 52.3296 77.9199 55.0296 80.6199C57.7296 83.3199 60.9246 85.3899 64.6146 86.8299C68.3046 88.2699 72.3546 88.9899 76.7646 88.9899C81.4446 88.9899 85.7646 88.0899 89.7246 86.2899C93.6846 84.3999 97.2846 81.5649 100.525 77.7849L114.565 90.7449C110.065 96.2349 104.485 100.42 97.8246 103.3C91.2547 106.18 83.8296 107.62 75.5496 107.62Z" fill="white"/>
<path d="M172.066 107.62C164.596 107.62 157.666 106.405 151.276 103.975C144.976 101.545 139.486 98.1249 134.806 93.7149C130.216 89.3049 126.616 84.1299 124.006 78.1899C121.486 72.2499 120.226 65.7699 120.226 58.7499C120.226 51.7299 121.486 45.2499 124.006 39.3099C126.616 33.3699 130.261 28.1949 134.941 23.7849C139.621 19.3749 145.111 15.9549 151.411 13.5249C157.711 11.0949 164.551 9.87988 171.931 9.87988C179.401 9.87988 186.241 11.0949 192.451 13.5249C198.751 15.9549 204.196 19.3749 208.786 23.7849C213.466 28.1949 217.111 33.3699 219.721 39.3099C222.331 45.1599 223.636 51.6399 223.636 58.7499C223.636 65.7699 222.331 72.2949 219.721 78.3249C217.111 84.2649 213.466 89.4399 208.786 93.8499C204.196 98.1699 198.751 101.545 192.451 103.975C186.241 106.405 179.446 107.62 172.066 107.62ZM171.931 88.9899C176.161 88.9899 180.031 88.2699 183.541 86.8299C187.141 85.3899 190.291 83.3199 192.991 80.6199C195.691 77.9199 197.761 74.7249 199.201 71.0349C200.731 67.3449 201.496 63.2499 201.496 58.7499C201.496 54.2499 200.731 50.1549 199.201 46.4649C197.761 42.7749 195.691 39.5799 192.991 36.8799C190.381 34.1799 187.276 32.1099 183.676 30.6699C180.076 29.2299 176.161 28.5099 171.931 28.5099C167.701 28.5099 163.786 29.2299 160.186 30.6699C156.676 32.1099 153.571 34.1799 150.871 36.8799C148.171 39.5799 146.056 42.7749 144.526 46.4649C143.086 50.1549 142.366 54.2499 142.366 58.7499C142.366 63.1599 143.086 67.2549 144.526 71.0349C146.056 74.7249 148.126 77.9199 150.736 80.6199C153.436 83.3199 156.586 85.3899 160.186 86.8299C163.786 88.2699 167.701 88.9899 171.931 88.9899Z" fill="white"/>
<path d="M238.792 107.485C237.172 107.485 235.462 107.35 233.662 107.08C231.952 106.81 230.062 106.45 227.992 106L229.342 87.5049C230.602 87.8649 231.907 88.0449 233.257 88.0449C236.947 88.0449 239.827 86.5599 241.897 83.5899C243.967 80.5299 245.452 76.1649 246.352 70.4949C247.252 64.8249 247.837 57.9399 248.107 49.8399L249.457 11.4999H322.087V106H300.487V24.3249L305.482 29.3199H263.767L268.222 24.0549L267.412 49.0299C267.142 58.2999 266.512 66.5349 265.522 73.7349C264.532 80.9349 263.002 87.0549 260.932 92.0949C258.862 97.1349 256.027 100.96 252.427 103.57C248.827 106.18 244.282 107.485 238.792 107.485Z" fill="white"/>
<path d="M407.67 96.2799V29.3199H375.27L374.865 43.0899C374.595 48.9399 374.19 54.4749 373.65 59.6949C373.2 64.9149 372.48 69.6849 371.49 74.0049C370.5 78.2349 369.195 81.8349 367.575 84.8049C366.045 87.7749 364.11 89.8899 361.77 91.1499L338.415 88.1799C341.655 88.2699 344.31 87.1449 346.38 84.8049C348.54 82.4649 350.25 79.1799 351.51 74.9499C352.77 70.6299 353.67 65.5899 354.21 59.8299C354.84 54.0699 355.29 47.8149 355.56 41.0649L356.64 11.4999H429.27V96.2799H407.67ZM335.31 125.575L335.445 88.1799H442.5V125.575H422.25V106H355.56V125.575H335.31Z" fill="white"/>
<path d="M447.084 106L489.204 11.4999H510.804L553.059 106H530.109L495.549 22.5699H504.189L469.494 106H447.084ZM468.144 85.7499L473.949 69.1449H522.549L528.489 85.7499H468.144Z" fill="white"/>
<path d="M581.23 106V24.3249L586.225 29.3199H551.125V11.4999H633.07V29.3199H597.97L602.83 24.3249V106H581.23Z" fill="white"/>
<path d="M692.567 42.5499C703.997 42.5499 712.817 45.1149 719.027 50.2449C725.237 55.2849 728.342 62.8899 728.342 73.0599C728.342 83.8599 724.877 92.0499 717.947 97.6299C711.107 103.21 701.612 106 689.462 106H646.802V11.4999H668.537V42.5499H692.567ZM688.247 89.7999C693.827 89.7999 698.237 88.4049 701.477 85.6149C704.717 82.8249 706.337 78.7749 706.337 73.4649C706.337 68.2449 704.717 64.5099 701.477 62.2599C698.327 59.9199 693.917 58.7499 688.247 58.7499H668.537V89.7999H688.247ZM740.357 106V11.4999H762.092V106H740.357Z" fill="white"/>
<path d="M121.106 271V176.5H165.116C176.096 176.5 184.646 178.615 190.766 182.845C196.886 187.075 199.946 193.105 199.946 200.935C199.946 208.675 197.066 214.705 191.306 219.025C185.546 223.255 177.896 225.37 168.356 225.37L170.921 219.7C181.541 219.7 189.776 221.815 195.626 226.045C201.476 230.275 204.401 236.395 204.401 244.405C204.401 252.685 201.251 259.21 194.951 263.98C188.741 268.66 179.651 271 167.681 271H121.106ZM142.841 254.8H166.871C171.911 254.8 175.736 253.81 178.346 251.83C180.956 249.85 182.261 246.79 182.261 242.65C182.261 238.69 180.956 235.765 178.346 233.875C175.736 231.895 171.911 230.905 166.871 230.905H142.841V254.8ZM142.841 215.65H163.226C167.996 215.65 171.596 214.705 174.026 212.815C176.456 210.835 177.671 207.955 177.671 204.175C177.671 200.395 176.456 197.56 174.026 195.67C171.596 193.69 167.996 192.7 163.226 192.7H142.841V215.65Z" fill="white"/>
<path d="M266.922 272.62C259.452 272.62 252.522 271.405 246.132 268.975C239.832 266.545 234.342 263.125 229.662 258.715C225.072 254.305 221.472 249.13 218.862 243.19C216.342 237.25 215.082 230.77 215.082 223.75C215.082 216.73 216.342 210.25 218.862 204.31C221.472 198.37 225.117 193.195 229.797 188.785C234.477 184.375 239.967 180.955 246.267 178.525C252.567 176.095 259.407 174.88 266.787 174.88C274.257 174.88 281.097 176.095 287.307 178.525C293.607 180.955 299.052 184.375 303.642 188.785C308.322 193.195 311.967 198.37 314.577 204.31C317.187 210.16 318.492 216.64 318.492 223.75C318.492 230.77 317.187 237.295 314.577 243.325C311.967 249.265 308.322 254.44 303.642 258.85C299.052 263.17 293.607 266.545 287.307 268.975C281.097 271.405 274.302 272.62 266.922 272.62ZM266.787 253.99C271.017 253.99 274.887 253.27 278.397 251.83C281.997 250.39 285.147 248.32 287.847 245.62C290.547 242.92 292.617 239.725 294.057 236.035C295.587 232.345 296.352 228.25 296.352 223.75C296.352 219.25 295.587 215.155 294.057 211.465C292.617 207.775 290.547 204.58 287.847 201.88C285.237 199.18 282.132 197.11 278.532 195.67C274.932 194.23 271.017 193.51 266.787 193.51C262.557 193.51 258.642 194.23 255.042 195.67C251.532 197.11 248.427 199.18 245.727 201.88C243.027 204.58 240.912 207.775 239.382 211.465C237.942 215.155 237.222 219.25 237.222 223.75C237.222 228.16 237.942 232.255 239.382 236.035C240.912 239.725 242.982 242.92 245.592 245.62C248.292 248.32 251.442 250.39 255.042 251.83C258.642 253.27 262.557 253.99 266.787 253.99Z" fill="white"/>
<path d="M335.34 271V176.5H357.075V238.06L402.165 176.5H422.685V271H401.085V209.575L355.995 271H335.34ZM378.945 170.425C369.945 170.425 363.33 168.625 359.1 165.025C354.96 161.425 352.845 156.34 352.755 149.77H367.74C367.83 153.01 368.775 155.485 370.575 157.195C372.465 158.815 375.255 159.625 378.945 159.625C382.545 159.625 385.29 158.815 387.18 157.195C389.07 155.485 390.06 153.01 390.15 149.77H405.135C405.045 156.34 402.885 161.425 398.655 165.025C394.425 168.625 387.855 170.425 378.945 170.425Z" fill="white"/>
<path d="M511.014 176.5H532.884V271H511.014V176.5ZM468.084 271H446.214V176.5H468.084V271ZM512.634 232.255H466.464V213.76H512.634V232.255Z" fill="white"/>
<path d="M602.325 207.55C613.755 207.55 622.575 210.115 628.785 215.245C634.995 220.285 638.1 227.89 638.1 238.06C638.1 248.86 634.635 257.05 627.705 262.63C620.865 268.21 611.37 271 599.22 271H556.56V176.5H578.295V207.55H602.325ZM598.005 254.8C603.585 254.8 607.995 253.405 611.235 250.615C614.475 247.825 616.095 243.775 616.095 238.465C616.095 233.245 614.475 229.51 611.235 227.26C608.085 224.92 603.675 223.75 598.005 223.75H578.295V254.8H598.005ZM650.115 271V176.5H671.85V271H650.115Z" fill="white"/>
<path d="M75.5496 107.62C68.2596 107.62 61.4646 106.45 55.1646 104.11C48.9546 101.68 43.5546 98.2599 38.9646 93.8499C34.3746 89.4399 30.7746 84.2649 28.1646 78.3249C25.6446 72.3849 24.3846 65.8599 24.3846 58.7499C24.3846 51.6399 25.6446 45.1149 28.1646 39.1749C30.7746 33.2349 34.3746 28.0599 38.9646 23.6499C43.6446 19.2399 49.0896 15.8649 55.2996 13.5249C61.5096 11.0949 68.3046 9.87988 75.6846 9.87988C83.8746 9.87988 91.2547 11.3199 97.8246 14.1999C104.485 16.9899 110.065 21.1299 114.565 26.6199L100.525 39.5799C97.2846 35.8899 93.6846 33.1449 89.7246 31.3449C85.7646 29.4549 81.4446 28.5099 76.7646 28.5099C72.3546 28.5099 68.3046 29.2299 64.6146 30.6699C60.9246 32.1099 57.7296 34.1799 55.0296 36.8799C52.3296 39.5799 50.2146 42.7749 48.6846 46.4649C47.2446 50.1549 46.5246 54.2499 46.5246 58.7499C46.5246 63.2499 47.2446 67.3449 48.6846 71.0349C50.2146 74.7249 52.3296 77.9199 55.0296 80.6199C57.7296 83.3199 60.9246 85.3899 64.6146 86.8299C68.3046 88.2699 72.3546 88.9899 76.7646 88.9899C81.4446 88.9899 85.7646 88.0899 89.7246 86.2899C93.6846 84.3999 97.2846 81.5649 100.525 77.7849L114.565 90.7449C110.065 96.2349 104.485 100.42 97.8246 103.3C91.2547 106.18 83.8296 107.62 75.5496 107.62Z" stroke="#2A335C" stroke-width="8" mask="url(#path-1-outside-1_281_8)"/>
<path d="M172.066 107.62C164.596 107.62 157.666 106.405 151.276 103.975C144.976 101.545 139.486 98.1249 134.806 93.7149C130.216 89.3049 126.616 84.1299 124.006 78.1899C121.486 72.2499 120.226 65.7699 120.226 58.7499C120.226 51.7299 121.486 45.2499 124.006 39.3099C126.616 33.3699 130.261 28.1949 134.941 23.7849C139.621 19.3749 145.111 15.9549 151.411 13.5249C157.711 11.0949 164.551 9.87988 171.931 9.87988C179.401 9.87988 186.241 11.0949 192.451 13.5249C198.751 15.9549 204.196 19.3749 208.786 23.7849C213.466 28.1949 217.111 33.3699 219.721 39.3099C222.331 45.1599 223.636 51.6399 223.636 58.7499C223.636 65.7699 222.331 72.2949 219.721 78.3249C217.111 84.2649 213.466 89.4399 208.786 93.8499C204.196 98.1699 198.751 101.545 192.451 103.975C186.241 106.405 179.446 107.62 172.066 107.62ZM171.931 88.9899C176.161 88.9899 180.031 88.2699 183.541 86.8299C187.141 85.3899 190.291 83.3199 192.991 80.6199C195.691 77.9199 197.761 74.7249 199.201 71.0349C200.731 67.3449 201.496 63.2499 201.496 58.7499C201.496 54.2499 200.731 50.1549 199.201 46.4649C197.761 42.7749 195.691 39.5799 192.991 36.8799C190.381 34.1799 187.276 32.1099 183.676 30.6699C180.076 29.2299 176.161 28.5099 171.931 28.5099C167.701 28.5099 163.786 29.2299 160.186 30.6699C156.676 32.1099 153.571 34.1799 150.871 36.8799C148.171 39.5799 146.056 42.7749 144.526 46.4649C143.086 50.1549 142.366 54.2499 142.366 58.7499C142.366 63.1599 143.086 67.2549 144.526 71.0349C146.056 74.7249 148.126 77.9199 150.736 80.6199C153.436 83.3199 156.586 85.3899 160.186 86.8299C163.786 88.2699 167.701 88.9899 171.931 88.9899Z" stroke="#2A335C" stroke-width="8" mask="url(#path-1-outside-1_281_8)"/>
<path d="M238.792 107.485C237.172 107.485 235.462 107.35 233.662 107.08C231.952 106.81 230.062 106.45 227.992 106L229.342 87.5049C230.602 87.8649 231.907 88.0449 233.257 88.0449C236.947 88.0449 239.827 86.5599 241.897 83.5899C243.967 80.5299 245.452 76.1649 246.352 70.4949C247.252 64.8249 247.837 57.9399 248.107 49.8399L249.457 11.4999H322.087V106H300.487V24.3249L305.482 29.3199H263.767L268.222 24.0549L267.412 49.0299C267.142 58.2999 266.512 66.5349 265.522 73.7349C264.532 80.9349 263.002 87.0549 260.932 92.0949C258.862 97.1349 256.027 100.96 252.427 103.57C248.827 106.18 244.282 107.485 238.792 107.485Z" stroke="#2A335C" stroke-width="8" mask="url(#path-1-outside-1_281_8)"/>
<path d="M407.67 96.2799V29.3199H375.27L374.865 43.0899C374.595 48.9399 374.19 54.4749 373.65 59.6949C373.2 64.9149 372.48 69.6849 371.49 74.0049C370.5 78.2349 369.195 81.8349 367.575 84.8049C366.045 87.7749 364.11 89.8899 361.77 91.1499L338.415 88.1799C341.655 88.2699 344.31 87.1449 346.38 84.8049C348.54 82.4649 350.25 79.1799 351.51 74.9499C352.77 70.6299 353.67 65.5899 354.21 59.8299C354.84 54.0699 355.29 47.8149 355.56 41.0649L356.64 11.4999H429.27V96.2799H407.67ZM335.31 125.575L335.445 88.1799H442.5V125.575H422.25V106H355.56V125.575H335.31Z" stroke="#2A335C" stroke-width="8" mask="url(#path-1-outside-1_281_8)"/>
<path d="M447.084 106L489.204 11.4999H510.804L553.059 106H530.109L495.549 22.5699H504.189L469.494 106H447.084ZM468.144 85.7499L473.949 69.1449H522.549L528.489 85.7499H468.144Z" stroke="#2A335C" stroke-width="8" mask="url(#path-1-outside-1_281_8)"/>
<path d="M581.23 106V24.3249L586.225 29.3199H551.125V11.4999H633.07V29.3199H597.97L602.83 24.3249V106H581.23Z" stroke="#2A335C" stroke-width="8" mask="url(#path-1-outside-1_281_8)"/>
<path d="M692.567 42.5499C703.997 42.5499 712.817 45.1149 719.027 50.2449C725.237 55.2849 728.342 62.8899 728.342 73.0599C728.342 83.8599 724.877 92.0499 717.947 97.6299C711.107 103.21 701.612 106 689.462 106H646.802V11.4999H668.537V42.5499H692.567ZM688.247 89.7999C693.827 89.7999 698.237 88.4049 701.477 85.6149C704.717 82.8249 706.337 78.7749 706.337 73.4649C706.337 68.2449 704.717 64.5099 701.477 62.2599C698.327 59.9199 693.917 58.7499 688.247 58.7499H668.537V89.7999H688.247ZM740.357 106V11.4999H762.092V106H740.357Z" stroke="#2A335C" stroke-width="8" mask="url(#path-1-outside-1_281_8)"/>
<path d="M121.106 271V176.5H165.116C176.096 176.5 184.646 178.615 190.766 182.845C196.886 187.075 199.946 193.105 199.946 200.935C199.946 208.675 197.066 214.705 191.306 219.025C185.546 223.255 177.896 225.37 168.356 225.37L170.921 219.7C181.541 219.7 189.776 221.815 195.626 226.045C201.476 230.275 204.401 236.395 204.401 244.405C204.401 252.685 201.251 259.21 194.951 263.98C188.741 268.66 179.651 271 167.681 271H121.106ZM142.841 254.8H166.871C171.911 254.8 175.736 253.81 178.346 251.83C180.956 249.85 182.261 246.79 182.261 242.65C182.261 238.69 180.956 235.765 178.346 233.875C175.736 231.895 171.911 230.905 166.871 230.905H142.841V254.8ZM142.841 215.65H163.226C167.996 215.65 171.596 214.705 174.026 212.815C176.456 210.835 177.671 207.955 177.671 204.175C177.671 200.395 176.456 197.56 174.026 195.67C171.596 193.69 167.996 192.7 163.226 192.7H142.841V215.65Z" stroke="#2A335C" stroke-width="8" mask="url(#path-1-outside-1_281_8)"/>
<path d="M266.922 272.62C259.452 272.62 252.522 271.405 246.132 268.975C239.832 266.545 234.342 263.125 229.662 258.715C225.072 254.305 221.472 249.13 218.862 243.19C216.342 237.25 215.082 230.77 215.082 223.75C215.082 216.73 216.342 210.25 218.862 204.31C221.472 198.37 225.117 193.195 229.797 188.785C234.477 184.375 239.967 180.955 246.267 178.525C252.567 176.095 259.407 174.88 266.787 174.88C274.257 174.88 281.097 176.095 287.307 178.525C293.607 180.955 299.052 184.375 303.642 188.785C308.322 193.195 311.967 198.37 314.577 204.31C317.187 210.16 318.492 216.64 318.492 223.75C318.492 230.77 317.187 237.295 314.577 243.325C311.967 249.265 308.322 254.44 303.642 258.85C299.052 263.17 293.607 266.545 287.307 268.975C281.097 271.405 274.302 272.62 266.922 272.62ZM266.787 253.99C271.017 253.99 274.887 253.27 278.397 251.83C281.997 250.39 285.147 248.32 287.847 245.62C290.547 242.92 292.617 239.725 294.057 236.035C295.587 232.345 296.352 228.25 296.352 223.75C296.352 219.25 295.587 215.155 294.057 211.465C292.617 207.775 290.547 204.58 287.847 201.88C285.237 199.18 282.132 197.11 278.532 195.67C274.932 194.23 271.017 193.51 266.787 193.51C262.557 193.51 258.642 194.23 255.042 195.67C251.532 197.11 248.427 199.18 245.727 201.88C243.027 204.58 240.912 207.775 239.382 211.465C237.942 215.155 237.222 219.25 237.222 223.75C237.222 228.16 237.942 232.255 239.382 236.035C240.912 239.725 242.982 242.92 245.592 245.62C248.292 248.32 251.442 250.39 255.042 251.83C258.642 253.27 262.557 253.99 266.787 253.99Z" stroke="#2A335C" stroke-width="8" mask="url(#path-1-outside-1_281_8)"/>
<path d="M335.34 271V176.5H357.075V238.06L402.165 176.5H422.685V271H401.085V209.575L355.995 271H335.34ZM378.945 170.425C369.945 170.425 363.33 168.625 359.1 165.025C354.96 161.425 352.845 156.34 352.755 149.77H367.74C367.83 153.01 368.775 155.485 370.575 157.195C372.465 158.815 375.255 159.625 378.945 159.625C382.545 159.625 385.29 158.815 387.18 157.195C389.07 155.485 390.06 153.01 390.15 149.77H405.135C405.045 156.34 402.885 161.425 398.655 165.025C394.425 168.625 387.855 170.425 378.945 170.425Z" stroke="#2A335C" stroke-width="8" mask="url(#path-1-outside-1_281_8)"/>
<path d="M511.014 176.5H532.884V271H511.014V176.5ZM468.084 271H446.214V176.5H468.084V271ZM512.634 232.255H466.464V213.76H512.634V232.255Z" stroke="#2A335C" stroke-width="8" mask="url(#path-1-outside-1_281_8)"/>
<path d="M602.325 207.55C613.755 207.55 622.575 210.115 628.785 215.245C634.995 220.285 638.1 227.89 638.1 238.06C638.1 248.86 634.635 257.05 627.705 262.63C620.865 268.21 611.37 271 599.22 271H556.56V176.5H578.295V207.55H602.325ZM598.005 254.8C603.585 254.8 607.995 253.405 611.235 250.615C614.475 247.825 616.095 243.775 616.095 238.465C616.095 233.245 614.475 229.51 611.235 227.26C608.085 224.92 603.675 223.75 598.005 223.75H578.295V254.8H598.005ZM650.115 271V176.5H671.85V271H650.115Z" stroke="#2A335C" stroke-width="8" mask="url(#path-1-outside-1_281_8)"/>
</g>
<defs>
<filter id="filter0_d_281_8" x="0.384644" y="0.879883" width="785.708" height="310.74" filterUnits="userSpaceOnUse" color-interpolation-filters="sRGB">
<feFlood flood-opacity="0" result="BackgroundImageFix"/>
<feColorMatrix in="SourceAlpha" type="matrix" values="0 0 0 0 0 0 0 0 0 0 0 0 0 0 0 0 0 0 127 0" result="hardAlpha"/>
<feOffset dy="15"/>
<feGaussianBlur stdDeviation="10"/>
<feColorMatrix type="matrix" values="0 0 0 0 0 0 0 0 0 0 0 0 0 0 0 0 0 0 0.05 0"/>
<feBlend mode="normal" in2="BackgroundImageFix" result="effect1_dropShadow_281_8"/>
<feBlend mode="normal" in="SourceGraphic" in2="effect1_dropShadow_281_8" result="shape"/>
</filter>
</defs>
</svg>
