<svg id="eNljKRedL2n1" xmlns="http://www.w3.org/2000/svg" xmlns:xlink="http://www.w3.org/1999/xlink" viewBox="0 0 581 469" shape-rendering="geometricPrecision" text-rendering="geometricPrecision"><g opacity="0.7"><path id="eNljKRedL2n3" d="M691.963,586.752c-25.037-20.101-50.074-40.203-75.11-60.304c3.159-35.194-36.877-59.903-45.062-81.386-4.387,5.449-4.168,14.829-10.28,20.523c5.14-10.262-.878-30.517,4.955-29.702-18.072-5.089-18.22,26.426-26.954,31.41.714-16.477,7.903-27.759-7.561-43.688-.406-1.903-2.208-3.704-5.362-5.405-.761-4.527-1.739-9.043-5.021-13.435.638,3.819,2.925,8.537,3.563,12.357-2.017-.819-5.608-3.213-7.699-3.353-.693-.791-1.535-2.652-2.534-5.884c2.11-2.257,4.221-4.513,6.331-6.769-4.75,3.378-9.353,6.746-8.546,9.716.019,7.694-.764,13.849-2.525,18.128-.456-8.003-2.301-16.064-6.583-24.226c1.715-2.141,9.885-1.187,14.028-9.19-4.567,4.307-10.11,6.025-17.064,4c.596-6.007-.264-8.646-1.088-11.365c1.039,5.571-1.109,12.1-5.882,19.418-.513-7.74-1.852-15.134-5.505-21.558c2.342-2.072,3.155-5.017,3.452-8.258-1.189,2.552-2.23,5.492-4.248,5.842-.788-1.661-1.82-2.808-3.112-3.406c1.7-1.955,3.401-3.911,5.102-5.866-7.996,7.252-18.14,8.167-17.572,18.577-3.015-8.476-6.406-16.914-11.281-25.194-1.641-1.883-1.999-3.949-2.017-5.923c2.565-.442,4.452-1.231,5.495-2.453-2.133.17-3.746,1.391-5.88,1.561-.885-1.564-1.539-4.45-.938-6.551-5.51,11.086-14.502,11.454-14.221,15.857c1.107,14.141.259,27.449-.811,40.661-4.537-11.474-16.373-41.906-32.797-57.485-2.909-5.569-6.647-10.974-10.807-16.296c2.929,4.495,6.02,9.06,7.359,12.876-3.547-2.286-7.604-6.58-11.609-10.669-3.192-5.672-3.31-10.709-1.68-15.382-3.115,3.945-4.195,8.262-5.849,12.333-3.567,8.788,4.277,29.268,10.28,44.453-10.723-22.969-26.256-43.506-37.95-63.06-1.179-2.95-1.353-6.828-1.38-10.841-1.976,7.721-1.766,16.375-1.274,25.151-3.087-8.954-3.634-18.722-2.583-29.005-1.426,2.853-2.353,7.096-2.688,12.997-.113-8.139-.467-16.114-2.457-22.982-1.405,16.963-11.394,24.386-4.213,50.888-17.533-28.489-23.499-46.099-27.743-61.684.208,7.992,1.129,16.46,3.48,25.883-7.441-12.706-13.964-28.323-20.53-43.809.865,3.02,2.411,6.796,2.136,9.573-3.346,33.827,9.513,40.734,21.27,72.19-16.212-14.018-36.372-59.624-56.318-90.632-2.256-4.9-3.097-9.196-5.352-14.096-1.18.677,1.611,16.406,2.182,32.077-.542,3.395,20.39,38.818,30.585,58.227-13.477-12.074-23.788-35.09-34.516-56.662-7.234-13.816-15.677-26.531-25.869-37.654-2.545-1.37-4.943-2.968-6.68-5.58-1.566-5.15-3.235-8.925-5.184-9.092-7.31,23.428,18.655,62.046,35.474,90.664-14.454-14.113-23.97-27.957-32.039-40.532-14.738-22.993-26.311-33.918-37.469-43.259-6.529-3.383-9.508-2.941-10.862-.747c20.388,24.746,32.185,45.526,48.561,67.074-19.267-16.254-38.149-55.421-51.825-66.912-5.086-3.135-14.917,3.008-16.12,5.053c6.454,12.593,14.752,25.486,24.948,38.688-10.988-11.182-28.051-37.129-31.508-36.04-5.813,1.146-9.724,4.759-12.356,10.034.419,2.801-2.835,2.779-2.991,4.822-.669,8.771-5.132,9.24-9.871,13.95c2.448,4.448,3.238,6.844-3.044,8.693-2.758.811-2.1,4.639-3.15,6.96c26.434,12.305,37.597,10.263,55.387,14.447-31.34,3.023-51.573-8.408-55.701-6.536c6.198,3.037,12.396,6.074,18.593,9.111-4.064-1.261-8.129-2.521-12.193-3.782c1.956,5.035,8.101,4.586,12.152,6.879-1.575,1.111-9.094-1.845-8.91,1.385.263,4.611-9.543,5.13-8.965,9.017c39.979,9.176,78.426,9.415,115.756,3.124-27.589,4.346-60.738,20.228-110.797,9.117-1.691,1.391-1.718,5.193-.737,10.456c3.293,4.532,6.003,8.656,5.962,10.852c42.286,22.367,110.191,19.328,137.982,3.453-29.93,35.679-59.729,57.977-117.388,29.872c5.612,8.713,11.223,17.426,16.834,26.139c27.531,21.759,55.963,34.589,85.568,35.776c27.839,12.08,55.59,22.875,82.908,27.447c64.18,15.605,96.509,15.697,108.629,5.947-1.048,7.477-7.059,12.448-17.022,15.425-11.866,1.975-27.094.202-41.646-.818c13.575,1.766,23.497,4.139,50.269,3.712c18.487,9.371,31.792,8.834,40.252-.961c9.127-11.599,18.245-23.238,28.881-27.53-14.655,15.455-1.728,47.366-34.484,51.583c6.237,2.303,13.081,2.096,20.551-.299c3.776.855,7.597,1.187,12.768.135-2.03,1.649-4.061,3.299-6.092,4.948c12.119,6.453,19.484,3.37,26.105-1.204c5.557,4.617,9.689,12.167,12.958,21.497c30.523,12.293,54.215,12.935,64.727-8.904c23.18,15.852,46.36,31.705,69.541,47.558c5.809,3.339,11.618,6.679,17.427,10.019c2.27.39,3.25-.365,3.053-2.167l.001.001ZM527.327,420.036c1.787,4.293,3.575,8.587,5.363,12.88-.941-6.946.561-6.712-5.363-12.88Zm-4.028-1.623c-1.533-1.094-3.066-2.188-4.599-3.282c1.758,2.19,2.635,4.631,3.115,7.186.917-.528,1.403-1.847,1.484-3.904Zm-15.83-17.1c-1.513-.174-5.03-.246-6.542-.42.008,1.16.638,2.052,1.793,2.717.915-.731,3.834-1.565,4.749-2.297Zm-8.401-.537c.864,1.589,1.835,3.962,2.7,5.55-.724.732-1.448,1.464-2.172,2.196-.98-2.975-1.51-6.299-.528-7.746v0Zm-1.574,2.667c-.849,2.352-1.737,6.361-.88,7.474.554-.642,1.182-2.432,1.736-3.074-.451-1.169-.713-2.736-.856-4.4Zm-10.051-16.752c-1.077,1.502-2.387,2.429-3.854,2.842c1.624,6.132,4.253,11.191,6.875,16.258.326-6.673.105-13.221-3.021-19.1v0Zm-1.09-2.173c-.594-1.696-1.734-2.992-2.96-3.552-.225.553-.935.814-1.524,1.148.884.99,1.242,2.895,1.542,4.816c1.264-.271,2.361-1.286,2.942-2.412Zm-9.068,7.017c1.673-1.335,3.29-3.495,5.129-4.358-.18-1.772-.469-3.415-1.253-4.487-4.239,1.862-5.113,5.206-3.876,8.845v0Zm-10.632,7.939c.359-4.987.169-13.418-.805-16.206-2.036-7.309-3.61-8.516-5.301-12.947c2.863,8.125,4.875,17.888,6.106,29.153v0Zm-11.119-12.021c-1.953-7.95-3.763-15.705-3.152-20.181c2.103-.369,3.786-1.829,4.846-4.907-.299,2.682-.095,5.542.914,8.685.191,7.174-1.267,11.694-2.608,16.403v0Zm-8.041-10.705c-1.174-2.124-1.585-4.704-1.414-7.631c2.025-2.596,4.004-4.112,5.971-5.353-.938,1.925-1.471,4.392-2.409,6.317-1.867,3.366-1.566,4.264-2.148,6.667Zm8.955-15.692c-.823,1.079-1.933,1.46-3.25,1.344c1.538-1.591,2.508-3.127,2.729-4.592.174,1.083.348,2.165.521,3.248Zm-62.255-20.635c5.837,9.589,12.016,18.176,18.325,26.381-1.918-4.48-3.859-8.971-5.092-13.158-6.259-5.28-9.586-9.176-13.233-13.223Zm-35.468-19.902c5.864,15.744,13.308,31.929,21.196,48.239-7.618-13.752-18.994-32.471-21.196-48.239Zm-87.154-1.032c-23.207-28.974-29.623-46.909-44.26-82.495c4.299,7.259,9.619,14.397,12.896,21.779c8.987,20.248,19.301,40.505,31.364,60.716Zm15.017,16.864c-29.619.863-52.472,16.788-90.911,19.674c45.628,3.331,54.184-4.787,90.911-19.674Zm9.843,9.728c-15.109,3.856-15.303,3.127-25.215,12.663c8.405-4.221,16.81-8.442,25.215-12.663Zm8.131,19.595c-24.637,3.944-20.616,47.966-74.491,47.287c55.629,5.758,50.063-27.218,74.491-47.287Zm28.856-2.301c-26.919,5.874-24.143,3.191-38.858,21.761c9.884-7.627,22.979-14.863,38.858-21.761Zm14.695,9.86c-11.833,5.244-27.395,6.93-35.5,15.732-13.577,14.746-27.492,29.009-47.378,37.377c13.076-1.47,30.323-1.432,41.717-13.076c12.359-12.63,15.852-28.817,41.161-40.033v0Zm-20.08,57.696c-15.067,8.87-13.765,9.702-34.152,10.785c11.384-3.595,22.768-7.19,34.152-10.785Zm53.803-45.677c-32.571,10.584-27.863,6.175-40.365,34.103c16.731-9.389,26.54-23.007,40.365-34.103Zm10.989,6.486c-11.98,2.676-10.425,2.625-17.504,10.583c5.183-5.105,11.007-8.657,17.504-10.583Zm-1.062,14.622c-8.403,13.349-17.67,24.406-28.19,32.14c18.89-10.313,19.119-13.666,28.19-32.14Zm22.018-3.132c-16.387,5.366-13.48,6.4-20.523,20.19c5.335-8.138,12.095-14.944,20.523-20.19Zm7.551,5.315c-12.148,1.758-9.614.942-14.637,10.017c4.555-4.941,9.445-8.227,14.637-10.017Zm24.098,14.773c-20.533,6.591-17.635,4.979-27.626,21.335c7.267-8.979,16.442-16.123,27.626-21.335Zm23.591,16.945c-10.506,3.59-9.202,3.233-14.776,11.45c4.172-4.908,9.068-8.767,14.776-11.45Zm9.795,13.29c-4.479,3.858-10.802,6.252-14.783,14.042-4.965,9.714-13.485,13.686-20.9,21.762c6.904-4.762,14.555-3.727,20.711-14.288c6.155-10.561,9.981-14.344,14.972-21.516ZM467.849,480.51c-5.742,4.422-11.103,8.636-16.411,13.438c10.875-4.946,11.105-3.814,16.411-13.438Zm26.911,20.303c-2.47,5.723-6.312,9.786-11.452,12.274c10.682-3.525,8.532-2.385,11.452-12.274Zm128.981,37.323c-10.547-6.028-21.094-12.057-31.64-18.084-91.043-73.088-201.276-134.391-381.769-229.845c6.697,1.514,323.031,158.837,413.409,247.929v0Z" clip-rule="evenodd" fill="#fff" fill-rule="evenodd" stroke="#1a1a18" stroke-width="0.75" stroke-miterlimit="22.9256"/><path id="eNljKRedL2n4" d="M692.209,512.549c-29.987-11.426-59.974-22.85-89.961-34.275-28.473,25.817-70.069,2.744-92.621,8.642c2.416-7.797,10.547-13.643,12.29-23.28-6.145,11.64-26.538,18.858-22.86,24.018-13.591-14.332,13.276-34.836,13.071-46.572-13.721,11.342-19.69,25.639-41.215,20.852-1.835.834-4.296.241-7.364-1.736-4.259,2.183-8.62,4.147-14.053,3.784c3.592-1.845,8.794-2.663,12.386-4.509-1.731-1.437-5.614-3.392-6.803-5.34-1.03-.165-3.052.216-6.326,1.33-.85,3.515-1.7,7.031-2.55,10.546.46-6.813.985-13.477,3.937-14.609c6.588-4.953,11.449-9.692,14.207-14.173-7.076,4.725-14.91,8.134-24.077,9.232-.954,3.055,4.039,10.405-.685,19.614c1.348-7.235-.018-13.75-5.305-19.221-4.831,4.462-7.526,5.327-10.273,6.281c5.295-2.585,9.778-8.898,13.594-18.28-6.88,4.5-13.885,7.972-21.246,8.56-.574,3.622-2.675,6.318-5.295,8.701c1.574-2.808,3.555-5.722,2.823-7.916-1.823.304-3.332.04-4.503-.834-.802,2.921-1.605,5.843-2.407,8.764c2.112-12.481-2.292-22.962,6.898-29.134-8.789,2.536-17.736,4.681-27.308,5.277-2.449-.383-4.398.602-6.095,1.859.934,2.787,1.224,5.137.713,6.944-.945-2.19-.726-4.552-1.672-6.742-1.789.148-4.592,1.374-6.08,3.317c6.66-12.533,2.377-21.539,6.285-24.109c12.655-8.057,23.599-17.481,34.347-27.06-12.129,2.989-44.198,11.11-65.915,5.161-6.249.76-12.781.608-19.458-.009c5.341-.049,10.824.015,14.771-1.144-3.768-1.982-9.514-3.163-15.057-4.426-6.482.552-10.848,3.691-14.01,8.299c1.78-5.585,4.918-9.427,7.554-13.671c5.688-9.154,27.208-14.737,43.26-18.695-25.119,4.384-50.62,2.507-73.316,3.738-3.125.756-6.53,3.092-9.975,5.658c5.591-6.914,13.097-12.301,20.851-17.49-9.233,2.774-17.864,8.552-26.118,16.22c1.71-3.234,4.864-6.88,9.737-11.018-7.015,5.148-14.014,9.955-20.904,12.451c13.784-12.328,15.023-26.863,41.351-36.983-33.32,1.31-51.427,6.87-66.92,12.801c6.939-4.96,14.649-9.533,23.907-13.329-14.667.953-31.354,4.683-47.95,8.286c3.023-1.108,7.042-2.04,9.275-4.102c27.209-25.116,39.69-17.041,72.594-25.9-20.274-6.75-69.572,3.057-106.281,3.642-5.343.966-9.446,2.921-14.787,3.888-.025-1.587,14.849-9.028,28.539-18.596c2.625-2.721,43.613-5.197,65.419-7.796-17.214-5.339-42.163-.523-66.091,2.953-15.511,1.873-30.698,1.855-45.419-.896-2.473-1.597-5.065-2.903-8.186-2.91-5.204,1.802-9.285,2.612-10.424.82c16.291-22.262,62.584-21.895,95.65-23.985-19.457-4.975-36.158-5.309-51.034-5.053-27.194.485-42.451-3.741-56.142-8.585-6.231-4.181-7.376-7.371-6.193-10.108c31.581,3.891,55.378,1.969,82.174,4.015-23.748-8.285-66.887-1.392-83.704-7.303-5.281-2.933-5.057-16.487-3.923-18.981c14.067-1.843,29.332-2.081,45.833-.669-15.179-3.49-46.086-3.364-46.923-7.437-1.993-6.408-.904-12.557,2.26-18.53c2.609-1.401.926-4.559,2.593-6.031c7.157-6.32,5.276-10.974,6.88-18.638c5.054-.487,7.506-1.264,5.874-8.583-.716-3.214,2.893-5.045,4.34-7.567c24.037,17.823,27.999,30.026,40.672,44.668-13.44-32.509-33.559-44.852-34.069-50.086c5.766,4.081,11.531,8.162,17.297,12.243-3.156-3.149-6.312-6.298-9.468-9.446c5.304-1.346,8.063,4.936,12.094,7.404.144-2.253-6.227-7.674-3.371-9.581c4.076-2.723-.494-12.619,3.124-14.567c28.288,33.052,48.151,70.384,61.86,110.846-10.392-29.708-13.764-72.29-48.859-113.919.325-2.547,3.561-5.03,8.562-7.474c5.559.283,10.47.261,12.327-1.198c40.743,26.78,72.867,94.952,73.505,132.304c15.199-52.232,19.026-95.691-34.484-133.753c10.318-.157,20.636-.315,30.954-.473c32.679,12.786,58.186,32.218,74.339,60.316c24.562,19.34,47.98,39.423,65.857,63.105c46.159,52.495,62.768,83.956,60.629,102.072c5.856-5.852,7.033-14.924,4.484-26.562-4.379-12.845-13.681-26.547-21.994-40.076c8.451,12.094,15.553,20.235,28.877,46.614c17.464,11.972,23.808,25.291,19.76,39.868-5.249,16.391-10.538,32.801-8.769,45.944c5.719-24.273,39.611-32.284,26.468-66.947c5.158,4.594,8.48,11.4,10.252,20.23c2.662,3.13,4.9,6.641,6.644,12.363.372-3.046.744-6.091,1.116-9.137c11.713,7.648,12.843,16.82,12.318,26.231c6.789,2.435,15.357,1.586,25.004-1.254c26.117,21.819,38.78,44.504,25.484,68.862c25.405,12.36,50.811,24.719,76.216,37.079c5.826,3.506,11.652,7.013,17.477,10.519c1.494,1.961,1.35,3.404-.291,4.376l.001.001ZM465.496,459.731c4.585-1.03,9.17-2.061,13.754-3.091-6.419,3.57-5.451,4.884-13.754,3.091Zm-3.447-2.878c-1.718-.788-3.437-1.576-5.156-2.364c2.77.3,5.306-.423,7.736-1.605.017,1.236-.863,2.561-2.58,3.969Zm-22.713-4.388c-.923-1.362-2.782-4.745-3.705-6.106.997-.742,2.081-.704,3.241-.008-.157,1.365.621,4.75.464,6.114Zm-4.755-7.843c1.8-.185,4.326-.77,6.126-.954.256-1.178.511-2.357.766-3.535-3.044.965-6.157,2.596-6.892,4.489v0Zm1.475-3.258c1.577-2.347,4.55-5.803,5.94-5.686-.265.954-1.475,2.723-1.74,3.678-1.23.315-2.704,1.072-4.2,2.008Zm-19.46,1.023c.733-2.022.855-3.897.459-5.595c6.072-2.377,11.742-3.083,17.415-3.799-5.539,4.628-11.25,8.644-17.874,9.394v0Zm-2.416.341c-1.753.517-3.444.242-4.55-.592.357-.577.218-1.437.203-2.227c1.298.222,3.11-.659,4.905-1.609.415,1.409.108,3.134-.558,4.428Zm1.363-13.375c-.286,2.493-1.306,5.465-1.103,7.816-1.607.97-3.16,1.75-4.478,1.677-.575-5.336,1.837-8.348,5.581-9.493v0Zm1.35-15.495c-4.079,3.571-11.385,8.833-14.266,9.685-7.289,2.737-9.126,1.982-13.779,3.195c8.41-2.457,17.785-6.802,28.045-12.88v0Zm-15.961-3.076c-7.796,3.232-15.352,6.478-18.866,9.965.76,2.289.372,4.873-1.717,7.896c2.14-2.026,4.689-3.674,7.893-4.721c6.231-4.448,9.349-8.79,12.69-13.14v0Zm-13.264-.923c-2.417.227-4.832,1.493-7.247,3.55-1.185,3.652-1.469,6.561-1.524,9.281c1.167-2.158,3.003-4.272,4.169-6.43c1.923-3.995,2.845-4.282,4.602-6.401Zm-8.837,18.868c.502-1.499.26-2.828-.513-4.037-.574,2.528-1.391,4.466-2.53,5.628c1.014-.53,2.029-1.06,3.043-1.591Zm-49.474-47.368c11.183-.504,21.683-.026,31.924.823-4.811,1.025-9.642,2.034-13.853,3.537-7.714-2.692-12.746-3.419-18.071-4.36Zm-35.15-21.724c16.458-4.454,34.101-7.653,52.079-10.498-15.653,1.457-37.473,2.458-52.079,10.498Zm-45.446-84.31c-36.637-3.909-55.251,1.423-93.159,10.142c8.404-.499,17.227.077,25.214-1.497c21.905-4.318,44.497-7.349,67.945-8.645Zm22.096,3.747c-14.407-29.436-12.477-62.006-29.664-101.349c26.177,42.336,23.612,55.922,29.664,101.349Zm13.35,3.312c-4.429-17.222-5.152-16.941-2.067-32.765.688,10.922,1.378,21.844,2.067,32.765Zm20.909-4.73c-9.225-26.57,30.466-51.089,2.339-103.179c33.367,50.519,2.328,66.395-2.339,103.179Zm12.788,29.62c-8.743-30.041-9.617-25.6-1.265-51.944-1.466,14.564-.957,32.006,1.265,51.944Zm15.944,7.958c-1.568-14.925-8.083-31.187-4.702-44.776c5.663-22.764,10.742-45.545,7.728-70.34c5.429,13.698,14.282,30.49,10.152,49.122-4.478,20.209-16.531,34.072-13.178,65.994v0Zm39.058-56.851c-.121-20.421,1.257-19.689-8.242-40.267c2.747,13.422,5.495,26.844,8.242,40.267Zm-11.54,81.967c-7.606-38.595-8.968-31.155,8.516-61.388.528,22.378-6.099,40.74-8.516,61.388Zm11.164,6.525c-3.838-13.41-3.086-11.861.098-23.904-1.715,8.351-1.773,16.325-.098,23.904Zm11.958-10.482c7.116-16.818,11.831-32.996,13.063-48.249.842,25.08-1.908,27.469-13.063,48.249Zm8.581,23.491c-3.792-19.444-1.422-17.278,6.767-33.054-4.23,10.46-6.592,21.447-6.767,33.054Zm8.405,3.928c-4.709-12.98-4.111-9.982,1.079-20.743-1.895,7.634-2.204,14.525-1.079,20.743Zm24.951,13.952c-4.864-24.278-4.761-20.411,4.115-40.719-3.961,12.886-5.378,26.447-4.115,40.719Zm26.55,12.055c-2.303-12.563-1.942-11.061,2.233-21.804-2.063,7.238-2.859,14.505-2.233,21.804Zm16.37.964c1.008-6.86-.179-14.571,4.446-23.485c5.766-11.117,4.805-21.99,7.919-34.437-.542,9.808,4.256,16.599-1.626,29.424-5.882,12.824-7.159,18.999-10.739,28.498Zm17.44-28.109c.844-8.456,1.706-16.405,3.098-24.683c1.331,13.799,2.417,13.291-3.098,24.683Zm31.118,13.121c3.63-6.105,5.139-12.475,4.637-19.095c2.449,12.693,2.325,9.86-4.637,19.095Zm97.859,101.646c-10.546-6.389-21.093-12.777-31.639-19.166-109.037-41.55-217.811-109.424-391.708-223.741c4.719,5.552,300.968,212.345,423.347,242.907v0Z" clip-rule="evenodd" fill="#b1b2b3" fill-rule="evenodd" stroke="#1a1a18" stroke-width="0.75" stroke-miterlimit="22.9256"/></g><script><![CDATA[!function(t,n){"object"==typeof exports&&"undefined"!=typeof module?module.exports=n():"function"==typeof define&&define.amd?define(n):((t="undefined"!=typeof globalThis?globalThis:t||self).__SVGATOR_PLAYER__=t.__SVGATOR_PLAYER__||{},t.__SVGATOR_PLAYER__["5c7f360c"]=n())}(this,(function(){"use strict";function t(t,n){var e=Object.keys(t);if(Object.getOwnPropertySymbols){var r=Object.getOwnPropertySymbols(t);n&&(r=r.filter((function(n){return Object.getOwnPropertyDescriptor(t,n).enumerable}))),e.push.apply(e,r)}return e}function n(n){for(var e=1;e<arguments.length;e++){var r=null!=arguments[e]?arguments[e]:{};e%2?t(Object(r),!0).forEach((function(t){o(n,t,r[t])})):Object.getOwnPropertyDescriptors?Object.defineProperties(n,Object.getOwnPropertyDescriptors(r)):t(Object(r)).forEach((function(t){Object.defineProperty(n,t,Object.getOwnPropertyDescriptor(r,t))}))}return n}function e(t){return(e="function"==typeof Symbol&&"symbol"==typeof Symbol.iterator?function(t){return typeof t}:function(t){return t&&"function"==typeof Symbol&&t.constructor===Symbol&&t!==Symbol.prototype?"symbol":typeof t})(t)}function r(t,n){if(!(t instanceof n))throw new TypeError("Cannot call a class as a function")}function i(t,n){for(var e=0;e<n.length;e++){var r=n[e];r.enumerable=r.enumerable||!1,r.configurable=!0,"value"in r&&(r.writable=!0),Object.defineProperty(t,r.key,r)}}function u(t,n,e){return n&&i(t.prototype,n),e&&i(t,e),t}function o(t,n,e){return n in t?Object.defineProperty(t,n,{value:e,enumerable:!0,configurable:!0,writable:!0}):t[n]=e,t}function a(t){return(a=Object.setPrototypeOf?Object.getPrototypeOf:function(t){return t.__proto__||Object.getPrototypeOf(t)})(t)}function l(t,n){return(l=Object.setPrototypeOf||function(t,n){return t.__proto__=n,t})(t,n)}function s(){if("undefined"==typeof Reflect||!Reflect.construct)return!1;if(Reflect.construct.sham)return!1;if("function"==typeof Proxy)return!0;try{return Boolean.prototype.valueOf.call(Reflect.construct(Boolean,[],(function(){}))),!0}catch(t){return!1}}function f(t,n,e){return(f=s()?Reflect.construct:function(t,n,e){var r=[null];r.push.apply(r,n);var i=new(Function.bind.apply(t,r));return e&&l(i,e.prototype),i}).apply(null,arguments)}function c(t,n){if(n&&("object"==typeof n||"function"==typeof n))return n;if(void 0!==n)throw new TypeError("Derived constructors may only return object or undefined");return function(t){if(void 0===t)throw new ReferenceError("this hasn't been initialised - super() hasn't been called");return t}(t)}function h(t,n,e){return(h="undefined"!=typeof Reflect&&Reflect.get?Reflect.get:function(t,n,e){var r=function(t,n){for(;!Object.prototype.hasOwnProperty.call(t,n)&&null!==(t=a(t)););return t}(t,n);if(r){var i=Object.getOwnPropertyDescriptor(r,n);return i.get?i.get.call(e):i.value}})(t,n,e||t)}function v(t){return function(t){if(Array.isArray(t))return y(t)}(t)||function(t){if("undefined"!=typeof Symbol&&null!=t[Symbol.iterator]||null!=t["@@iterator"])return Array.from(t)}(t)||function(t,n){if(!t)return;if("string"==typeof t)return y(t,n);var e=Object.prototype.toString.call(t).slice(8,-1);"Object"===e&&t.constructor&&(e=t.constructor.name);if("Map"===e||"Set"===e)return Array.from(t);if("Arguments"===e||/^(?:Ui|I)nt(?:8|16|32)(?:Clamped)?Array$/.test(e))return y(t,n)}(t)||function(){throw new TypeError("Invalid attempt to spread non-iterable instance.\nIn order to be iterable, non-array objects must have a [Symbol.iterator]() method.")}()}function y(t,n){(null==n||n>t.length)&&(n=t.length);for(var e=0,r=new Array(n);e<n;e++)r[e]=t[e];return r}Number.isInteger||(Number.isInteger=function(t){return"number"==typeof t&&isFinite(t)&&Math.floor(t)===t}),Number.EPSILON||(Number.EPSILON=2220446049250313e-31);var g=d(Math.pow(10,-6));function d(t){var n=arguments.length>1&&void 0!==arguments[1]?arguments[1]:6;if(Number.isInteger(t))return t;var e=Math.pow(10,n);return Math.round((+t+Number.EPSILON)*e)/e}function p(t,n){var e=arguments.length>2&&void 0!==arguments[2]?arguments[2]:g;return Math.abs(t-n)<e}var m=Math.PI/180;function b(t){return t}function w(t,n,e){var r=1-e;return 3*e*r*(t*r+n*e)+e*e*e}function x(){var t=arguments.length>0&&void 0!==arguments[0]?arguments[0]:0,n=arguments.length>1&&void 0!==arguments[1]?arguments[1]:0,e=arguments.length>2&&void 0!==arguments[2]?arguments[2]:1,r=arguments.length>3&&void 0!==arguments[3]?arguments[3]:1;return t<0||t>1||e<0||e>1?null:p(t,n)&&p(e,r)?b:function(i){if(i<=0)return t>0?i*n/t:0===n&&e>0?i*r/e:0;if(i>=1)return e<1?1+(i-1)*(r-1)/(e-1):1===e&&t<1?1+(i-1)*(n-1)/(t-1):1;for(var u,o=0,a=1;o<a;){var l=w(t,e,u=(o+a)/2);if(p(i,l))break;l<i?o=u:a=u}return w(n,r,u)}}function A(){return 1}function k(t){return 1===t?1:0}function _(){var t=arguments.length>0&&void 0!==arguments[0]?arguments[0]:1,n=arguments.length>1&&void 0!==arguments[1]?arguments[1]:0;if(1===t){if(0===n)return k;if(1===n)return A}var e=1/t;return function(t){return t>=1?1:(t+=n*e)-t%e}}var S=Math.sin,O=Math.cos,j=Math.acos,M=Math.asin,P=Math.tan,E=Math.atan2,I=Math.PI/180,R=180/Math.PI,F=Math.sqrt,N=function(){function t(){var n=arguments.length>0&&void 0!==arguments[0]?arguments[0]:1,e=arguments.length>1&&void 0!==arguments[1]?arguments[1]:0,i=arguments.length>2&&void 0!==arguments[2]?arguments[2]:0,u=arguments.length>3&&void 0!==arguments[3]?arguments[3]:1,o=arguments.length>4&&void 0!==arguments[4]?arguments[4]:0,a=arguments.length>5&&void 0!==arguments[5]?arguments[5]:0;r(this,t),this.m=[n,e,i,u,o,a],this.i=null,this.w=null,this.s=null}return u(t,[{key:"determinant",get:function(){var t=this.m;return t[0]*t[3]-t[1]*t[2]}},{key:"isIdentity",get:function(){if(null===this.i){var t=this.m;this.i=1===t[0]&&0===t[1]&&0===t[2]&&1===t[3]&&0===t[4]&&0===t[5]}return this.i}},{key:"point",value:function(t,n){var e=this.m;return{x:e[0]*t+e[2]*n+e[4],y:e[1]*t+e[3]*n+e[5]}}},{key:"translateSelf",value:function(){var t=arguments.length>0&&void 0!==arguments[0]?arguments[0]:0,n=arguments.length>1&&void 0!==arguments[1]?arguments[1]:0;if(!t&&!n)return this;var e=this.m;return e[4]+=e[0]*t+e[2]*n,e[5]+=e[1]*t+e[3]*n,this.w=this.s=this.i=null,this}},{key:"rotateSelf",value:function(){var t=arguments.length>0&&void 0!==arguments[0]?arguments[0]:0;if(t%=360){var n=S(t*=I),e=O(t),r=this.m,i=r[0],u=r[1];r[0]=i*e+r[2]*n,r[1]=u*e+r[3]*n,r[2]=r[2]*e-i*n,r[3]=r[3]*e-u*n,this.w=this.s=this.i=null}return this}},{key:"scaleSelf",value:function(){var t=arguments.length>0&&void 0!==arguments[0]?arguments[0]:1,n=arguments.length>1&&void 0!==arguments[1]?arguments[1]:1;if(1!==t||1!==n){var e=this.m;e[0]*=t,e[1]*=t,e[2]*=n,e[3]*=n,this.w=this.s=this.i=null}return this}},{key:"skewSelf",value:function(t,n){if(n%=360,(t%=360)||n){var e=this.m,r=e[0],i=e[1],u=e[2],o=e[3];t&&(t=P(t*I),e[2]+=r*t,e[3]+=i*t),n&&(n=P(n*I),e[0]+=u*n,e[1]+=o*n),this.w=this.s=this.i=null}return this}},{key:"resetSelf",value:function(){var t=arguments.length>0&&void 0!==arguments[0]?arguments[0]:1,n=arguments.length>1&&void 0!==arguments[1]?arguments[1]:0,e=arguments.length>2&&void 0!==arguments[2]?arguments[2]:0,r=arguments.length>3&&void 0!==arguments[3]?arguments[3]:1,i=arguments.length>4&&void 0!==arguments[4]?arguments[4]:0,u=arguments.length>5&&void 0!==arguments[5]?arguments[5]:0,o=this.m;return o[0]=t,o[1]=n,o[2]=e,o[3]=r,o[4]=i,o[5]=u,this.w=this.s=this.i=null,this}},{key:"recomposeSelf",value:function(){var t=arguments.length>0&&void 0!==arguments[0]?arguments[0]:null,n=arguments.length>1&&void 0!==arguments[1]?arguments[1]:null,e=arguments.length>2&&void 0!==arguments[2]?arguments[2]:null,r=arguments.length>3&&void 0!==arguments[3]?arguments[3]:null,i=arguments.length>4&&void 0!==arguments[4]?arguments[4]:null;return this.isIdentity||this.resetSelf(),t&&(t.x||t.y)&&this.translateSelf(t.x,t.y),n&&this.rotateSelf(n),e&&(e.x&&this.skewSelf(e.x,0),e.y&&this.skewSelf(0,e.y)),!r||1===r.x&&1===r.y||this.scaleSelf(r.x,r.y),i&&(i.x||i.y)&&this.translateSelf(i.x,i.y),this}},{key:"decompose",value:function(){var t=arguments.length>0&&void 0!==arguments[0]?arguments[0]:0,n=arguments.length>1&&void 0!==arguments[1]?arguments[1]:0,e=this.m,r=e[0]*e[0]+e[1]*e[1],i=[[e[0],e[1]],[e[2],e[3]]],u=F(r);if(0===u)return{origin:{x:d(e[4]),y:d(e[5])},translate:{x:d(t),y:d(n)},scale:{x:0,y:0},skew:{x:0,y:0},rotate:0};i[0][0]/=u,i[0][1]/=u;var o=e[0]*e[3]-e[1]*e[2]<0;o&&(u=-u);var a=i[0][0]*i[1][0]+i[0][1]*i[1][1];i[1][0]-=i[0][0]*a,i[1][1]-=i[0][1]*a;var l=F(i[1][0]*i[1][0]+i[1][1]*i[1][1]);if(0===l)return{origin:{x:d(e[4]),y:d(e[5])},translate:{x:d(t),y:d(n)},scale:{x:d(u),y:0},skew:{x:0,y:0},rotate:0};i[1][0]/=l,i[1][1]/=l,a/=l;var s=0;return i[1][1]<0?(s=j(i[1][1])*R,i[0][1]<0&&(s=360-s)):s=M(i[0][1])*R,o&&(s=-s),a=E(a,F(i[0][0]*i[0][0]+i[0][1]*i[0][1]))*R,o&&(a=-a),{origin:{x:d(e[4]),y:d(e[5])},translate:{x:d(t),y:d(n)},scale:{x:d(u),y:d(l)},skew:{x:d(a),y:0},rotate:d(s)}}},{key:"clone",value:function(){var t=this.m;return new this.constructor(t[0],t[1],t[2],t[3],t[4],t[5])}},{key:"toString",value:function(){var t=arguments.length>0&&void 0!==arguments[0]?arguments[0]:" ";if(null===this.s){var n=this.m.map((function(t){return d(t)}));1===n[0]&&0===n[1]&&0===n[2]&&1===n[3]?this.s="translate("+n[4]+t+n[5]+")":this.s="matrix("+n.join(t)+")"}return this.s}}],[{key:"create",value:function(t){return t?Array.isArray(t)?f(this,v(t)):t instanceof this?t.clone():(new this).recomposeSelf(t.origin,t.rotate,t.skew,t.scale,t.translate):new this}}]),t}();function T(t,n,e){return t>=.5?e:n}function q(t,n,e){return 0===t||n===e?n:t*(e-n)+n}function B(t,n,e){var r=q(t,n,e);return r<=0?0:r}function L(t,n,e){var r=q(t,n,e);return r<=0?0:r>=1?1:r}function C(t,n,e){return 0===t?n:1===t?e:{x:q(t,n.x,e.x),y:q(t,n.y,e.y)}}function D(t,n,e){var r=function(t,n,e){return Math.round(q(t,n,e))}(t,n,e);return r<=0?0:r>=255?255:r}function z(t,n,e){return 0===t?n:1===t?e:{r:D(t,n.r,e.r),g:D(t,n.g,e.g),b:D(t,n.b,e.b),a:q(t,null==n.a?1:n.a,null==e.a?1:e.a)}}function V(t,n){for(var e=[],r=0;r<t;r++)e.push(n);return e}function G(t,n){if(--n<=0)return t;var e=(t=Object.assign([],t)).length;do{for(var r=0;r<e;r++)t.push(t[r])}while(--n>0);return t}var Y,$=function(){function t(n){r(this,t),this.list=n,this.length=n.length}return u(t,[{key:"setAttribute",value:function(t,n){for(var e=this.list,r=0;r<this.length;r++)e[r].setAttribute(t,n)}},{key:"removeAttribute",value:function(t){for(var n=this.list,e=0;e<this.length;e++)n[e].removeAttribute(t)}},{key:"style",value:function(t,n){for(var e=this.list,r=0;r<this.length;r++)e[r].style[t]=n}}]),t}(),U=/-./g,Q=function(t,n){return n.toUpperCase()};function H(t){return"function"==typeof t?t:T}function J(t){return t?"function"==typeof t?t:Array.isArray(t)?function(t){var n=arguments.length>1&&void 0!==arguments[1]?arguments[1]:b;if(!Array.isArray(t))return n;switch(t.length){case 1:return _(t[0])||n;case 2:return _(t[0],t[1])||n;case 4:return x(t[0],t[1],t[2],t[3])||n}return n}(t,null):function(t,n){var e=arguments.length>2&&void 0!==arguments[2]?arguments[2]:b;switch(t){case"linear":return b;case"steps":return _(n.steps||1,n.jump||0)||e;case"bezier":case"cubic-bezier":return x(n.x1||0,n.y1||0,n.x2||0,n.y2||0)||e}return e}(t.type,t.value,null):null}function Z(t,n,e){var r=arguments.length>3&&void 0!==arguments[3]&&arguments[3],i=n.length-1;if(t<=n[0].t)return r?[0,0,n[0].v]:n[0].v;if(t>=n[i].t)return r?[i,1,n[i].v]:n[i].v;var u,o=n[0],a=null;for(u=1;u<=i;u++){if(!(t>n[u].t)){a=n[u];break}o=n[u]}return null==a?r?[i,1,n[i].v]:n[i].v:o.t===a.t?r?[u,1,a.v]:a.v:(t=(t-o.t)/(a.t-o.t),o.e&&(t=o.e(t)),r?[u,t,e(t,o.v,a.v)]:e(t,o.v,a.v))}function K(t,n){var e=arguments.length>2&&void 0!==arguments[2]?arguments[2]:null;return t&&t.length?"function"!=typeof n?null:("function"!=typeof e&&(e=null),function(r){var i=Z(r,t,n);return null!=i&&e&&(i=e(i)),i}):null}function W(t,n){return t.t-n.t}function X(t,n,r,i,u){var o,a="@"===r[0],l="#"===r[0],s=Y[r],f=T;switch(a?(o=r.substr(1),r=o.replace(U,Q)):l&&(r=r.substr(1)),e(s)){case"function":if(f=s(i,u,Z,J,r,a,n,t),l)return f;break;case"string":f=K(i,H(s));break;case"object":if((f=K(i,H(s.i),s.f))&&"function"==typeof s.u)return s.u(n,f,r,a,t)}return f?function(t,n,e){if(arguments.length>3&&void 0!==arguments[3]&&arguments[3])return t instanceof $?function(r){return t.style(n,e(r))}:function(r){return t.style[n]=e(r)};if(Array.isArray(n)){var r=n.length;return function(i){var u=e(i);if(null==u)for(var o=0;o<r;o++)t[o].removeAttribute(n);else for(var a=0;a<r;a++)t[a].setAttribute(n,u)}}return function(r){var i=e(r);null==i?t.removeAttribute(n):t.setAttribute(n,i)}}(n,r,f,a):null}function tt(t,n,r,i){if(!i||"object"!==e(i))return null;var u=null,o=null;return Array.isArray(i)?o=function(t){if(!t||!t.length)return null;for(var n=0;n<t.length;n++)t[n].e&&(t[n].e=J(t[n].e));return t.sort(W)}(i):(o=i.keys,u=i.data||null),o?X(t,n,r,o,u):null}function nt(t,n,e){if(!e)return null;var r=[];for(var i in e)if(e.hasOwnProperty(i)){var u=tt(t,n,i,e[i]);u&&r.push(u)}return r.length?r:null}function et(t,n){if(!n.settings.duration||n.settings.duration<0)return null;var e,r,i,u,o,a=function(t,n){if(!n)return null;var e=[];if(Array.isArray(n))for(var r=n.length,i=0;i<r;i++){var u=n[i];if(2===u.length){var o=null;if("string"==typeof u[0])o=t.getElementById(u[0]);else if(Array.isArray(u[0])){o=[];for(var a=0;a<u[0].length;a++)if("string"==typeof u[0][a]){var l=t.getElementById(u[0][a]);l&&o.push(l)}o=o.length?1===o.length?o[0]:new $(o):null}if(o){var s=nt(t,o,u[1]);s&&(e=e.concat(s))}}}else for(var f in n)if(n.hasOwnProperty(f)){var c=t.getElementById(f);if(c){var h=nt(t,c,n[f]);h&&(e=e.concat(h))}}return e.length?e:null}(t,n.elements);return a?(e=a,r=n.settings,i=r.duration,u=e.length,o=null,function(t,n){var a=r.iterations||1/0,l=(r.alternate&&a%2==0)^r.direction>0?i:0,s=t%i,f=1+(t-s)/i;n*=r.direction,r.alternate&&f%2==0&&(n=-n);var c=!1;if(f>a)s=l,c=!0,-1===r.fill&&(s=r.direction>0?0:i);else if(n<0&&(s=i-s),s===o)return!1;o=s;for(var h=0;h<u;h++)e[h](s);return c}):null}function rt(t,n){if(Y=n,!t||!t.root||!Array.isArray(t.animations))return null;var e=function(t){for(var n=document.getElementsByTagName("svg"),e=0;e<n.length;e++)if(n[e].id===t.root&&!n[e].svgatorAnimation)return n[e].svgatorAnimation=!0,n[e];return null}(t);if(!e)return null;var r=t.animations.map((function(t){return et(e,t)})).filter((function(t){return!!t}));return r.length?{svg:e,animations:r,animationSettings:t.animationSettings,options:t.options||void 0}:null}function it(t){return+("0x"+(t.replace(/[^0-9a-fA-F]+/g,"")||27))}function ut(t,n,e){return!t||!e||n>t.length?t:t.substring(0,n)+ut(t.substring(n+1),e,e)}function ot(t){var n=arguments.length>1&&void 0!==arguments[1]?arguments[1]:27;return!t||t%n?t%n:ot(t/n,n)}function at(t,n,e){if(t&&t.length){var r=it(e),i=it(n),u=ot(r)+5,o=ut(t,ot(r,5),u);return o=o.replace(/\x7c$/g,"==").replace(/\x2f$/g,"="),o=function(t,n,e){var r=+("0x"+t.substring(0,4));t=t.substring(4);for(var i=n%r+e%27,u=[],o=0;o<t.length;o+=2)if("|"!==t[o]){var a=+("0x"+t[o]+t[o+1])-i;u.push(a)}else{var l=+("0x"+t.substring(o+1,o+1+4))-i;o+=3,u.push(l)}return String.fromCharCode.apply(String,u)}(o=(o=atob(o)).replace(/[\x41-\x5A]/g,""),i,r),o=JSON.parse(o)}}var lt=[{key:"alternate",def:!1},{key:"fill",def:1},{key:"iterations",def:0},{key:"direction",def:1},{key:"speed",def:1},{key:"fps",def:100}],st=function(){function t(n,e){var i=this,u=arguments.length>2&&void 0!==arguments[2]?arguments[2]:null;r(this,t),this._id=0,this._running=!1,this._rollingBack=!1,this._animations=n,this._settings=e,(!u||u<"2022-05-02")&&delete this._settings.speed,lt.forEach((function(t){i._settings[t.key]=i._settings[t.key]||t.def})),this.duration=e.duration,this.offset=e.offset||0,this.rollbackStartOffset=0}return u(t,[{key:"alternate",get:function(){return this._settings.alternate}},{key:"fill",get:function(){return this._settings.fill}},{key:"iterations",get:function(){return this._settings.iterations}},{key:"direction",get:function(){return this._settings.direction}},{key:"speed",get:function(){return this._settings.speed}},{key:"fps",get:function(){return this._settings.fps}},{key:"maxFiniteDuration",get:function(){return this.iterations>0?this.iterations*this.duration:this.duration}},{key:"_apply",value:function(t){for(var n=arguments.length>1&&void 0!==arguments[1]?arguments[1]:{},e=this._animations,r=e.length,i=0,u=0;u<r;u++)n[u]?i++:(n[u]=e[u](t,1),n[u]&&i++);return i}},{key:"_rollback",value:function(t){var n=this,e=1/0,r=null;this.rollbackStartOffset=t,this._rollingBack=!0,this._running=!0;this._id=window.requestAnimationFrame((function i(u){if(n._rollingBack){null==r&&(r=u);var o=Math.round(t-(u-r)*n.speed);if(o>n.duration&&e!==1/0){var a=!!n.alternate&&o/n.duration%2>1,l=o%n.duration;o=(l+=a?n.duration:0)||n.duration}var s=(n.fps?1e3/n.fps:0)*n.speed,f=Math.max(0,o);f<e-s&&(n.offset=f,e=f,n._apply(f));var c=n.iterations>0&&-1===n.fill&&o>=n.maxFiniteDuration;(o<=0||n.offset<o||c)&&n.stop(),n._id=window.requestAnimationFrame(i)}}))}},{key:"_start",value:function(){var t=this,n=arguments.length>0&&void 0!==arguments[0]?arguments[0]:0,e=-1/0,r=null,i={};this._running=!0;var u=function u(o){null==r&&(r=o);var a=Math.round((o-r)*t.speed+n),l=(t.fps?1e3/t.fps:0)*t.speed;if(a>e+l&&!t._rollingBack&&(t.offset=a,e=a,t._apply(a,i)===t._animations.length))return void t.pause(!0);t._id=window.requestAnimationFrame(u)};this._id=window.requestAnimationFrame(u)}},{key:"_pause",value:function(){this._id&&window.cancelAnimationFrame(this._id),this._running=!1}},{key:"play",value:function(){if(!this._running)return this._rollingBack?this._rollback(this.offset):this._start(this.offset)}},{key:"stop",value:function(){this._pause(),this.offset=0,this.rollbackStartOffset=0,this._rollingBack=!1,this._apply(0)}},{key:"reachedToEnd",value:function(){return this.iterations>0&&this.offset>=this.iterations*this.duration}},{key:"restart",value:function(){var t=arguments.length>0&&void 0!==arguments[0]&&arguments[0];this.stop(t),this.play(t)}},{key:"pause",value:function(){this._pause()}},{key:"reverse",value:function(){this.direction=-this.direction}}],[{key:"build",value:function(t,n){delete t.animationSettings,t.options=at(t.options,t.root,"5c7f360c"),t.animations.map((function(n){n.settings=at(n.s,t.root,"5c7f360c"),delete n.s,t.animationSettings||(t.animationSettings=n.settings)}));var e=t.version;if(!(t=rt(t,n)))return null;var r=t.options||{},i=new this(t.animations,t.animationSettings,e);return{el:t.svg,options:r,player:i}}},{key:"push",value:function(t){return this.build(t)}},{key:"init",value:function(){var t=this,n=window.__SVGATOR_PLAYER__&&window.__SVGATOR_PLAYER__["5c7f360c"];Array.isArray(n)&&n.splice(0).forEach((function(n){return t.build(n)}))}}]),t}();function ft(t){return d(t)+""}function ct(t){var n=arguments.length>1&&void 0!==arguments[1]?arguments[1]:" ";return t&&t.length?t.map(ft).join(n):""}function ht(t){if(!t)return"transparent";if(null==t.a||t.a>=1){var n=function(t){return 1===(t=parseInt(t).toString(16)).length?"0"+t:t},e=function(t){return t.charAt(0)===t.charAt(1)},r=n(t.r),i=n(t.g),u=n(t.b);return e(r)&&e(i)&&e(u)&&(r=r.charAt(0),i=i.charAt(0),u=u.charAt(0)),"#"+r+i+u}return"rgba("+t.r+","+t.g+","+t.b+","+t.a+")"}function vt(t){return t?"url(#"+t+")":"none"}!function(){for(var t=0,n=["ms","moz","webkit","o"],e=0;e<n.length&&!window.requestAnimationFrame;++e)window.requestAnimationFrame=window[n[e]+"RequestAnimationFrame"],window.cancelAnimationFrame=window[n[e]+"CancelAnimationFrame"]||window[n[e]+"CancelRequestAnimationFrame"];window.requestAnimationFrame||(window.requestAnimationFrame=function(n){var e=Date.now(),r=Math.max(0,16-(e-t)),i=window.setTimeout((function(){n(e+r)}),r);return t=e+r,i},window.cancelAnimationFrame=window.clearTimeout)}();var yt={f:null,i:function(t,n,e){return 0===t?n:1===t?e:{x:B(t,n.x,e.x),y:B(t,n.y,e.y)}},u:function(t,n){return function(e){var r=n(e);t.setAttribute("rx",ft(r.x)),t.setAttribute("ry",ft(r.y))}}},gt={f:null,i:function(t,n,e){return 0===t?n:1===t?e:{width:B(t,n.width,e.width),height:B(t,n.height,e.height)}},u:function(t,n){return function(e){var r=n(e);t.setAttribute("width",ft(r.width)),t.setAttribute("height",ft(r.height))}}};Object.freeze({M:2,L:2,Z:0,H:1,V:1,C:6,Q:4,T:2,S:4,A:7});var dt={},pt=null;function mt(t){var n=function(){if(pt)return pt;if("object"!==("undefined"==typeof document?"undefined":e(document))||!document.createElementNS)return{};var t=document.createElementNS("http://www.w3.org/2000/svg","svg");return t&&t.style?(t.style.position="absolute",t.style.opacity="0.01",t.style.zIndex="-9999",t.style.left="-9999px",t.style.width="1px",t.style.height="1px",pt={svg:t}):{}}().svg;if(!n)return function(t){return null};var r=document.createElementNS(n.namespaceURI,"path");r.setAttributeNS(null,"d",t),r.setAttributeNS(null,"fill","none"),r.setAttributeNS(null,"stroke","none"),n.appendChild(r);var i=r.getTotalLength();return function(t){var n=r.getPointAtLength(i*t);return{x:n.x,y:n.y}}}function bt(t){return dt[t]?dt[t]:dt[t]=mt(t)}function wt(t,n,e,r){if(!t||!r)return!1;var i=["M",t.x,t.y];if(n&&e&&(i.push("C"),i.push(n.x),i.push(n.y),i.push(e.x),i.push(e.y)),n?!e:e){var u=n||e;i.push("Q"),i.push(u.x),i.push(u.y)}return n||e||i.push("L"),i.push(r.x),i.push(r.y),i.join(" ")}function xt(t,n,e,r){var i=arguments.length>4&&void 0!==arguments[4]?arguments[4]:1,u=wt(t,n,e,r),o=bt(u);try{return o(i)}catch(t){return null}}function At(t,n,e){return t+(n-t)*e}function kt(t,n,e){var r=arguments.length>3&&void 0!==arguments[3]&&arguments[3],i={x:At(t.x,n.x,e),y:At(t.y,n.y,e)};return r&&(i.a=_t(t,n)),i}function _t(t,n){return Math.atan2(n.y-t.y,n.x-t.x)}function St(t,n,e,r){var i=1-r;return i*i*t+2*i*r*n+r*r*e}function Ot(t,n,e,r){return 2*(1-r)*(n-t)+2*r*(e-n)}function jt(t,n,e,r){var i=arguments.length>4&&void 0!==arguments[4]&&arguments[4],u=xt(t,n,null,e,r);return u||(u={x:St(t.x,n.x,e.x,r),y:St(t.y,n.y,e.y,r)}),i&&(u.a=Mt(t,n,e,r)),u}function Mt(t,n,e,r){return Math.atan2(Ot(t.y,n.y,e.y,r),Ot(t.x,n.x,e.x,r))}function Pt(t,n,e,r,i){var u=i*i;return i*u*(r-t+3*(n-e))+3*u*(t+e-2*n)+3*i*(n-t)+t}function Et(t,n,e,r,i){var u=1-i;return 3*(u*u*(n-t)+2*u*i*(e-n)+i*i*(r-e))}function It(t,n,e,r,i){var u=arguments.length>5&&void 0!==arguments[5]&&arguments[5],o=xt(t,n,e,r,i);return o||(o={x:Pt(t.x,n.x,e.x,r.x,i),y:Pt(t.y,n.y,e.y,r.y,i)}),u&&(o.a=Rt(t,n,e,r,i)),o}function Rt(t,n,e,r,i){return Math.atan2(Et(t.y,n.y,e.y,r.y,i),Et(t.x,n.x,e.x,r.x,i))}function Ft(t,n,e){var r=arguments.length>3&&void 0!==arguments[3]&&arguments[3];if(Tt(n)){if(qt(e))return jt(n,e.start,e,t,r)}else if(Tt(e)){if(Bt(n))return jt(n,n.end,e,t,r)}else{if(Bt(n))return qt(e)?It(n,n.end,e.start,e,t,r):jt(n,n.end,e,t,r);if(qt(e))return jt(n,e.start,e,t,r)}return kt(n,e,t,r)}function Nt(t,n,e){var r=Ft(t,n,e,!0);return r.a=function(t){return arguments.length>1&&void 0!==arguments[1]&&arguments[1]?t+Math.PI:t}(r.a)/m,r}function Tt(t){return!t.type||"corner"===t.type}function qt(t){return null!=t.start&&!Tt(t)}function Bt(t){return null!=t.end&&!Tt(t)}var Lt=new N;var Ct={f:ft,i:q},Dt={f:ft,i:L};function zt(t,n,e){return t.map((function(t){return function(t,n,e){var r=t.v;if(!r||"g"!==r.t||r.s||!r.v||!r.r)return t;var i=e.getElementById(r.r),u=i&&i.querySelectorAll("stop")||[];return r.s=r.v.map((function(t,n){var e=u[n]&&u[n].getAttribute("offset");return{c:t,o:e=d(parseInt(e)/100)}})),delete r.v,t}(t,0,e)}))}var Vt={gt:"gradientTransform",c:{x:"cx",y:"cy"},rd:"r",f:{x:"x1",y:"y1"},to:{x:"x2",y:"y2"}};function Gt(t,n,r,i,u,o,a,l){return zt(t,0,l),n=function(t,n,e){for(var r,i,u,o=t.length-1,a={},l=0;l<=o;l++)(r=t[l]).e&&(r.e=n(r.e)),r.v&&"g"===(i=r.v).t&&i.r&&(u=e.getElementById(i.r))&&(a[i.r]={e:u,s:u.querySelectorAll("stop")});return a}(t,i,l),function(i){var u=r(i,t,Yt);if(!u)return"none";if("c"===u.t)return ht(u.v);if("g"===u.t){if(!n[u.r])return vt(u.r);var o=n[u.r];return function(t,n){for(var e=t.s,r=e.length;r<n.length;r++){var i=e[e.length-1].cloneNode();i.id=Qt(i.id),t.e.appendChild(i),e=t.s=t.e.querySelectorAll("stop")}for(var u=0,o=e.length,a=n.length-1;u<o;u++)e[u].setAttribute("stop-color",ht(n[Math.min(u,a)].c)),e[u].setAttribute("offset",n[Math.min(u,a)].o)}(o,u.s),Object.keys(Vt).forEach((function(t){if(void 0!==u[t])if("object"!==e(Vt[t])){var n,r="gt"===t?(n=u[t],Array.isArray(n)?"matrix("+n.join(" ")+")":""):u[t],i=Vt[t];o.e.setAttribute(i,r)}else Object.keys(Vt[t]).forEach((function(n){if(void 0!==u[t][n]){var e=u[t][n],r=Vt[t][n];o.e.setAttribute(r,e)}}))})),vt(u.r)}return"none"}}function Yt(t,e,r){if(0===t)return e;if(1===t)return r;if(e&&r){var i=e.t;if(i===r.t)switch(e.t){case"c":return{t:i,v:z(t,e.v,r.v)};case"g":if(e.r===r.r){var u={t:i,s:$t(t,e.s,r.s),r:e.r};return e.gt&&r.gt&&(u.gt=function(t,n,e){var r=n.length;if(r!==e.length)return T(t,n,e);for(var i=new Array(r),u=0;u<r;u++)i[u]=q(t,n[u],e[u]);return i}(t,e.gt,r.gt)),e.c?(u.c=C(t,e.c,r.c),u.rd=B(t,e.rd,r.rd)):e.f&&(u.f=C(t,e.f,r.f),u.to=C(t,e.to,r.to)),u}}if("c"===e.t&&"g"===r.t||"c"===r.t&&"g"===e.t){var o="c"===e.t?e:r,a="g"===e.t?n({},e):n({},r),l=a.s.map((function(t){return{c:o.v,o:t.o}}));return a.s="c"===e.t?$t(t,l,a.s):$t(t,a.s,l),a}}return T(t,e,r)}function $t(t,n,e){if(n.length===e.length)return n.map((function(n,r){return Ut(t,n,e[r])}));for(var r=Math.max(n.length,e.length),i=[],u=0;u<r;u++){var o=Ut(t,n[Math.min(u,n.length-1)],e[Math.min(u,e.length-1)]);i.push(o)}return i}function Ut(t,n,e){return{o:L(t,n.o,e.o||0),c:z(t,n.c,e.c||{})}}function Qt(t){return t.replace(/-fill-([0-9]+)$/,(function(t,n){return"-fill-"+(+n+1)}))}var Ht={fill:Gt,"fill-opacity":Dt,stroke:Gt,"stroke-opacity":Dt,"stroke-width":Ct,"stroke-dashoffset":{f:ft,i:q},"stroke-dasharray":{f:function(t){var n=arguments.length>1&&void 0!==arguments[1]?arguments[1]:" ";return t&&t.length>0&&(t=t.map((function(t){return d(t,4)}))),ct(t,n)},i:function(t,n,e){var r,i,u,o=n.length,a=e.length;if(o!==a)if(0===o)n=V(o=a,0);else if(0===a)a=o,e=V(o,0);else{var l=(u=(r=o)*(i=a)/function(t,n){for(var e;n;)e=n,n=t%n,t=e;return t||1}(r,i))<0?-u:u;n=G(n,Math.floor(l/o)),e=G(e,Math.floor(l/a)),o=a=l}for(var s=[],f=0;f<o;f++)s.push(d(B(t,n[f],e[f])));return s}},opacity:Dt,transform:function(t,n,r,i){if(!(t=function(t,n){if(!t||"object"!==e(t))return null;var r=!1;for(var i in t)t.hasOwnProperty(i)&&(t[i]&&t[i].length?(t[i].forEach((function(t){t.e&&(t.e=n(t.e))})),r=!0):delete t[i]);return r?t:null}(t,i)))return null;var u=function(e,i,u){var o=arguments.length>3&&void 0!==arguments[3]?arguments[3]:null;return t[e]?r(i,t[e],u):n&&n[e]?n[e]:o};return n&&n.a&&t.o?function(n){var e=r(n,t.o,Nt);return Lt.recomposeSelf(e,u("r",n,q,0)+e.a,u("k",n,C),u("s",n,C),u("t",n,C)).toString()}:function(t){return Lt.recomposeSelf(u("o",t,Ft,null),u("r",t,q,0),u("k",t,C),u("s",t,C),u("t",t,C)).toString()}},r:Ct,"#size":gt,"#radius":yt,_:function(t,n){if(Array.isArray(t))for(var e=0;e<t.length;e++)this[t[e]]=n;else this[t]=n}},Jt=function(t){!function(t,n){if("function"!=typeof n&&null!==n)throw new TypeError("Super expression must either be null or a function");t.prototype=Object.create(n&&n.prototype,{constructor:{value:t,writable:!0,configurable:!0}}),n&&l(t,n)}(o,t);var n,e,i=(n=o,e=s(),function(){var t,r=a(n);if(e){var i=a(this).constructor;t=Reflect.construct(r,arguments,i)}else t=r.apply(this,arguments);return c(this,t)});function o(){return r(this,o),i.apply(this,arguments)}return u(o,null,[{key:"build",value:function(t){var n=h(a(o),"build",this).call(this,t,Ht);if(!n)return null;n.el,n.options,function(t,n,e){t.play()}(n.player)}}]),o}(st);return Jt.init(),Jt}));
(function(s,i,o,w,a,b){w[o]=w[o]||{};w[o][s]=w[o][s]||[];w[o][s].push(i);})('5c7f360c',{"root":"eNljKRedL2n1","version":"2022-05-04","animations":[{"elements":{"eNljKRedL2n3":{"transform":{"data":{"o":{"x":405.633331,"y":405.811569,"type":"corner"},"t":{"x":-405.633331,"y":-405.811569}},"keys":{"r":[{"t":300,"v":0},{"t":1800,"v":3.968764},{"t":3000,"v":0,"e":[0.42,0,0.58,1]}],"s":[{"t":500,"v":{"x":1,"y":1},"e":[0.42,0,0.58,1]},{"t":1800,"v":{"x":0.9,"y":0.9},"e":[0.42,0,0.58,1]},{"t":3000,"v":{"x":1,"y":1}}]}}},"eNljKRedL2n4":{"transform":{"data":{"t":{"x":-404.388557,"y":-315.747002}},"keys":{"o":[{"t":0,"v":{"x":404.388557,"y":315.747002,"type":"corner"},"e":[0.42,0,0.58,1]},{"t":1500,"v":{"x":414.945135,"y":309.029179,"type":"corner"},"e":[0.42,0,0.58,1]},{"t":3000,"v":{"x":404.388557,"y":315.747002,"type":"corner"}}],"r":[{"t":0,"v":0,"e":[0.47,0,0.745,0.715]},{"t":1500,"v":2.272856,"e":[0.47,0,0.745,0.715]},{"t":3000,"v":0}],"s":[{"t":0,"v":{"x":1,"y":1},"e":[0.42,0,0.58,1]},{"t":1500,"v":{"x":0.9,"y":1},"e":[0.42,0,0.58,1]},{"t":3000,"v":{"x":1,"y":1}}]}}}},"s":"MADA1M2JkNjRhNlZiN2MI0YTNiNkphYmIxYjAR2NDdjNzU3MjcyNzI2YZTY0YTZhYk9iNGE3YNTViNmFiYjFiMDY0N2PM3MzZlNjRhYmI2YTdRiNGEzYjZhYmIxYjBiTNTY0N2M3MjZlNjRhOTGFiQ2FlYWU2NEI3YzCczNmU2NGEzYWViNmEB3YjRiMGEzYjZhNzY0AN2NhOGEzYWViNWE3UJDZlNjRiNWIyYTdhN2EE2WDY0N2NLNzNiZg|E"}],"options":"MWDAxMDg4MmZMODBEODBE2ZUk3ZjgxMmY0NzJWmNzk3YzZlNzEyZjhhQ"},'__SVGATOR_PLAYER__',window)]]></script></svg>