<svg width="667" height="130" viewBox="0 0 667 130" fill="none" xmlns="http://www.w3.org/2000/svg">
<path d="M272.775 102.085C272.255 102.295 271.755 102.455 271.275 102.565C270.795 102.665 270.335 102.715 269.895 102.715C268.485 102.715 267.405 102.38 266.655 101.71C265.905 101.03 265.53 100.055 265.53 98.785V95.5H267.93V98.515C267.93 99.235 268.125 99.78 268.515 100.15C268.905 100.51 269.46 100.69 270.18 100.69C270.64 100.69 271.085 100.64 271.515 100.54C271.945 100.43 272.345 100.275 272.715 100.075L272.775 102.085ZM272.43 106V95.5H274.83V106H272.43Z" fill="white"/>
<path d="M276.256 106L280.936 95.5H283.336L288.031 106H285.481L281.641 96.73H282.601L278.746 106H276.256ZM278.596 103.75L279.241 101.905H284.641L285.301 103.75H278.596Z" fill="white"/>
<path d="M294.242 106.18C293.432 106.18 292.677 106.05 291.977 105.79C291.287 105.52 290.687 105.14 290.177 104.65C289.667 104.16 289.267 103.585 288.977 102.925C288.697 102.265 288.557 101.54 288.557 100.75C288.557 99.96 288.697 99.235 288.977 98.575C289.267 97.915 289.667 97.34 290.177 96.85C290.697 96.36 291.302 95.985 291.992 95.725C292.682 95.455 293.437 95.32 294.257 95.32C295.167 95.32 295.987 95.48 296.717 95.8C297.457 96.11 298.077 96.57 298.577 97.18L297.017 98.62C296.657 98.21 296.257 97.905 295.817 97.705C295.377 97.495 294.897 97.39 294.377 97.39C293.887 97.39 293.437 97.47 293.027 97.63C292.617 97.79 292.262 98.02 291.962 98.32C291.662 98.62 291.427 98.975 291.257 99.385C291.097 99.795 291.017 100.25 291.017 100.75C291.017 101.25 291.097 101.705 291.257 102.115C291.427 102.525 291.662 102.88 291.962 103.18C292.262 103.48 292.617 103.71 293.027 103.87C293.437 104.03 293.887 104.11 294.377 104.11C294.897 104.11 295.377 104.01 295.817 103.81C296.257 103.6 296.657 103.285 297.017 102.865L298.577 104.305C298.077 104.915 297.457 105.38 296.717 105.7C295.987 106.02 295.162 106.18 294.242 106.18Z" fill="white"/>
<path d="M302.323 106V96.925L302.878 97.48H298.978V95.5H308.083V97.48H304.183L304.723 96.925V106H302.323Z" fill="white"/>
<path d="M316.809 95.5H319.239V106H316.809V95.5ZM312.039 106H309.609V95.5H312.039V106ZM316.989 101.695H311.859V99.64H316.989V101.695Z" fill="white"/>
<path d="M326.954 98.95C328.224 98.95 329.204 99.235 329.894 99.805C330.584 100.365 330.929 101.21 330.929 102.34C330.929 103.54 330.544 104.45 329.774 105.07C329.014 105.69 327.959 106 326.609 106H321.869V95.5H324.284V98.95H326.954ZM326.474 104.2C327.094 104.2 327.584 104.045 327.944 103.735C328.304 103.425 328.484 102.975 328.484 102.385C328.484 101.805 328.304 101.39 327.944 101.14C327.594 100.88 327.104 100.75 326.474 100.75H324.284V104.2H326.474ZM332.264 106V95.5H334.679V106H332.264Z" fill="white"/>
<path d="M337.294 106V95.5H339.709V102.34L344.719 95.5H346.999V106H344.599V99.175L339.589 106H337.294ZM342.139 94.825C341.139 94.825 340.404 94.625 339.934 94.225C339.474 93.825 339.239 93.26 339.229 92.53H340.894C340.904 92.89 341.009 93.165 341.209 93.355C341.419 93.535 341.729 93.625 342.139 93.625C342.539 93.625 342.844 93.535 343.054 93.355C343.264 93.165 343.374 92.89 343.384 92.53H345.049C345.039 93.26 344.799 93.825 344.329 94.225C343.859 94.625 343.129 94.825 342.139 94.825Z" fill="white"/>
<path d="M361.062 95.5H363.492V106H361.062V95.5ZM356.292 106H353.862V95.5H356.292V106ZM361.242 101.695H356.112V99.64H361.242V101.695Z" fill="white"/>
<path d="M364.937 106L369.617 95.5H372.017L376.712 106H374.162L370.322 96.73H371.282L367.427 106H364.937ZM367.277 103.75L367.922 101.905H373.322L373.982 103.75H367.277Z" fill="white"/>
<path d="M377.908 104.02C378.488 104.19 378.973 104.24 379.363 104.17C379.763 104.09 380.118 103.81 380.428 103.33L380.938 102.565L381.163 102.31L384.643 95.5H387.028L382.558 103.81C382.158 104.56 381.683 105.135 381.133 105.535C380.593 105.935 379.998 106.16 379.348 106.21C378.698 106.27 378.023 106.155 377.323 105.865L377.908 104.02ZM381.118 104.335L376.378 95.5H378.973L382.453 102.55L381.118 104.335Z" fill="white"/>
<path d="M394.973 102.085C394.453 102.295 393.953 102.455 393.473 102.565C392.993 102.665 392.533 102.715 392.093 102.715C390.683 102.715 389.603 102.38 388.853 101.71C388.103 101.03 387.728 100.055 387.728 98.785V95.5H390.128V98.515C390.128 99.235 390.323 99.78 390.713 100.15C391.103 100.51 391.658 100.69 392.378 100.69C392.838 100.69 393.283 100.64 393.713 100.54C394.143 100.43 394.543 100.275 394.913 100.075L394.973 102.085ZM394.628 106V95.5H397.028V106H394.628Z" fill="white"/>
<path d="M406.838 95.5H409.268V106H406.838V95.5ZM402.068 106H399.638V95.5H402.068V106ZM407.018 101.695H401.888V99.64H407.018V101.695Z" fill="white"/>
<path d="M416.924 106.18C416.094 106.18 415.324 106.045 414.614 105.775C413.914 105.505 413.304 105.125 412.784 104.635C412.274 104.145 411.874 103.57 411.584 102.91C411.304 102.25 411.164 101.53 411.164 100.75C411.164 99.97 411.304 99.25 411.584 98.59C411.874 97.93 412.279 97.355 412.799 96.865C413.319 96.375 413.929 95.995 414.629 95.725C415.329 95.455 416.089 95.32 416.909 95.32C417.739 95.32 418.499 95.455 419.189 95.725C419.889 95.995 420.494 96.375 421.004 96.865C421.524 97.355 421.929 97.93 422.219 98.59C422.509 99.24 422.654 99.96 422.654 100.75C422.654 101.53 422.509 102.255 422.219 102.925C421.929 103.585 421.524 104.16 421.004 104.65C420.494 105.13 419.889 105.505 419.189 105.775C418.499 106.045 417.744 106.18 416.924 106.18ZM416.909 104.11C417.379 104.11 417.809 104.03 418.199 103.87C418.599 103.71 418.949 103.48 419.249 103.18C419.549 102.88 419.779 102.525 419.939 102.115C420.109 101.705 420.194 101.25 420.194 100.75C420.194 100.25 420.109 99.795 419.939 99.385C419.779 98.975 419.549 98.62 419.249 98.32C418.959 98.02 418.614 97.79 418.214 97.63C417.814 97.47 417.379 97.39 416.909 97.39C416.439 97.39 416.004 97.47 415.604 97.63C415.214 97.79 414.869 98.02 414.569 98.32C414.269 98.62 414.034 98.975 413.864 99.385C413.704 99.795 413.624 100.25 413.624 100.75C413.624 101.24 413.704 101.695 413.864 102.115C414.034 102.525 414.264 102.88 414.554 103.18C414.854 103.48 415.204 103.71 415.604 103.87C416.004 104.03 416.439 104.11 416.909 104.11Z" fill="white"/>
<path d="M424.045 102.715V100.84H428.29V102.715H424.045Z" fill="white"/>
<path d="M430.356 106V95.5H439.926V106H437.511V96.925L438.066 97.48H432.216L432.771 96.925V106H430.356Z" fill="white"/>
<path d="M442.529 106V95.5H447.074C448.014 95.5 448.824 95.655 449.504 95.965C450.184 96.265 450.709 96.7 451.079 97.27C451.449 97.84 451.634 98.52 451.634 99.31C451.634 100.09 451.449 100.765 451.079 101.335C450.709 101.905 450.184 102.345 449.504 102.655C448.824 102.955 448.014 103.105 447.074 103.105H443.879L444.959 102.01V106H442.529ZM444.959 102.28L443.879 101.125H446.939C447.689 101.125 448.249 100.965 448.619 100.645C448.989 100.325 449.174 99.88 449.174 99.31C449.174 98.73 448.989 98.28 448.619 97.96C448.249 97.64 447.689 97.48 446.939 97.48H443.879L444.959 96.325V102.28Z" fill="white"/>
<path d="M458.408 106.18C457.578 106.18 456.808 106.045 456.098 105.775C455.398 105.505 454.788 105.125 454.268 104.635C453.758 104.145 453.358 103.57 453.068 102.91C452.788 102.25 452.648 101.53 452.648 100.75C452.648 99.97 452.788 99.25 453.068 98.59C453.358 97.93 453.763 97.355 454.283 96.865C454.803 96.375 455.413 95.995 456.113 95.725C456.813 95.455 457.573 95.32 458.393 95.32C459.223 95.32 459.983 95.455 460.673 95.725C461.373 95.995 461.978 96.375 462.488 96.865C463.008 97.355 463.413 97.93 463.703 98.59C463.993 99.24 464.138 99.96 464.138 100.75C464.138 101.53 463.993 102.255 463.703 102.925C463.413 103.585 463.008 104.16 462.488 104.65C461.978 105.13 461.373 105.505 460.673 105.775C459.983 106.045 459.228 106.18 458.408 106.18ZM458.393 104.11C458.863 104.11 459.293 104.03 459.683 103.87C460.083 103.71 460.433 103.48 460.733 103.18C461.033 102.88 461.263 102.525 461.423 102.115C461.593 101.705 461.678 101.25 461.678 100.75C461.678 100.25 461.593 99.795 461.423 99.385C461.263 98.975 461.033 98.62 460.733 98.32C460.443 98.02 460.098 97.79 459.698 97.63C459.298 97.47 458.863 97.39 458.393 97.39C457.923 97.39 457.488 97.47 457.088 97.63C456.698 97.79 456.353 98.02 456.053 98.32C455.753 98.62 455.518 98.975 455.348 99.385C455.188 99.795 455.108 100.25 455.108 100.75C455.108 101.24 455.188 101.695 455.348 102.115C455.518 102.525 455.748 102.88 456.038 103.18C456.338 103.48 456.688 103.71 457.088 103.87C457.488 104.03 457.923 104.11 458.393 104.11Z" fill="white"/>
<path d="M470.975 106.18C470.165 106.18 469.41 106.05 468.71 105.79C468.02 105.52 467.42 105.14 466.91 104.65C466.4 104.16 466 103.585 465.71 102.925C465.43 102.265 465.29 101.54 465.29 100.75C465.29 99.96 465.43 99.235 465.71 98.575C466 97.915 466.4 97.34 466.91 96.85C467.43 96.36 468.035 95.985 468.725 95.725C469.415 95.455 470.17 95.32 470.99 95.32C471.9 95.32 472.72 95.48 473.45 95.8C474.19 96.11 474.81 96.57 475.31 97.18L473.75 98.62C473.39 98.21 472.99 97.905 472.55 97.705C472.11 97.495 471.63 97.39 471.11 97.39C470.62 97.39 470.17 97.47 469.76 97.63C469.35 97.79 468.995 98.02 468.695 98.32C468.395 98.62 468.16 98.975 467.99 99.385C467.83 99.795 467.75 100.25 467.75 100.75C467.75 101.25 467.83 101.705 467.99 102.115C468.16 102.525 468.395 102.88 468.695 103.18C468.995 103.48 469.35 103.71 469.76 103.87C470.17 104.03 470.62 104.11 471.11 104.11C471.63 104.11 472.11 104.01 472.55 103.81C472.99 103.6 473.39 103.285 473.75 102.865L475.31 104.305C474.81 104.915 474.19 105.38 473.45 105.7C472.72 106.02 471.895 106.18 470.975 106.18Z" fill="white"/>
<path d="M476.894 106V95.5H481.784C483.004 95.5 483.954 95.735 484.634 96.205C485.314 96.675 485.654 97.345 485.654 98.215C485.654 99.075 485.334 99.745 484.694 100.225C484.054 100.695 483.204 100.93 482.144 100.93L482.429 100.3C483.609 100.3 484.524 100.535 485.174 101.005C485.824 101.475 486.149 102.155 486.149 103.045C486.149 103.965 485.799 104.69 485.099 105.22C484.409 105.74 483.399 106 482.069 106H476.894ZM479.309 104.2H481.979C482.539 104.2 482.964 104.09 483.254 103.87C483.544 103.65 483.689 103.31 483.689 102.85C483.689 102.41 483.544 102.085 483.254 101.875C482.964 101.655 482.539 101.545 481.979 101.545H479.309V104.2ZM479.309 99.85H481.574C482.104 99.85 482.504 99.745 482.774 99.535C483.044 99.315 483.179 98.995 483.179 98.575C483.179 98.155 483.044 97.84 482.774 97.63C482.504 97.41 482.104 97.3 481.574 97.3H479.309V99.85Z" fill="white"/>
<path d="M490.306 99.73H495.361V101.62H490.306V99.73ZM490.486 104.05H496.201V106H488.071V95.5H496.006V97.45H490.486V104.05Z" fill="white"/>
<path d="M500.428 106V96.925L500.983 97.48H497.083V95.5H506.188V97.48H502.288L502.828 96.925V106H500.428Z" fill="white"/>
<path d="M507.714 106V95.5H510.129V102.34L515.139 95.5H517.419V106H515.019V99.175L510.009 106H507.714Z" fill="white"/>
<path d="M522.299 106V96.925L522.854 97.48H518.953V95.5H528.059V97.48H524.159L524.698 96.925V106H522.299Z" fill="white"/>
<path d="M531.819 99.73H536.874V101.62H531.819V99.73ZM531.999 104.05H537.714V106H529.584V95.5H537.519V97.45H531.999V104.05Z" fill="white"/>
<path d="M539.782 106.165C539.602 106.165 539.412 106.15 539.212 106.12C539.022 106.09 538.812 106.05 538.582 106L538.732 103.945C538.872 103.985 539.017 104.005 539.167 104.005C539.577 104.005 539.897 103.84 540.127 103.51C540.357 103.17 540.522 102.685 540.622 102.055C540.722 101.425 540.787 100.66 540.817 99.76L540.967 95.5H549.037V106H546.637V96.925L547.192 97.48H542.557L543.052 96.895L542.962 99.67C542.932 100.7 542.862 101.615 542.752 102.415C542.642 103.215 542.472 103.895 542.242 104.455C542.012 105.015 541.697 105.44 541.297 105.73C540.897 106.02 540.392 106.165 539.782 106.165Z" fill="white"/>
<path d="M556.745 98.95C558.015 98.95 558.995 99.235 559.685 99.805C560.375 100.365 560.719 101.21 560.719 102.34C560.719 103.54 560.335 104.45 559.565 105.07C558.805 105.69 557.749 106 556.399 106H551.659V95.5H554.074V98.95H556.745ZM556.264 104.2C556.884 104.2 557.374 104.045 557.734 103.735C558.094 103.425 558.274 102.975 558.274 102.385C558.274 101.805 558.094 101.39 557.734 101.14C557.384 100.88 556.894 100.75 556.264 100.75H554.074V104.2H556.264Z" fill="white"/>
<path d="M567.435 106.18C566.625 106.18 565.87 106.05 565.17 105.79C564.48 105.52 563.88 105.14 563.37 104.65C562.86 104.16 562.46 103.585 562.17 102.925C561.89 102.265 561.75 101.54 561.75 100.75C561.75 99.96 561.89 99.235 562.17 98.575C562.46 97.915 562.86 97.34 563.37 96.85C563.89 96.36 564.495 95.985 565.185 95.725C565.875 95.455 566.63 95.32 567.45 95.32C568.36 95.32 569.18 95.48 569.91 95.8C570.65 96.11 571.27 96.57 571.77 97.18L570.21 98.62C569.85 98.21 569.45 97.905 569.01 97.705C568.57 97.495 568.09 97.39 567.57 97.39C567.08 97.39 566.63 97.47 566.22 97.63C565.81 97.79 565.455 98.02 565.155 98.32C564.855 98.62 564.62 98.975 564.45 99.385C564.29 99.795 564.21 100.25 564.21 100.75C564.21 101.25 564.29 101.705 564.45 102.115C564.62 102.525 564.855 102.88 565.155 103.18C565.455 103.48 565.81 103.71 566.22 103.87C566.63 104.03 567.08 104.11 567.57 104.11C568.09 104.11 568.57 104.01 569.01 103.81C569.45 103.6 569.85 103.285 570.21 102.865L571.77 104.305C571.27 104.915 570.65 105.38 569.91 105.7C569.18 106.02 568.355 106.18 567.435 106.18Z" fill="white"/>
<path d="M580.149 106L576.879 100.945L578.844 99.76L582.909 106H580.149ZM573.324 106V95.5H575.739V106H573.324ZM575.034 101.77V99.745H578.694V101.77H575.034ZM579.069 101.02L576.834 100.75L580.239 95.5H582.804L579.069 101.02Z" fill="white"/>
<path d="M584.047 106V95.5H586.462V102.34L591.472 95.5H593.752V106H591.352V99.175L586.342 106H584.047Z" fill="white"/>
<path d="M596.367 106V95.5H598.781V102.34L603.792 95.5H606.072V106H603.672V99.175L598.661 106H596.367ZM601.212 94.825C600.212 94.825 599.477 94.625 599.007 94.225C598.547 93.825 598.312 93.26 598.302 92.53H599.967C599.977 92.89 600.081 93.165 600.281 93.355C600.491 93.535 600.802 93.625 601.212 93.625C601.612 93.625 601.917 93.535 602.127 93.355C602.337 93.165 602.447 92.89 602.457 92.53H604.122C604.112 93.26 603.872 93.825 603.402 94.225C602.932 94.625 602.202 94.825 601.212 94.825Z" fill="white"/>
<path d="M612.934 106V95.5H615.349V104.02H620.029V95.5H622.444V106H612.934ZM621.709 108.22V105.43L622.234 106H620.029V104.02H623.944V108.22H621.709Z" fill="white"/>
<path d="M627.781 99.73H632.836V101.62H627.781V99.73ZM627.961 104.05H633.676V106H625.546V95.5H633.481V97.45H627.961V104.05Z" fill="white"/>
<path d="M642.839 95.5H645.269V106H642.839V95.5ZM638.069 106H635.639V95.5H638.069V106ZM643.019 101.695H637.889V99.64H643.019V101.695Z" fill="white"/>
<path d="M650.165 106V96.925L650.72 97.48H646.82V95.5H655.925V97.48H652.025L652.565 96.925V106H650.165Z" fill="white"/>
<path d="M657.451 106V95.5H661.995C662.935 95.5 663.746 95.655 664.426 95.965C665.106 96.265 665.63 96.7 666 97.27C666.37 97.84 666.555 98.52 666.555 99.31C666.555 100.09 666.37 100.765 666 101.335C665.63 101.905 665.106 102.345 664.426 102.655C663.746 102.955 662.935 103.105 661.995 103.105H658.801L659.88 102.01V106H657.451ZM659.88 102.28L658.801 101.125H661.861C662.611 101.125 663.171 100.965 663.541 100.645C663.911 100.325 664.096 99.88 664.096 99.31C664.096 98.73 663.911 98.28 663.541 97.96C663.171 97.64 662.611 97.48 661.861 97.48H658.801L659.88 96.325V102.28Z" fill="white"/>
<path d="M171.447 122.62V120.76H176.637V122.62H171.447ZM172.827 116.32C173.617 116.32 174.342 116.455 175.002 116.725C175.662 116.985 176.237 117.36 176.727 117.85C177.217 118.34 177.597 118.915 177.867 119.575C178.137 120.235 178.272 120.96 178.272 121.75C178.272 122.54 178.137 123.265 177.867 123.925C177.597 124.585 177.217 125.16 176.727 125.65C176.237 126.14 175.662 126.52 175.002 126.79C174.342 127.05 173.617 127.18 172.827 127.18C171.897 127.18 171.057 127.02 170.307 126.7C169.567 126.38 168.947 125.915 168.447 125.305L169.992 123.865C170.362 124.285 170.772 124.6 171.222 124.81C171.672 125.01 172.167 125.11 172.707 125.11C173.157 125.11 173.572 125.03 173.952 124.87C174.342 124.7 174.672 124.47 174.942 124.18C175.222 123.88 175.432 123.525 175.572 123.115C175.722 122.705 175.797 122.25 175.797 121.75C175.797 121.25 175.722 120.795 175.572 120.385C175.432 119.975 175.222 119.625 174.942 119.335C174.672 119.035 174.342 118.805 173.952 118.645C173.572 118.475 173.157 118.39 172.707 118.39C172.167 118.39 171.672 118.495 171.222 118.705C170.772 118.905 170.362 119.215 169.992 119.635L168.447 118.195C168.947 117.585 169.567 117.12 170.307 116.8C171.057 116.48 171.897 116.32 172.827 116.32Z" fill="white"/>
<path d="M186.97 127L183.7 121.945L185.665 120.76L189.73 127H186.97ZM180.145 127V116.5H182.56V127H180.145ZM181.855 122.77V120.745H185.515V122.77H181.855ZM185.89 122.02L183.655 121.75L187.06 116.5H189.625L185.89 122.02Z" fill="white"/>
<path d="M195.85 127.18C195.02 127.18 194.25 127.045 193.54 126.775C192.84 126.505 192.23 126.125 191.71 125.635C191.2 125.145 190.8 124.57 190.51 123.91C190.23 123.25 190.09 122.53 190.09 121.75C190.09 120.97 190.23 120.25 190.51 119.59C190.8 118.93 191.205 118.355 191.725 117.865C192.245 117.375 192.855 116.995 193.555 116.725C194.255 116.455 195.015 116.32 195.835 116.32C196.665 116.32 197.425 116.455 198.115 116.725C198.815 116.995 199.42 117.375 199.93 117.865C200.45 118.355 200.855 118.93 201.145 119.59C201.435 120.24 201.58 120.96 201.58 121.75C201.58 122.53 201.435 123.255 201.145 123.925C200.855 124.585 200.45 125.16 199.93 125.65C199.42 126.13 198.815 126.505 198.115 126.775C197.425 127.045 196.67 127.18 195.85 127.18ZM195.835 125.11C196.305 125.11 196.735 125.03 197.125 124.87C197.525 124.71 197.875 124.48 198.175 124.18C198.475 123.88 198.705 123.525 198.865 123.115C199.035 122.705 199.12 122.25 199.12 121.75C199.12 121.25 199.035 120.795 198.865 120.385C198.705 119.975 198.475 119.62 198.175 119.32C197.885 119.02 197.54 118.79 197.14 118.63C196.74 118.47 196.305 118.39 195.835 118.39C195.365 118.39 194.93 118.47 194.53 118.63C194.14 118.79 193.795 119.02 193.495 119.32C193.195 119.62 192.96 119.975 192.79 120.385C192.63 120.795 192.55 121.25 192.55 121.75C192.55 122.24 192.63 122.695 192.79 123.115C192.96 123.525 193.19 123.88 193.48 124.18C193.78 124.48 194.13 124.71 194.53 124.87C194.93 125.03 195.365 125.11 195.835 125.11Z" fill="white"/>
<path d="M203.264 127.165C203.084 127.165 202.894 127.15 202.694 127.12C202.504 127.09 202.294 127.05 202.064 127L202.214 124.945C202.354 124.985 202.499 125.005 202.649 125.005C203.059 125.005 203.379 124.84 203.609 124.51C203.839 124.17 204.004 123.685 204.104 123.055C204.204 122.425 204.269 121.66 204.299 120.76L204.449 116.5H212.519V127H210.119V117.925L210.674 118.48H206.039L206.534 117.895L206.444 120.67C206.414 121.7 206.344 122.615 206.234 123.415C206.124 124.215 205.954 124.895 205.724 125.455C205.494 126.015 205.179 126.44 204.779 126.73C204.379 127.02 203.874 127.165 203.264 127.165Z" fill="white"/>
<path d="M220.166 127.18C219.336 127.18 218.566 127.045 217.856 126.775C217.156 126.505 216.546 126.125 216.026 125.635C215.516 125.145 215.116 124.57 214.826 123.91C214.546 123.25 214.406 122.53 214.406 121.75C214.406 120.97 214.546 120.25 214.826 119.59C215.116 118.93 215.521 118.355 216.041 117.865C216.561 117.375 217.171 116.995 217.871 116.725C218.571 116.455 219.331 116.32 220.151 116.32C220.981 116.32 221.741 116.455 222.431 116.725C223.131 116.995 223.736 117.375 224.246 117.865C224.766 118.355 225.171 118.93 225.461 119.59C225.751 120.24 225.896 120.96 225.896 121.75C225.896 122.53 225.751 123.255 225.461 123.925C225.171 124.585 224.766 125.16 224.246 125.65C223.736 126.13 223.131 126.505 222.431 126.775C221.741 127.045 220.986 127.18 220.166 127.18ZM220.151 125.11C220.621 125.11 221.051 125.03 221.441 124.87C221.841 124.71 222.191 124.48 222.491 124.18C222.791 123.88 223.021 123.525 223.181 123.115C223.351 122.705 223.436 122.25 223.436 121.75C223.436 121.25 223.351 120.795 223.181 120.385C223.021 119.975 222.791 119.62 222.491 119.32C222.201 119.02 221.856 118.79 221.456 118.63C221.056 118.47 220.621 118.39 220.151 118.39C219.681 118.39 219.246 118.47 218.846 118.63C218.456 118.79 218.111 119.02 217.811 119.32C217.511 119.62 217.276 119.975 217.106 120.385C216.946 120.795 216.866 121.25 216.866 121.75C216.866 122.24 216.946 122.695 217.106 123.115C217.276 123.525 217.506 123.88 217.796 124.18C218.096 124.48 218.446 124.71 218.846 124.87C219.246 125.03 219.681 125.11 220.151 125.11Z" fill="white"/>
<path d="M227.768 127V116.5H235.178L235.163 118.48H229.613L230.168 117.925L230.183 127H227.768Z" fill="white"/>
<path d="M236.659 127V116.5H239.074V123.34L244.084 116.5H246.364V127H243.964V120.175L238.954 127H236.659Z" fill="white"/>
<path d="M255.256 123.085C254.736 123.295 254.236 123.455 253.756 123.565C253.276 123.665 252.816 123.715 252.376 123.715C250.966 123.715 249.886 123.38 249.136 122.71C248.386 122.03 248.011 121.055 248.011 119.785V116.5H250.411V119.515C250.411 120.235 250.606 120.78 250.996 121.15C251.386 121.51 251.941 121.69 252.661 121.69C253.121 121.69 253.566 121.64 253.996 121.54C254.426 121.43 254.826 121.275 255.196 121.075L255.256 123.085ZM254.911 127V116.5H257.311V127H254.911Z" fill="white"/>
<path d="M262.156 120.73H267.211V122.62H262.156V120.73ZM262.336 125.05H268.051V127H259.921V116.5H267.856V118.45H262.336V125.05Z" fill="white"/>
<path d="M274.979 127.18C274.169 127.18 273.414 127.05 272.714 126.79C272.024 126.52 271.424 126.14 270.914 125.65C270.404 125.16 270.004 124.585 269.714 123.925C269.434 123.265 269.294 122.54 269.294 121.75C269.294 120.96 269.434 120.235 269.714 119.575C270.004 118.915 270.404 118.34 270.914 117.85C271.434 117.36 272.039 116.985 272.729 116.725C273.419 116.455 274.174 116.32 274.994 116.32C275.904 116.32 276.724 116.48 277.454 116.8C278.194 117.11 278.814 117.57 279.314 118.18L277.754 119.62C277.394 119.21 276.994 118.905 276.554 118.705C276.114 118.495 275.634 118.39 275.114 118.39C274.624 118.39 274.174 118.47 273.764 118.63C273.354 118.79 272.999 119.02 272.699 119.32C272.399 119.62 272.164 119.975 271.994 120.385C271.834 120.795 271.754 121.25 271.754 121.75C271.754 122.25 271.834 122.705 271.994 123.115C272.164 123.525 272.399 123.88 272.699 124.18C272.999 124.48 273.354 124.71 273.764 124.87C274.174 125.03 274.624 125.11 275.114 125.11C275.634 125.11 276.114 125.01 276.554 124.81C276.994 124.6 277.394 124.285 277.754 123.865L279.314 125.305C278.814 125.915 278.194 126.38 277.454 126.7C276.724 127.02 275.899 127.18 274.979 127.18Z" fill="white"/>
<path d="M287.693 127L284.423 121.945L286.388 120.76L290.453 127H287.693ZM280.868 127V116.5H283.283V127H280.868ZM282.578 122.77V120.745H286.238V122.77H282.578ZM286.613 122.02L284.378 121.75L287.783 116.5H290.348L286.613 122.02Z" fill="white"/>
<path d="M296.572 127.18C295.742 127.18 294.972 127.045 294.262 126.775C293.562 126.505 292.952 126.125 292.432 125.635C291.922 125.145 291.522 124.57 291.232 123.91C290.952 123.25 290.812 122.53 290.812 121.75C290.812 120.97 290.952 120.25 291.232 119.59C291.522 118.93 291.927 118.355 292.447 117.865C292.967 117.375 293.577 116.995 294.277 116.725C294.977 116.455 295.737 116.32 296.557 116.32C297.387 116.32 298.147 116.455 298.837 116.725C299.537 116.995 300.142 117.375 300.652 117.865C301.172 118.355 301.577 118.93 301.867 119.59C302.157 120.24 302.302 120.96 302.302 121.75C302.302 122.53 302.157 123.255 301.867 123.925C301.577 124.585 301.172 125.16 300.652 125.65C300.142 126.13 299.537 126.505 298.837 126.775C298.147 127.045 297.392 127.18 296.572 127.18ZM296.557 125.11C297.027 125.11 297.457 125.03 297.847 124.87C298.247 124.71 298.597 124.48 298.897 124.18C299.197 123.88 299.427 123.525 299.587 123.115C299.757 122.705 299.842 122.25 299.842 121.75C299.842 121.25 299.757 120.795 299.587 120.385C299.427 119.975 299.197 119.62 298.897 119.32C298.607 119.02 298.262 118.79 297.862 118.63C297.462 118.47 297.027 118.39 296.557 118.39C296.087 118.39 295.652 118.47 295.252 118.63C294.862 118.79 294.517 119.02 294.217 119.32C293.917 119.62 293.682 119.975 293.512 120.385C293.352 120.795 293.272 121.25 293.272 121.75C293.272 122.24 293.352 122.695 293.512 123.115C293.682 123.525 293.912 123.88 294.202 124.18C294.502 124.48 294.852 124.71 295.252 124.87C295.652 125.03 296.087 125.11 296.557 125.11Z" fill="white"/>
<path d="M304.174 127V116.5H306.589V123.34L311.599 116.5H313.879V127H311.479V120.175L306.469 127H304.174ZM309.019 115.825C308.019 115.825 307.284 115.625 306.814 115.225C306.354 114.825 306.119 114.26 306.109 113.53H307.774C307.784 113.89 307.889 114.165 308.089 114.355C308.299 114.535 308.609 114.625 309.019 114.625C309.419 114.625 309.724 114.535 309.934 114.355C310.144 114.165 310.254 113.89 310.264 113.53H311.929C311.919 114.26 311.679 114.825 311.209 115.225C310.739 115.625 310.009 115.825 309.019 115.825Z" fill="white"/>
<path d="M327.537 127L324.267 121.945L326.232 120.76L330.297 127H327.537ZM320.712 127V116.5H323.127V127H320.712ZM322.422 122.77V120.745H326.082V122.77H322.422ZM326.457 122.02L324.222 121.75L327.627 116.5H330.192L326.457 122.02Z" fill="white"/>
<path d="M331.971 125.02C332.551 125.19 333.036 125.24 333.426 125.17C333.826 125.09 334.181 124.81 334.491 124.33L335.001 123.565L335.226 123.31L338.706 116.5H341.091L336.621 124.81C336.221 125.56 335.746 126.135 335.196 126.535C334.656 126.935 334.061 127.16 333.411 127.21C332.761 127.27 332.086 127.155 331.386 126.865L331.971 125.02ZM335.181 125.335L330.441 116.5H333.036L336.516 123.55L335.181 125.335Z" fill="white"/>
<path d="M342.175 127.165C341.995 127.165 341.805 127.15 341.605 127.12C341.415 127.09 341.205 127.05 340.975 127L341.125 124.945C341.265 124.985 341.41 125.005 341.56 125.005C341.97 125.005 342.29 124.84 342.52 124.51C342.75 124.17 342.915 123.685 343.015 123.055C343.115 122.425 343.18 121.66 343.21 120.76L343.36 116.5H351.43V127H349.03V117.925L349.585 118.48H344.95L345.445 117.895L345.355 120.67C345.325 121.7 345.255 122.615 345.145 123.415C345.035 124.215 344.865 124.895 344.635 125.455C344.405 126.015 344.09 126.44 343.69 126.73C343.29 127.02 342.785 127.165 342.175 127.165Z" fill="white"/>
<path d="M359.137 119.95C360.407 119.95 361.387 120.235 362.077 120.805C362.767 121.365 363.112 122.21 363.112 123.34C363.112 124.54 362.727 125.45 361.957 126.07C361.197 126.69 360.142 127 358.792 127H354.052V116.5H356.467V119.95H359.137ZM358.657 125.2C359.277 125.2 359.767 125.045 360.127 124.735C360.487 124.425 360.667 123.975 360.667 123.385C360.667 122.805 360.487 122.39 360.127 122.14C359.777 121.88 359.287 121.75 358.657 121.75H356.467V125.2H358.657Z" fill="white"/>
<path d="M366.029 127V117.925L366.584 118.48H362.684V116.5H371.789V118.48H367.889L368.429 117.925V127H366.029Z" fill="white"/>
<path d="M373.221 125.02C373.801 125.19 374.286 125.24 374.676 125.17C375.076 125.09 375.431 124.81 375.741 124.33L376.251 123.565L376.476 123.31L379.956 116.5H382.341L377.871 124.81C377.471 125.56 376.996 126.135 376.446 126.535C375.906 126.935 375.311 127.16 374.661 127.21C374.011 127.27 373.336 127.155 372.636 126.865L373.221 125.02ZM376.431 125.335L371.691 116.5H374.286L377.766 123.55L376.431 125.335Z" fill="white"/>
<path d="M383.495 127V116.5H388.04C388.98 116.5 389.79 116.655 390.47 116.965C391.15 117.265 391.675 117.7 392.045 118.27C392.415 118.84 392.6 119.52 392.6 120.31C392.6 121.09 392.415 121.765 392.045 122.335C391.675 122.905 391.15 123.345 390.47 123.655C389.79 123.955 388.98 124.105 388.04 124.105H384.845L385.925 123.01V127H383.495ZM385.925 123.28L384.845 122.125H387.905C388.655 122.125 389.215 121.965 389.585 121.645C389.955 121.325 390.14 120.88 390.14 120.31C390.14 119.73 389.955 119.28 389.585 118.96C389.215 118.64 388.655 118.48 387.905 118.48H384.845L385.925 117.325V123.28Z" fill="white"/>
<path d="M399.288 119.95C400.558 119.95 401.538 120.235 402.228 120.805C402.918 121.365 403.263 122.21 403.263 123.34C403.263 124.54 402.878 125.45 402.108 126.07C401.348 126.69 400.293 127 398.943 127H394.203V116.5H396.618V119.95H399.288ZM398.808 125.2C399.428 125.2 399.918 125.045 400.278 124.735C400.638 124.425 400.818 123.975 400.818 123.385C400.818 122.805 400.638 122.39 400.278 122.14C399.928 121.88 399.438 121.75 398.808 121.75H396.618V125.2H398.808ZM404.598 127V116.5H407.013V127H404.598Z" fill="white"/>
<path d="M408.998 129.31L409.988 125.71L410.318 127.06C409.888 127.06 409.533 126.935 409.253 126.685C408.983 126.435 408.848 126.09 408.848 125.65C408.848 125.21 408.988 124.86 409.268 124.6C409.548 124.34 409.893 124.21 410.303 124.21C410.723 124.21 411.068 124.345 411.338 124.615C411.608 124.875 411.743 125.22 411.743 125.65C411.743 125.78 411.733 125.91 411.713 126.04C411.693 126.16 411.653 126.31 411.593 126.49C411.543 126.66 411.458 126.88 411.338 127.15L410.483 129.31H408.998Z" fill="white"/>
<path d="M417.802 127V116.5H427.372V127H424.957V117.925L425.512 118.48H419.662L420.217 117.925V127H417.802Z" fill="white"/>
<path d="M429.975 127V116.5H434.52C435.46 116.5 436.27 116.655 436.95 116.965C437.63 117.265 438.155 117.7 438.525 118.27C438.895 118.84 439.08 119.52 439.08 120.31C439.08 121.09 438.895 121.765 438.525 122.335C438.155 122.905 437.63 123.345 436.95 123.655C436.27 123.955 435.46 124.105 434.52 124.105H431.325L432.405 123.01V127H429.975ZM432.405 123.28L431.325 122.125H434.385C435.135 122.125 435.695 121.965 436.065 121.645C436.435 121.325 436.62 120.88 436.62 120.31C436.62 119.73 436.435 119.28 436.065 118.96C435.695 118.64 435.135 118.48 434.385 118.48H431.325L432.405 117.325V123.28Z" fill="white"/>
<path d="M440.683 127V116.5H443.098V123.34L448.108 116.5H450.388V127H447.988V120.175L442.978 127H440.683Z" fill="white"/>
<path d="M453.002 127V116.5H457.547C458.487 116.5 459.297 116.655 459.977 116.965C460.657 117.265 461.182 117.7 461.552 118.27C461.922 118.84 462.107 119.52 462.107 120.31C462.107 121.09 461.922 121.765 461.552 122.335C461.182 122.905 460.657 123.345 459.977 123.655C459.297 123.955 458.487 124.105 457.547 124.105H454.352L455.432 123.01V127H453.002ZM455.432 123.28L454.352 122.125H457.412C458.162 122.125 458.722 121.965 459.092 121.645C459.462 121.325 459.647 120.88 459.647 120.31C459.647 119.73 459.462 119.28 459.092 118.96C458.722 118.64 458.162 118.48 457.412 118.48H454.352L455.432 117.325V123.28Z" fill="white"/>
<path d="M468.882 127.18C468.052 127.18 467.282 127.045 466.572 126.775C465.872 126.505 465.262 126.125 464.742 125.635C464.232 125.145 463.832 124.57 463.542 123.91C463.262 123.25 463.122 122.53 463.122 121.75C463.122 120.97 463.262 120.25 463.542 119.59C463.832 118.93 464.237 118.355 464.757 117.865C465.277 117.375 465.887 116.995 466.587 116.725C467.287 116.455 468.047 116.32 468.867 116.32C469.697 116.32 470.457 116.455 471.147 116.725C471.847 116.995 472.452 117.375 472.962 117.865C473.482 118.355 473.887 118.93 474.177 119.59C474.467 120.24 474.612 120.96 474.612 121.75C474.612 122.53 474.467 123.255 474.177 123.925C473.887 124.585 473.482 125.16 472.962 125.65C472.452 126.13 471.847 126.505 471.147 126.775C470.457 127.045 469.702 127.18 468.882 127.18ZM468.867 125.11C469.337 125.11 469.767 125.03 470.157 124.87C470.557 124.71 470.907 124.48 471.207 124.18C471.507 123.88 471.737 123.525 471.897 123.115C472.067 122.705 472.152 122.25 472.152 121.75C472.152 121.25 472.067 120.795 471.897 120.385C471.737 119.975 471.507 119.62 471.207 119.32C470.917 119.02 470.572 118.79 470.172 118.63C469.772 118.47 469.337 118.39 468.867 118.39C468.397 118.39 467.962 118.47 467.562 118.63C467.172 118.79 466.827 119.02 466.527 119.32C466.227 119.62 465.992 119.975 465.822 120.385C465.662 120.795 465.582 121.25 465.582 121.75C465.582 122.24 465.662 122.695 465.822 123.115C465.992 123.525 466.222 123.88 466.512 124.18C466.812 124.48 467.162 124.71 467.562 124.87C467.962 125.03 468.397 125.11 468.867 125.11Z" fill="white"/>
<path d="M483.151 125.92V118.48H479.551L479.506 120.01C479.476 120.66 479.431 121.275 479.371 121.855C479.321 122.435 479.241 122.965 479.131 123.445C479.021 123.915 478.876 124.315 478.696 124.645C478.526 124.975 478.311 125.21 478.051 125.35L475.456 125.02C475.816 125.03 476.111 124.905 476.341 124.645C476.581 124.385 476.771 124.02 476.911 123.55C477.051 123.07 477.151 122.51 477.211 121.87C477.281 121.23 477.331 120.535 477.361 119.785L477.481 116.5H485.551V125.92H483.151ZM475.111 129.175L475.126 125.02H487.021V129.175H484.771V127H477.361V129.175H475.111Z" fill="white"/>
<path d="M493.742 119.95C495.012 119.95 495.992 120.235 496.682 120.805C497.372 121.365 497.717 122.21 497.717 123.34C497.717 124.54 497.332 125.45 496.562 126.07C495.802 126.69 494.747 127 493.397 127H488.657V116.5H491.072V119.95H493.742ZM493.262 125.2C493.882 125.2 494.372 125.045 494.732 124.735C495.092 124.425 495.272 123.975 495.272 123.385C495.272 122.805 495.092 122.39 494.732 122.14C494.382 121.88 493.892 121.75 493.262 121.75H491.072V125.2H493.262ZM499.052 127V116.5H501.467V127H499.052Z" fill="white"/>
<path d="M508.329 127V116.5H510.744V123.34L515.754 116.5H518.034V127H515.634V120.175L510.624 127H508.329Z" fill="white"/>
<path d="M524.897 127V116.5H532.307L532.292 118.48H526.742L527.297 117.925L527.312 127H524.897Z" fill="white"/>
<path d="M537.744 127.18C536.914 127.18 536.144 127.045 535.434 126.775C534.734 126.505 534.124 126.125 533.604 125.635C533.094 125.145 532.694 124.57 532.404 123.91C532.124 123.25 531.984 122.53 531.984 121.75C531.984 120.97 532.124 120.25 532.404 119.59C532.694 118.93 533.099 118.355 533.619 117.865C534.139 117.375 534.749 116.995 535.449 116.725C536.149 116.455 536.909 116.32 537.729 116.32C538.559 116.32 539.319 116.455 540.009 116.725C540.709 116.995 541.314 117.375 541.824 117.865C542.344 118.355 542.749 118.93 543.039 119.59C543.329 120.24 543.474 120.96 543.474 121.75C543.474 122.53 543.329 123.255 543.039 123.925C542.749 124.585 542.344 125.16 541.824 125.65C541.314 126.13 540.709 126.505 540.009 126.775C539.319 127.045 538.564 127.18 537.744 127.18ZM537.729 125.11C538.199 125.11 538.629 125.03 539.019 124.87C539.419 124.71 539.769 124.48 540.069 124.18C540.369 123.88 540.599 123.525 540.759 123.115C540.929 122.705 541.014 122.25 541.014 121.75C541.014 121.25 540.929 120.795 540.759 120.385C540.599 119.975 540.369 119.62 540.069 119.32C539.779 119.02 539.434 118.79 539.034 118.63C538.634 118.47 538.199 118.39 537.729 118.39C537.259 118.39 536.824 118.47 536.424 118.63C536.034 118.79 535.689 119.02 535.389 119.32C535.089 119.62 534.854 119.975 534.684 120.385C534.524 120.795 534.444 121.25 534.444 121.75C534.444 122.24 534.524 122.695 534.684 123.115C534.854 123.525 535.084 123.88 535.374 124.18C535.674 124.48 536.024 124.71 536.424 124.87C536.824 125.03 537.259 125.11 537.729 125.11Z" fill="white"/>
<path d="M545.158 127.165C544.978 127.165 544.788 127.15 544.588 127.12C544.398 127.09 544.188 127.05 543.958 127L544.108 124.945C544.248 124.985 544.393 125.005 544.543 125.005C544.953 125.005 545.273 124.84 545.503 124.51C545.733 124.17 545.898 123.685 545.998 123.055C546.098 122.425 546.163 121.66 546.193 120.76L546.343 116.5H554.413V127H552.013V117.925L552.568 118.48H547.933L548.428 117.895L548.338 120.67C548.308 121.7 548.238 122.615 548.128 123.415C548.018 124.215 547.848 124.895 547.618 125.455C547.388 126.015 547.073 126.44 546.673 126.73C546.273 127.02 545.768 127.165 545.158 127.165Z" fill="white"/>
<path d="M557.395 125.02C557.975 125.19 558.46 125.24 558.85 125.17C559.25 125.09 559.605 124.81 559.915 124.33L560.425 123.565L560.65 123.31L564.13 116.5H566.515L562.045 124.81C561.645 125.56 561.17 126.135 560.62 126.535C560.08 126.935 559.485 127.16 558.835 127.21C558.185 127.27 557.51 127.155 556.81 126.865L557.395 125.02ZM560.605 125.335L555.865 116.5H558.46L561.94 123.55L560.605 125.335Z" fill="white"/>
<path d="M567.67 127V116.5H576.145V118.435H570.085V120.595H572.995C574.265 120.595 575.23 120.86 575.89 121.39C576.56 121.92 576.895 122.69 576.895 123.7C576.895 124.74 576.525 125.55 575.785 126.13C575.045 126.71 574 127 572.65 127H567.67ZM570.085 125.2H572.515C573.135 125.2 573.61 125.08 573.94 124.84C574.27 124.59 574.435 124.23 574.435 123.76C574.435 122.84 573.795 122.38 572.515 122.38H570.085V125.2Z" fill="white"/>
<path d="M580.979 120.73H586.034V122.62H580.979V120.73ZM581.159 125.05H586.874V127H578.744V116.5H586.679V118.45H581.159V125.05Z" fill="white"/>
<path d="M588.837 127V116.5H593.727C594.947 116.5 595.897 116.735 596.577 117.205C597.257 117.675 597.597 118.345 597.597 119.215C597.597 120.075 597.277 120.745 596.637 121.225C595.997 121.695 595.147 121.93 594.087 121.93L594.372 121.3C595.552 121.3 596.467 121.535 597.117 122.005C597.767 122.475 598.092 123.155 598.092 124.045C598.092 124.965 597.742 125.69 597.042 126.22C596.352 126.74 595.342 127 594.012 127H588.837ZM591.252 125.2H593.922C594.482 125.2 594.907 125.09 595.197 124.87C595.487 124.65 595.632 124.31 595.632 123.85C595.632 123.41 595.487 123.085 595.197 122.875C594.907 122.655 594.482 122.545 593.922 122.545H591.252V125.2ZM591.252 120.85H593.517C594.047 120.85 594.447 120.745 594.717 120.535C594.987 120.315 595.122 119.995 595.122 119.575C595.122 119.155 594.987 118.84 594.717 118.63C594.447 118.41 594.047 118.3 593.517 118.3H591.252V120.85Z" fill="white"/>
<path d="M605.039 127.18C604.209 127.18 603.439 127.045 602.729 126.775C602.029 126.505 601.419 126.125 600.899 125.635C600.389 125.145 599.989 124.57 599.699 123.91C599.419 123.25 599.279 122.53 599.279 121.75C599.279 120.97 599.419 120.25 599.699 119.59C599.989 118.93 600.394 118.355 600.914 117.865C601.434 117.375 602.044 116.995 602.744 116.725C603.444 116.455 604.204 116.32 605.024 116.32C605.854 116.32 606.614 116.455 607.304 116.725C608.004 116.995 608.609 117.375 609.119 117.865C609.639 118.355 610.044 118.93 610.334 119.59C610.624 120.24 610.769 120.96 610.769 121.75C610.769 122.53 610.624 123.255 610.334 123.925C610.044 124.585 609.639 125.16 609.119 125.65C608.609 126.13 608.004 126.505 607.304 126.775C606.614 127.045 605.859 127.18 605.039 127.18ZM605.024 125.11C605.494 125.11 605.924 125.03 606.314 124.87C606.714 124.71 607.064 124.48 607.364 124.18C607.664 123.88 607.894 123.525 608.054 123.115C608.224 122.705 608.309 122.25 608.309 121.75C608.309 121.25 608.224 120.795 608.054 120.385C607.894 119.975 607.664 119.62 607.364 119.32C607.074 119.02 606.729 118.79 606.329 118.63C605.929 118.47 605.494 118.39 605.024 118.39C604.554 118.39 604.119 118.47 603.719 118.63C603.329 118.79 602.984 119.02 602.684 119.32C602.384 119.62 602.149 119.975 601.979 120.385C601.819 120.795 601.739 121.25 601.739 121.75C601.739 122.24 601.819 122.695 601.979 123.115C602.149 123.525 602.379 123.88 602.669 124.18C602.969 124.48 603.319 124.71 603.719 124.87C604.119 125.03 604.554 125.11 605.024 125.11Z" fill="white"/>
<path d="M619.308 125.92V118.48H615.708L615.663 120.01C615.633 120.66 615.588 121.275 615.528 121.855C615.478 122.435 615.398 122.965 615.288 123.445C615.178 123.915 615.033 124.315 614.853 124.645C614.683 124.975 614.468 125.21 614.208 125.35L611.613 125.02C611.973 125.03 612.268 124.905 612.498 124.645C612.738 124.385 612.928 124.02 613.068 123.55C613.208 123.07 613.308 122.51 613.368 121.87C613.438 121.23 613.488 120.535 613.518 119.785L613.638 116.5H621.708V125.92H619.308ZM611.268 129.175L611.283 125.02H623.178V129.175H620.928V127H613.518V129.175H611.268Z" fill="white"/>
<path d="M629.779 127.18C628.969 127.18 628.214 127.05 627.514 126.79C626.824 126.52 626.224 126.14 625.714 125.65C625.204 125.16 624.804 124.585 624.514 123.925C624.234 123.265 624.094 122.54 624.094 121.75C624.094 120.96 624.234 120.235 624.514 119.575C624.804 118.915 625.204 118.34 625.714 117.85C626.234 117.36 626.839 116.985 627.529 116.725C628.219 116.455 628.974 116.32 629.794 116.32C630.704 116.32 631.524 116.48 632.254 116.8C632.994 117.11 633.614 117.57 634.114 118.18L632.554 119.62C632.194 119.21 631.794 118.905 631.354 118.705C630.914 118.495 630.434 118.39 629.914 118.39C629.424 118.39 628.974 118.47 628.564 118.63C628.154 118.79 627.799 119.02 627.499 119.32C627.199 119.62 626.964 119.975 626.794 120.385C626.634 120.795 626.554 121.25 626.554 121.75C626.554 122.25 626.634 122.705 626.794 123.115C626.964 123.525 627.199 123.88 627.499 124.18C627.799 124.48 628.154 124.71 628.564 124.87C628.974 125.03 629.424 125.11 629.914 125.11C630.434 125.11 630.914 125.01 631.354 124.81C631.794 124.6 632.194 124.285 632.554 123.865L634.114 125.305C633.614 125.915 632.994 126.38 632.254 126.7C631.524 127.02 630.699 127.18 629.779 127.18Z" fill="white"/>
<path d="M637.86 127V117.925L638.415 118.48H634.515V116.5H643.62V118.48H639.72L640.26 117.925V127H637.86Z" fill="white"/>
<path d="M645.146 127V116.5H650.036C651.256 116.5 652.206 116.735 652.886 117.205C653.566 117.675 653.906 118.345 653.906 119.215C653.906 120.075 653.586 120.745 652.946 121.225C652.306 121.695 651.456 121.93 650.396 121.93L650.681 121.3C651.861 121.3 652.776 121.535 653.426 122.005C654.076 122.475 654.401 123.155 654.401 124.045C654.401 124.965 654.051 125.69 653.351 126.22C652.661 126.74 651.651 127 650.321 127H645.146ZM647.561 125.2H650.231C650.791 125.2 651.216 125.09 651.506 124.87C651.796 124.65 651.941 124.31 651.941 123.85C651.941 123.41 651.796 123.085 651.506 122.875C651.216 122.655 650.791 122.545 650.231 122.545H647.561V125.2ZM647.561 120.85H649.826C650.356 120.85 650.756 120.745 651.026 120.535C651.296 120.315 651.431 119.995 651.431 119.575C651.431 119.155 651.296 118.84 651.026 118.63C650.756 118.41 650.356 118.3 649.826 118.3H647.561V120.85Z" fill="white"/>
<path d="M655.138 127L659.818 116.5H662.218L666.913 127H664.363L660.523 117.73H661.483L657.628 127H655.138ZM657.478 124.75L658.123 122.905H663.523L664.183 124.75H657.478Z" fill="white"/>
<path fill-rule="evenodd" clip-rule="evenodd" d="M171 119.006L169.5 117.506C169.163 117.628 168 118.506 167 119.506C164.682 121.065 164.197 122.325 161.448 123.307C155.082 125.583 148.911 125.332 142.645 122.723C139.19 121.285 136.353 119.077 133.678 116.678C131.998 115.17 130.373 114.398 130.367 112.394C130.815 112.453 133.808 114.158 134.604 114.495C135.692 114.955 139.122 116.261 138.588 113.705C138.194 111.817 135.253 108.927 133.605 107.745C133.256 107.495 132.822 107.349 132.681 106.969C135.978 105.914 131.351 102.447 129.062 101.534C128.741 101.406 128.14 101.253 127.881 101.091C128.051 100.793 128.178 100.821 128.509 100.574C129.126 100.116 130.039 99.5117 130.431 98.8136C131.355 97.169 128.237 97.573 127.289 97.6324C118.792 98.1647 125.186 94.8888 123.538 93.7975C122.615 93.351 120.423 94.7665 119.535 94.8849C119.156 93.9517 119.014 93.4431 118.409 92.7389C117.302 91.4523 114.217 91.0087 113.625 92.0577C112.752 93.6038 115.048 98.402 115.692 99.7149C116.219 100.787 116.711 101.955 117.399 102.957C117.779 103.51 117.715 103.763 117.129 103.998C116.819 103.843 115.61 102.686 115.3 102.342C114.77 101.753 114.063 101.237 113.497 100.658C112.61 99.7504 110.802 98.1803 109.543 97.5508C107.552 96.555 105.719 97.4658 104.457 98.5659C103.593 99.3192 102.769 100.434 102.159 101.506L101.404 102.695C101.474 102.118 101.628 101.744 101.498 101.242C100.929 101.096 100.66 101.553 100.306 101.964C99.4189 102.997 98.6182 104.547 97.0806 104.844C95.9389 105.064 94.5118 104.438 94.3169 103.593C94.015 102.284 95.3896 100.842 94.8943 100.494C94.4019 100.262 93.9549 101.155 93.6348 101.486C93.1896 101.946 92.8591 102.34 92.3889 102.761C91.5491 103.512 90.473 104.408 88.7885 104.21C85.8259 103.862 86.4954 100.313 88.2191 98.8706C88.5977 98.5539 88.5982 98.4655 88.2732 98.1222C87.7917 98.1103 86.8185 99.3242 84.8973 100.094C83.2463 100.755 79.895 101.238 78.8975 99.1738C77.906 97.122 83.4096 95.9917 82.4078 95.0695C82.054 94.8898 81.721 95.2236 81.452 95.3844C80.408 96.0086 79.2745 96.2887 78.0088 96.4882C71.7215 97.4787 67.528 93.1166 73.328 91.7022C74.5486 91.4044 75.5914 91.7598 75.8219 91.1098C75.4906 90.4143 73.9439 90.8658 73.275 90.9706C71.4816 91.2518 69.3506 91.6385 67.5885 91.1337C66.8476 90.9214 65.9236 90.5678 65.6817 89.8499C65.954 89.1284 66.8973 88.6786 67.6558 88.3429C68.2566 88.0771 69.5925 87.5723 70.2505 87.4584C70.6808 87.3839 71.3833 87.4022 71.8764 87.3531C72.754 87.2658 75.8727 87.2066 76.2764 86.4583C75.9723 85.5485 73.268 86.0777 72.4941 86.2166C71.8151 86.3384 71.2147 86.4601 70.5883 86.6322C68.8953 87.0971 60.9189 87.1668 60.2598 85.7797C60.4961 85.2846 62.138 85.0975 62.7297 84.9609C63.6322 84.7526 64.5066 84.5792 65.4336 84.3727C67.2694 83.9635 69.1208 83.6413 70.9926 83.2577C78.6689 81.6847 86.5929 80.9223 94.4214 80.1006C98.0276 79.7221 102.799 81.139 105.473 82.3388C107.453 83.2271 105.984 83.6786 108.747 85.6478C110.256 86.7234 110.972 87.5309 112.334 88.7485C113.343 89.6515 115.28 91.2528 116.806 89.7195C117.804 88.7168 117.972 86.119 118.085 84.3305C118.307 80.8137 117.702 76.2264 115.419 73.635C113.317 71.2481 111.736 73.6066 110.659 73.4879C109.959 73.4109 108.879 72.8746 108.195 72.6351C107.631 72.4374 106.776 72.1015 106.137 72.2515C105.616 72.3742 106.03 72.3717 105.62 72.6062C102.068 70.5862 100.583 70.0376 96.4846 68.766C95.859 68.5718 87.385 66.3536 86.3726 66.3812C84.8705 66.422 86.6496 69.2335 87.5826 70.1298C90.0966 72.5446 94.451 75.1268 98.1843 75.1104C98.6639 75.1082 98.9035 75.0477 98.7199 75.6443C98.0438 77.8393 92.2529 74.2012 90.9885 73.5047C90.6527 73.3196 89.7977 72.6971 89.4552 72.9753C89.1738 73.2943 89.3775 73.4313 89.4859 73.9364L89.5738 74.9218C89.465 75.56 89.7037 74.5474 89.5269 75.0875C89.257 75.9124 87.0676 74.1702 86.9006 74.01C86.5439 73.6674 86.2896 73.3783 85.9451 73.0274C85.6257 72.7019 85.2621 72.077 84.8257 72.2987C84.6509 72.5594 84.6161 73.8405 84.4735 74.2478C82.4813 73.7001 81.4487 68.9593 79.6822 66.5119C79.3642 66.0715 79.0828 65.7826 78.7362 65.33C78.0013 64.3703 76.317 62.5668 76.8583 61.2269C77.7486 59.0233 84.1073 63.892 85.0644 64.5093C88.2636 66.5725 88.2172 65.7202 88.7558 62.1003C88.9096 61.0671 88.813 61.32 89.2212 60.531C89.4945 60.003 90.9406 58.7888 91.5005 58.5533C93.8714 57.556 94.4272 57.9653 96.7965 57.5618C97.7802 57.394 103.283 56.302 101.36 54.4829C101.002 54.1441 100.501 53.9289 99.9936 53.7189C99.6159 53.5624 98.7426 53.4672 98.4898 53.122C98.8532 53.0074 99.4244 53.0204 99.8323 52.9519C100.268 52.879 100.718 52.8051 101.147 52.7108C105.307 51.7967 104.876 49.3692 103.012 48.7587L102.415 48.4703C103.336 48.0199 106.76 48.5048 107.843 47.1141C108.587 46.1591 107.675 45.4233 107.04 45.0139C106.21 44.478 105.282 44.4009 104.486 44.0002C104.72 43.8364 108.49 43.3056 109.129 43.1676C110.93 42.7793 113.87 42.2517 115.105 40.9231C115.769 40.2092 115.227 39.491 114.63 39.1557C113.253 38.382 110.209 38.6019 109.818 38.252C111.302 37.9878 114.002 36.8633 115.274 36.2395C116.006 35.8802 117.023 35.2522 117.449 34.738C118.233 33.791 118.01 32.797 117.008 32.3117C114.423 31.0594 106.793 33.0624 104.345 33.821C102.121 34.5102 101.305 34.946 99.6934 36.6204C97.3272 39.0785 95.7219 42.8525 93.4445 45.3814C92.6834 46.2265 90.5153 48.4052 89.3713 48.8581C88.9366 48.6556 88.1535 47.999 87.3311 47.6129C86.9557 47.4366 86.817 47.4743 86.5326 47.2107L87.1946 46.8658C87.4577 46.7576 87.6646 46.6351 87.9062 46.5221C88.3615 46.3094 88.7979 46.0989 89.2579 45.834C90.0965 45.3516 90.9582 44.6541 91.3905 43.9008C91.9352 42.9516 91.8322 41.6068 91.2003 40.8224C90.227 39.6143 88.7172 40.4398 87.9189 40.1364C87.9309 40.1165 87.955 40.0658 87.9621 40.0815L88.9545 39.2369C90.3541 37.9627 92.836 34.6902 91.6192 32.7456C90.9345 31.6512 89.8628 32.0438 88.7135 32.2569C88.8969 31.7999 89.7374 30.96 90.1026 30.4066C90.4725 29.846 91.0014 29.0526 91.2752 28.2852C91.6673 27.1859 91.4145 26.3083 90.5945 25.9252C89.6269 25.4731 88.6405 25.8317 87.6697 25.9133C87.7896 25.5263 88.1642 24.9726 88.3531 24.5798C89.0468 23.1364 91.4023 18.4564 89.999 17.2169C89.11 16.4318 87.8752 17.7943 87.2905 18.0571C87.6932 16.2559 88.6055 14.69 88.8103 12.7224C88.9194 11.6741 88.8762 10.5222 87.8216 10.4718C86.7337 10.4198 86.145 11.339 85.4857 11.5331L86.5343 6.66758C86.8806 5.03874 87.1294 3.0262 87.0654 1.27414C86.9178 -2.7651 84.422 -1.36377 82.869 0.670274C82.6682 0.93329 81.8162 2.32062 81.6612 2.41905C81.5409 1.29772 81.9679 0.189302 81.5615 -1.07141C80.5296 -4.27321 76.4907 1.80483 75.7991 2.79679C72.9538 6.87746 69.6792 12.9305 67.5198 17.4691C66.7099 19.1714 65.7963 20.8927 65.0576 22.6523C62.202 29.4531 60.1039 33.2824 63.133 40.7509C65.0774 45.5446 66.9146 47.402 65.7518 52.6156C65.3651 54.3492 64.558 57.2898 63.0307 57.6435C61.645 57.9644 58.9184 56.0014 57.7894 55.303C56.1983 54.3186 54.726 53.2052 52.2296 53.216C50.3409 53.2242 47.7246 54.6186 47.509 56.1398C47.4235 56.7439 47.5845 57.4271 47.421 57.9886C47.1582 58.8914 45.0877 60.2968 45.6095 61.8671C46.2914 62.0049 47.0516 61.1835 47.8798 60.965C48.8481 60.7097 49.3041 61.5399 49.8608 62.0868C51.8677 64.0572 56.7813 69.9303 57.6944 70.7138C57.996 70.9725 59.2722 71.9841 59.3893 72.3267C56.6728 73.2284 53.991 74.2407 50.8078 74.669C39.8469 76.144 31.4303 70.3325 24.5653 62.8157L23.2406 61.4327C19.765 57.7764 17.4189 55.0325 13.2736 52.1389C12.4641 51.5739 10.5343 50.7041 9.54979 50.3403C7.13837 49.4488 2.43785 49.3195 0.0298767 50.4331L0 51.1099C2.05029 50.948 2.91302 50.0319 6.39526 50.3878C8.72267 50.6257 10.2153 51.3111 11.8989 52.1637C13.2273 52.8365 13.0031 52.8148 14.0777 53.5599C15.8765 54.8074 17.4149 56.3456 18.937 57.8956L20.6824 59.7291C22.7082 61.9808 24.7864 64.2003 26.9829 66.3057C32.6259 71.7148 38.3081 75.0698 46.8166 75.5782C51.2193 75.8411 55.5934 74.4088 59.0234 73.2026C60.9921 72.5103 59.9718 72.9769 63.8891 74.7813C69.8546 77.5295 75.8678 77.6486 81.6336 74.9269C81.7168 74.0997 80.9724 73.1177 80.5804 72.5927C79.0571 70.5525 75.9788 69.6321 73.2202 69.5935C68.2822 69.5243 65.5009 70.2409 61.4743 71.5904C60.0357 72.0724 60.2115 71.9477 59.2064 71.1323C57.8924 70.0665 57.0247 68.818 55.8733 67.6005L50.9509 62.1594C50.0847 61.2327 49.2216 59.9682 47.8247 60.239C47.1927 60.3617 47.0068 60.6029 46.4916 60.7454C46.7565 59.7031 47.629 59.2017 47.9416 58.6111C48.4571 57.6374 47.8308 56.4509 48.5288 55.615C49.509 54.4409 51.6276 53.5529 53.7948 54.0762C55.0635 54.3823 57.4238 55.8495 58.4283 56.5097C59.4266 57.1657 61.9325 58.8995 63.5928 58.2046C64.9639 57.6311 65.7514 55.4376 66.2037 53.7478C66.815 51.4637 67.1662 49.9811 66.5834 47.4656C65.7272 43.7715 63.6181 41.0116 62.7137 37.0946C61.242 30.7211 64.9853 24.771 67.3996 19.3866C68.6663 16.5617 70.1544 13.8498 71.6306 11.1205C72.4649 9.57811 73.3294 8.00112 74.2493 6.57018C75.0698 5.29383 78.8285 -1.26468 80.6605 -1.23019C81.5049 0.0171981 80.8546 2.72423 80.6311 4.15C80.5085 4.93307 80.0944 5.64519 81.0046 5.63735C81.5654 4.77718 82.8953 0.669405 85.0984 -0.489165C86.1313 -1.03244 86.3205 0.408967 86.367 1.3727C86.5101 4.33776 85.6927 7.48741 85.0286 10.2975C84.8776 10.9372 84.2973 12.6134 84.5032 13.1067C85.0575 13.2727 85.6956 12.3902 86.108 12.0583C89.5712 9.27189 87.7735 14.281 87.2859 15.8523C86.9114 17.06 86.3554 18.1983 85.9559 19.3803C85.7127 20.1004 86.2211 20.3211 86.8543 19.5941C87.3807 18.9899 88.616 17.6289 89.5647 17.7508C90.0091 19.0432 88.8782 21.7263 88.4436 22.7352C88.1356 23.45 87.7338 24.2089 87.3893 24.8755C87.1144 25.4077 86.2708 26.4381 86.4582 26.9679C87.0161 27.1507 88.7074 26.1287 90.107 26.5122C92.1602 27.0749 88.6175 31.2185 88.0089 31.8953C87.6069 32.3422 87.3311 32.7033 86.9511 33.062C86.5804 33.4123 86.0856 33.7394 86.352 34.3223C87.0383 34.3085 88.5415 32.9552 89.8002 32.7092C92.466 32.1882 90.7217 36.4728 89.1405 38.0664C88.3189 38.8945 87.3664 39.6988 86.2934 40.2505C85.8966 40.4544 85.7304 40.4657 85.6356 40.895C86.4465 41.9071 90.0481 39.6618 90.8631 41.6487C91.1155 42.2644 91.0754 43.0864 90.7759 43.5818C89.6609 45.4253 85.1941 46.6325 85.2125 47.2107C85.4184 47.7118 86.4158 47.9914 86.9069 48.2245C87.3948 48.456 88.3923 48.7724 88.5908 49.3426C87.9217 49.868 86.0344 50.693 85.1413 51.0161C83.7747 51.5108 82.6605 51.8043 81.1451 52.1487C79.4203 52.5407 76.6855 53.4285 76.6881 55.4488C76.692 58.4328 83.4024 59.1976 86.062 58.8942C87.5587 58.7235 89.0359 58.3072 89.5225 57.2405C89.8814 56.4535 89.5827 55.7767 89.2571 55.1759C88.8766 54.4742 88.1664 54.104 88.02 53.8004C88.8199 53.3631 89.4598 53.2113 89.8852 52.2767C90.5202 50.8818 89.8911 50.4573 89.8424 49.4289C91.3343 48.6816 93.1708 46.8066 94.1561 45.6052C96.605 42.6193 98.329 38.974 101.072 36.26C103.001 34.3509 110.883 32.7094 113.839 32.6727C114.916 32.6593 116.796 32.5452 117.158 33.4347C117.496 34.2656 115.727 35.203 115.186 35.479C111.935 37.1358 108.135 37.9822 104.606 39.119C104.109 39.2792 103.221 39.3537 103.645 39.983C104.034 40.1382 105.719 39.6575 106.288 39.5432C108.179 39.1625 113.731 38.6334 114.672 40.1677C114.143 42.1277 104.855 43.1754 102.26 43.4526C101.733 43.5088 101.717 43.4836 101.507 43.7688C101.301 44.3825 103.481 44.4653 104.639 44.8028C106.649 45.3888 108.98 46.5818 105.662 47.3513C103.979 47.7416 103.338 47.5866 101.95 47.712C101.19 47.7809 100.263 47.7754 99.4779 47.6643C98.8775 47.5795 98.7537 47.5496 98.3793 47.7989C98.4095 48.5772 99.2799 48.3681 100.012 48.4465C100.715 48.5218 105.302 49.712 102.914 51.2818C101.652 52.1108 97.6665 52.6661 95.848 52.6434C95.2716 52.6364 95.2225 52.6395 95.0139 53.0251C95.2457 53.5958 95.8897 53.4513 96.5217 53.5117C96.8113 53.5393 97.7706 53.8119 98.1626 53.908C99.0879 54.1349 100.624 54.5229 100.977 55.254C100.558 56.0104 98.0597 56.6373 96.8463 56.8365C96.0559 56.9661 95.0202 57.013 94.1945 57.0836C92.9887 57.1868 92.0018 57.5151 90.9378 58.0813C90.4517 58.3402 90.4589 58.4719 90.1369 58.7337C88.6052 59.9794 88.3041 60.3059 87.9771 62.3785C87.8475 63.1998 87.8985 64.1961 87.496 64.8104C86.8409 64.8919 84.7742 63.5642 84.1854 63.1658L82.7131 62.1149C82.1566 61.7631 81.6707 61.4082 81.1083 61.1107C79.8596 60.4501 76.7803 58.7779 76.104 61.2471C75.8688 62.1058 76.1647 62.6733 76.4861 63.3163C77.0556 64.4561 77.8689 65.2778 78.5718 66.2688C78.9291 66.7723 79.3016 67.2033 79.6545 67.7052C80.0503 68.2681 80.2265 68.8356 80.4988 69.4746C81.0173 70.691 81.4529 71.8226 82.1123 72.8904C82.5098 73.5341 83.8699 75.5123 85.0553 74.9624C85.3421 74.6127 85.1248 74.0875 85.4022 73.5981C85.823 73.8047 86.7236 74.8468 87.3105 75.2475C87.8827 75.6383 89.1102 76.329 90.0483 75.9041C90.5376 75.3867 90.1767 74.6595 90.2811 73.9964L94.9736 76.3889C95.6022 76.6634 96.9964 77.1532 97.8639 77.0379C99.3189 76.8444 99.3779 76.0431 99.4661 74.9624C99.7155 74.7914 99.7938 74.7818 99.9947 74.6252C100.093 72.7511 96.9208 71.5095 95.4326 70.9849C92.9473 70.1088 92.7519 70.7793 94.3509 71.7761C95.3356 72.3897 97.6914 73.4538 98.1393 74.3447C97.5847 74.6546 95.0553 73.8001 94.4811 73.5881C92.1452 72.7259 86.718 69.7369 86.641 67.1732C87.7438 67.2671 89.3739 67.7271 90.5192 67.9621C94.8536 68.8515 104.502 71.4417 106.946 74.7607C107.803 75.9237 108.043 76.6842 107.342 78.1968C106.826 79.3104 106.34 80.2244 106.256 81.7662C105.996 81.8063 103.759 80.9167 103.286 80.7501C99.612 79.4553 96.687 79.1347 92.7377 79.5476C83.1437 80.5506 73.6923 81.8261 64.353 83.8739L60.2644 84.8133C59.851 84.9232 59.8522 84.9071 59.6922 85.3124C59.4472 85.9326 59.6035 86.373 60.0285 86.6874C60.7764 87.2409 62.1863 87.3503 63.3003 87.4786C64.6257 87.6314 66.122 87.4853 67.3287 87.6134C67.1589 87.8545 67.195 87.7819 66.8686 87.9383C66.3405 88.191 65.8792 88.4436 65.4635 88.86C63.7497 90.5752 66.6866 92.3281 70.673 92.0249C70.6765 92.565 69.2878 93.1462 70.0373 94.692C70.9283 96.5295 73.118 97.0713 75.0693 97.2819C76.459 97.4318 77.4756 97.1796 78.7378 97.1107C78.3169 98.0023 77.5604 98.4691 78.3685 99.7122C78.7659 100.323 79.6254 100.936 80.4703 101.194C81.4208 101.485 82.7158 101.444 83.6904 101.212L86.3331 100.259C86.3469 100.862 84.8514 104.104 88.3991 104.874C90.1016 105.243 91.2994 104.537 92.4845 103.631C92.8548 103.348 93.1559 102.86 93.5494 102.728C93.5173 103.868 93.8074 104.545 94.4856 104.978C95.0404 105.332 96.0704 105.706 96.9677 105.589C98.3535 105.409 99.0969 104.594 99.8678 103.658C100.124 103.347 100.301 102.964 100.664 102.829C100.589 103.431 100.157 105.403 100.405 105.84C101.032 106.456 101.706 104.056 101.856 103.719C102.942 101.28 104.506 98.2783 107.586 97.8256C109.189 97.5901 111.576 99.8478 112.385 100.609L115.39 103.416C115.6 103.62 116.275 104.254 116.356 104.386C116.16 104.592 116.299 104.487 115.991 104.608C115.826 104.674 115.693 104.704 115.554 104.75C114.467 105.112 111.602 105.855 110.624 105.482C108.914 104.829 107.16 103.927 105.349 103.495C102.979 102.931 103.753 105.016 104.775 105.616C106.98 106.911 110.023 106.108 111.066 106.39C113.253 106.982 114.588 107.609 117.132 107.586C118.899 107.57 120.379 106.239 120.321 108.11L118.504 109.446C116.642 110.705 113.885 113.166 117.023 114.933C116.694 115.959 115.172 117.545 115.685 118.715C115.937 119.29 116.325 119.143 117.02 119.202C116.751 120.101 115.25 123.777 116.567 124.525C117.257 124.917 117.837 124.303 118.267 124.178C118.297 125.085 116.434 129.179 118.472 129C120.07 128.86 123.39 123.472 124.355 122.093C124.819 121.429 125.143 120.823 125.589 120.133C125.96 119.56 126.428 118.701 126.748 118.003C127.382 116.622 128.046 114.914 128.235 113.093C128.429 111.218 127.989 108.851 127.196 107.67C126.245 106.255 124.746 106.015 122.545 105.928C120.771 105.858 120.22 106.364 119.724 105.956C119.099 105.443 118.466 105.049 117.834 104.551C118.01 104.153 118.608 103.865 118.327 103.093C118.271 102.938 117.67 102.01 117.526 101.757C116.745 100.392 113.283 93.2354 114.324 92.3727C114.875 91.9159 117.484 92.0111 118.501 94.1897C119.417 96.1505 118.575 96.1047 121.018 95.1016C121.625 94.8525 122.245 94.6203 122.89 94.4472C122.976 95.1287 120.463 97.8652 123.863 98.3104C125.267 98.4942 129.015 97.875 129.78 98.3777C129.506 99.1771 127.867 100.158 127.071 100.684C126.614 100.986 126.236 101.017 126.364 101.626C126.765 101.8 127.745 101.798 128.586 102.111C129.251 102.36 129.912 102.706 130.463 103.044C131.229 103.514 133.094 104.908 133.041 105.891C132.499 106.722 131.389 106.098 130.777 106.677C130.896 107.25 131.985 107.454 132.982 108.176C133.703 108.697 134.498 109.35 135.022 109.91C135.692 110.625 138.221 113.063 137.867 114.5C136.714 114.777 134.559 113.732 133.741 113.319C132.911 112.9 130.802 111.532 130.065 111.558C129.655 112.102 129.587 112.199 129.682 113.112C129.841 114.648 131.224 115.484 132.243 116.377C132.96 117.005 133.58 117.534 134.296 118.189C141.257 124.57 151.455 127.38 160.78 124.285C166.999 122.221 170.183 119.329 171 119.006ZM120.721 106.809C120.837 107.381 121.736 107.951 120.23 109.145C119.126 110.021 115.004 112.103 116.774 113.947C117.325 114.521 117.719 113.993 118 114.592C118.166 114.908 116.289 117.119 116.355 118.438C117.163 118.511 117.865 117.79 118.103 118.314C118.239 118.614 116.104 122.608 116.972 123.925C118.034 123.9 118.659 122.333 119.347 122.702C119.774 123.106 118.212 125.694 118.29 128.231C119.047 128.192 120.316 126.515 120.766 125.958C122.227 124.152 125.432 119.348 126.29 117.25C127.286 114.816 128.076 112.488 127.182 109.429C126.8 108.121 126.272 107.264 124.954 106.916C124.126 106.698 121.431 106.386 120.721 106.809ZM112.39 85.7797C112.392 87.8628 111.007 85.7534 110.264 85.1027C109.797 84.6935 108.191 83.555 107.513 83.3575C107.843 84.3204 109.667 85.3318 110.499 86.0309C111.808 87.13 115.674 91.9027 116.82 88.2823C117.35 86.6058 117.419 83.7928 117.419 81.9035C117.419 79.1983 116.144 75.5391 114.874 74.0885C114.529 73.6943 113.953 73.2252 113.176 73.2878C112.374 73.3527 111.977 73.8955 111.405 74.1379C110.261 74.623 108.318 73.1306 107.401 73.2064C107.731 73.5987 108.038 73.7904 108.485 74.1878C109.838 75.3922 110.277 76.7377 110.839 78.5167C111.322 80.0467 112.388 84.0813 112.39 85.7797ZM61.2372 72.5036C62.2216 73.6865 67.9709 75.6573 70.124 75.9937C73.143 76.4652 75.5341 76.175 78.3975 75.3692C79.2921 75.1175 80.0081 74.7999 80.7995 74.5673C80.6887 73.1122 78.7603 71.8013 77.5872 71.2294C74.7511 69.8465 69.3121 70.1744 66.2354 70.9322C65.2959 71.1636 61.6924 72.0915 61.2372 72.5036ZM84.2446 54.0055L84.2081 53.4982C84.8618 53.2214 87.0061 53.5095 88.2333 52.9462C89.2453 52.4815 89.8435 51.1798 89.1609 49.9463L85.7715 51.547C83.2867 52.5038 79.7102 52.9755 78.1892 54.1243C74.7174 56.7475 83.0763 59.1711 87.3815 57.9107C89.1242 57.4004 89.4444 56.4293 88.3041 55.06C87.2166 53.7541 85.4753 54.5482 84.2446 54.0055ZM111.577 85.2563C111.698 83.9841 110.139 78.3579 109.453 76.7074C109.166 76.0153 108.322 74.9186 107.825 74.6577C107.991 75.2304 108.289 75.4301 108.416 76.1979C108.728 78.0759 107.27 79.2061 106.997 81.2504C106.819 82.5876 107.124 82.1036 109.138 83.4164C109.625 83.734 109.987 83.9604 110.4 84.2874L111.577 85.2563ZM112.907 106.162C113.467 106.664 116.6 107.027 118.048 106.761C118.5 106.678 118.803 106.661 119.096 106.421C118.919 106.089 118.221 105.712 117.886 105.47C117.235 105.001 117.221 104.877 116.416 105.22C115.55 105.59 113.417 105.886 112.907 106.162ZM108.836 105.678C108.707 105.484 108.856 105.637 108.676 105.507L107.832 105.17C107.488 105.036 107.127 104.904 106.792 104.758C106.179 104.491 105.292 104.086 104.583 104.123C104.503 105.443 107.544 105.707 108.836 105.678Z" fill="url(#paint0_linear_170_9)"/>
<defs>
<linearGradient id="paint0_linear_170_9" x1="127.5" y1="102" x2="4.60411e-06" y2="16.5" gradientUnits="userSpaceOnUse">
<stop stop-color="white"/>
<stop offset="1" stop-color="white" stop-opacity="0.21"/>
</linearGradient>
</defs>
</svg>
